<?xml version="1.0" encoding="UTF-8" standalone="no"?>
<!DOCTYPE svg PUBLIC "-//W3C//DTD SVG 1.1//EN" "http://www.w3.org/Graphics/SVG/1.1/DTD/svg11.dtd">
<svg width="100%" height="100%" viewBox="0 0 104 27" version="1.1" xmlns="http://www.w3.org/2000/svg" xmlns:xlink="http://www.w3.org/1999/xlink" xml:space="preserve" xmlns:serif="http://www.serif.com/" style="fill-rule:evenodd;clip-rule:evenodd;stroke-linecap:round;stroke-linejoin:round;stroke-miterlimit:1.5;">
    <g transform="matrix(1,0,0,1,-21.1868,-933.256)">
        <g transform="matrix(1,0,0,1,0,919.783)">
            <g transform="matrix(2.07655,0,0,7.19817,-4211.74,-1314.87)">
                <g id="guitarist" transform="matrix(0.167217,0,0,0.0482393,1965.54,175.533)">
                    <g transform="matrix(0.828494,0,0,0.828494,124.183,44.0911)">
                        <g id="hair" transform="matrix(0.999716,-0.0238351,0.0238351,0.999716,-6.31738,17.3836)">
                            <path d="M687.083,201.522C686.262,201.174 685.446,200.982 684.549,200.994C683.949,201.002 683.358,201.131 682.795,201.337C681.807,201.7 680.796,202.284 680.165,203.145C679.521,204.023 679.328,205.152 679.21,206.206C679.066,207.48 678.984,208.742 679.119,210.021C679.217,210.95 681.43,213.72 681.508,214.638C681.594,215.652 679.407,216.12 679.381,216.201C679.307,216.436 679.219,216.667 679.135,216.899C679.126,216.924 679.055,217.078 679.066,217.094C679.096,217.135 679.3,217.13 679.338,217.132C679.609,217.146 679.887,217.095 680.152,217.173C680.788,217.359 681.214,218.06 681.412,218.65C681.816,219.851 682.093,221.475 681.945,222.735C681.881,223.286 681.661,223.802 681.521,224.335" style="fill:none;stroke:rgb(17,17,17);stroke-width:0.95px;"/>
                            <path d="M688.656,223.417C688.362,222.182 688.199,220.852 687.763,219.659C687.459,218.828 686.979,218.093 686.509,217.349C686.219,216.89 685.909,216.427 685.533,216.031C684.733,215.188 684.012,214.727 683.975,213.457C683.931,211.901 684.416,210.355 684.251,208.792C684.138,207.714 683.819,206.675 683.686,205.598C683.614,205.018 683.54,204.468 683.751,203.901C684.074,203.032 685.03,202.609 685.909,202.56C686.18,202.545 686.763,202.684 687.005,202.518C687.036,202.497 687.033,202.289 687.037,202.248C687.063,201.965 687.064,201.69 686.994,201.413" style="fill:none;stroke:rgb(17,17,17);stroke-width:0.95px;"/>
                        </g>
                        <g transform="matrix(0.821615,-0.0195889,0.0238351,0.999716,116.996,15.3619)">
                            <path d="M696.11,236.555C697.225,236.246 698.319,235.842 699.459,235.632C701.845,235.193 704.387,235.103 706.809,234.951C708.244,234.861 710.205,234.677 711.503,235.48C713.448,236.685 713.964,239.528 714.608,241.548C715.046,242.922 715.353,244.336 715.809,245.703C716.278,247.111 716.906,248.451 717.395,249.85C718.036,251.682 718.54,253.555 719.095,255.414" style="fill:none;stroke:rgb(17,17,17);stroke-width:1.03px;"/>
                        </g>
                        <g transform="matrix(0.999716,-0.0238351,0.0238351,0.999716,-6.98222,18.3178)">
                            <path d="M696.245,242.026C699.589,242.865 702.553,244.244 705.708,245.567" style="fill:none;stroke:rgb(17,17,17);stroke-width:0.95px;"/>
                        </g>
                        <g transform="matrix(0.999716,-0.0238351,0.0238351,0.999716,-6.98222,18.3178)">
                            <path d="M713.221,247.961C714.969,248.63 716.738,249.087 718.551,249.526" style="fill:none;stroke:rgb(17,17,17);stroke-width:0.95px;"/>
                        </g>
                        <g transform="matrix(0.999716,-0.0238351,0.0238351,0.999716,-6.98222,18.3178)">
                            <path d="M718.792,249.706C719.227,249.444 719.701,249.281 720.201,249.188C720.287,249.172 720.805,249.168 720.859,249.098C721.629,248.109 723.004,246.28 724.559,246.822C725.424,247.123 725.137,248.988 725.028,249.577C724.597,251.893 723.284,254.028 721.994,255.97" style="fill:none;stroke:rgb(17,17,17);stroke-width:0.95px;"/>
                        </g>
                        <g transform="matrix(0.997352,0.0727213,-0.0727213,0.997352,15.7491,-49.1694)">
                            <path d="M698.414,242.343C699.688,242.09 700.911,241.69 702.201,241.499C704.49,241.161 706.862,241.086 709.13,240.637" style="fill:none;stroke:rgb(17,17,17);stroke-width:0.95px;"/>
                        </g>
                        <g transform="matrix(0.997352,0.0727213,-0.0727213,0.997352,15.7491,-49.1694)">
                            <path d="M707.085,241.22C708.152,243.429 708.561,245.951 709.454,248.236C710.163,250.049 711.336,251.737 712.441,253.336" style="fill:none;stroke:rgb(17,17,17);stroke-width:0.95px;"/>
                        </g>
                        <g transform="matrix(0.750776,0.107229,-0.141389,0.989954,199.939,-80.2627)">
                            <path d="M687.397,211.534C687.15,211.56 686.88,211.589 686.596,211.624" style="fill:none;stroke:rgb(17,17,17);stroke-width:1.07px;"/>
                        </g>
                        <g transform="matrix(0.750776,0.107229,-0.141389,0.989954,199.939,-80.2627)">
                            <path d="M685.155,223.434C685.98,223.736 686.79,223.898 687.509,223.882C690.02,223.827 692.585,224.094 693.446,222.269C693.695,221.742 693.639,220.187 693.754,219.601C693.921,218.748 693.868,217.864 693.634,217.006" style="fill:none;stroke:rgb(17,17,17);stroke-width:1.07px;"/>
                        </g>
                        <g transform="matrix(0.999716,-0.0238351,0.0238351,0.999716,-6.31738,17.3836)">
                            <path d="M687.568,201.684C688.732,201.768 690.191,202.1 690.914,203.118C691.259,203.604 691.947,204.998 692.1,205.568C692.323,206.394 692.311,207.164 692.143,207.993C692.126,208.077 692.02,208.675 692,208.675C691.637,208.677 690.615,206.979 690.493,206.761C690.426,206.642 690.362,206.52 690.304,206.397C689.511,204.725 688.975,203.224 687.683,201.851" style="fill:none;stroke:rgb(17,17,17);stroke-width:0.95px;"/>
                        </g>
                        <g transform="matrix(0.999716,-0.0238351,0.0238351,0.999716,-6.31738,17.3836)">
                            <path d="M691.579,210.164C691.657,210.944 689.676,213.237 689.806,214.007C690.103,215.762 692.597,215.981 693.171,217.675C693.728,219.316 694.642,220.79 694.814,222.549C694.906,223.483 694.893,224.398 695.109,225.317C695.14,225.45 695.41,226.176 695.336,226.273C695.251,226.384 694.545,225.997 694.459,225.947C693.574,225.43 692.985,224.608 692.372,223.812C691.854,223.141 691.086,222.639 690.782,221.822C690.265,220.431 690.89,218.906 690.747,217.473C690.634,216.338 690.101,215.16 690.162,214.016" style="fill:none;stroke:rgb(17,17,17);stroke-width:0.95px;"/>
                        </g>
                        <g transform="matrix(0.999716,-0.0238351,0.0238351,0.999716,-6.98222,18.3178)">
                            <path d="M673.598,223.441C669.959,223.624 666.895,225.753 666.699,229.726C666.552,232.709 667.742,235.846 668.534,238.692C668.846,239.814 669.176,241.039 669.635,242.198C670.396,244.12 680.23,246.187 681.71,244.821C683.756,242.933 685.396,240.399 688.097,239.235C690.942,238.009 697.126,237.998 697.169,233.742C697.177,232.907 696.955,232.115 696.731,231.318" style="fill:none;stroke:rgb(17,17,17);stroke-width:0.95px;"/>
                        </g>
                        <g transform="matrix(0.999716,-0.0238351,0.0238351,0.999716,-6.98222,18.3178)">
                            <path d="M683,224C684.241,224.242 684.694,224.551 685.967,224.285C687.065,224.055 687.955,223.358 689,222.99C690.737,222.379 692.808,222.739 693.879,224.309C694.457,225.156 694.834,226.145 695.176,227.106" style="fill:none;stroke:rgb(17,17,17);stroke-width:0.95px;"/>
                        </g>
                        <g transform="matrix(0.999716,-0.0238351,0.0238351,0.999716,-6.98222,18.3178)">
                            <path d="M680.093,216.321C679.954,216.358 679.818,216.402 679.688,216.454C678.614,216.885 678.262,217.852 677.514,218.618C676.548,219.606 675.181,219.939 674.394,221.139C673.898,221.895 673.653,222.71 674.228,223.494C675.007,224.555 676.177,225.263 677.249,225.986C678.31,226.701 679.469,227.379 680.636,227.907C681.554,228.322 682.52,228.633 683.428,229.068C684.688,229.671 685.952,230.479 687.121,231.243C688.127,231.901 688.781,233.01 689.277,234.083C689.35,234.24 689.432,234.417 689.424,234.594C689.413,234.826 689.174,235.317 689.508,235.439C691.417,236.133 692.967,233.278 692.427,231.721C692.232,231.16 691.918,230.684 691.456,230.31C691.294,230.178 690.823,229.993 690.717,229.829C690.716,229.829 691.049,229.563 691.077,229.539C691.413,229.258 692.205,228.656 691.585,228.337C690.523,227.791 689.508,228.594 688.422,228.394C687.292,228.185 686.253,227.394 685.287,226.823C684.359,226.274 683.332,225.141 682.477,224.307C682.366,224.199 679.105,221.096 679,221" style="fill:none;stroke:rgb(17,17,17);stroke-width:0.95px;"/>
                        </g>
                        <g transform="matrix(0.999716,-0.0238351,0.0238351,0.999716,-6.34137,16.3773)">
                            <path d="M689.608,215.795C689.614,216.613 689.843,217.363 690.302,218.035" style="fill:none;stroke:rgb(17,17,17);stroke-width:0.95px;"/>
                        </g>
                        <g transform="matrix(0.999716,-0.0238351,0.0238351,0.999716,-6.98222,18.3178)">
                            <path d="M680.797,222.261C681.238,221.896 681.675,221.524 682.111,221.153" style="fill:none;stroke:rgb(17,17,17);stroke-width:0.95px;"/>
                        </g>
                        <g transform="matrix(0.999716,-0.0238351,0.0238351,0.999716,-6.98222,18.3178)">
                            <path d="M693.461,214.831C694.29,215.073 695.176,215.461 695.687,216.082C696.527,217.103 696.48,217.606 696.598,218.813C696.862,221.516 697.177,224.24 697.768,226.892" style="fill:none;stroke:rgb(17,17,17);stroke-width:0.95px;"/>
                        </g>
                        <g transform="matrix(0.999716,-0.0238351,0.0238351,0.999716,-6.98222,18.3178)">
                            <path d="M692.344,228.905C693.473,228.406 694.718,228.133 695.898,227.791C696.905,227.499 697.903,227.162 698.921,226.912C700.836,226.443 702.786,226.093 704.712,225.671C705.633,225.47 706.453,225.087 707.342,224.806C708.423,224.465 709.583,224.224 710.692,223.982C711.317,223.846 711.934,223.677 712.559,223.542C712.676,223.517 713.09,223.507 713.165,223.418C714.051,222.363 715.12,221.636 716.457,221.239C716.956,221.091 717.478,221.063 717.975,220.92C718.18,220.861 718.379,220.783 718.586,220.731C718.612,220.724 718.782,220.68 718.786,220.691C719.129,221.629 719.146,222.604 719.294,223.579C719.331,223.82 719.37,224.059 719.413,224.298C719.42,224.338 719.474,224.518 719.455,224.551C719.265,224.891 718.716,224.888 718.383,224.94C717.661,225.052 716.944,225.3 716.245,225.512C715.859,225.63 715.366,225.866 714.96,225.871C714.558,225.876 714.194,225.746 713.807,225.736C713.671,225.733 713.85,225.699 713.706,225.736" style="fill:none;stroke:rgb(17,17,17);stroke-width:0.95px;"/>
                        </g>
                        <g transform="matrix(0.999716,-0.0238351,0.0238351,0.999716,-6.98222,18.3178)">
                            <path d="M708,227.563C707.265,227.709 706.245,227.926 705.572,228.112C703.581,228.578 701.583,229.006 699.63,229.624C697.338,230.348 695.115,231.266 692.818,231.979" style="fill:none;stroke:rgb(17,17,17);stroke-width:0.95px;"/>
                        </g>
                        <g transform="matrix(0.999716,-0.0238351,0.0238351,0.999716,-6.98222,18.3178)">
                            <path d="M680.424,228.702C680.044,228.806 679.67,228.936 679.287,229.031C679.256,229.038 678.924,229.102 678.923,229.116C678.888,229.504 679.108,230.009 679.116,230.422C679.126,230.982 678.839,231.511 678.838,232.038C678.837,232.327 678.988,232.669 679.056,232.946C679.25,233.731 679.502,234.477 679.741,235.247C679.961,235.953 680.458,236.448 680.725,237.139C680.744,237.189 680.884,237.847 680.924,237.856C681.247,237.927 681.653,237.844 681.972,237.775C682.004,237.768 682.266,237.725 682.269,237.707C682.382,236.859 682.023,235.826 681.86,235.004C681.71,234.241 681.48,233.494 681.319,232.732C681.07,231.555 680.775,230.379 680.417,229.229" style="fill:none;stroke:rgb(17,17,17);stroke-width:0.95px;"/>
                        </g>
                        <g transform="matrix(0.999716,-0.0238351,0.0238351,0.999716,-6.98222,18.3178)">
                            <path d="M686.02,230.438C685.849,230.717 685.735,231.022 685.665,231.341C685.564,231.802 685.489,232.312 685.651,232.767C686.022,233.81 687.432,234.428 688.438,234.64" style="fill:none;stroke:rgb(17,17,17);stroke-width:0.95px;"/>
                        </g>
                        <g transform="matrix(0.999716,-0.0238351,0.0238351,0.999716,-6.98222,18.3178)">
                            <path d="M687.566,227.826C688.516,227.563 689.545,227.378 690.452,227.871" style="fill:none;stroke:rgb(17,17,17);stroke-width:0.95px;"/>
                        </g>
                        <g transform="matrix(0.999716,-0.0238351,0.0238351,0.999716,-6.98222,18.3178)">
                            <path d="M698.033,232.985C699.13,232.73 700.275,232.535 701.297,232.035C702.166,231.61 702.869,230.936 703.764,230.548C705.157,229.944 706.725,229.983 708.148,229.461C708.807,229.219 709.419,228.868 709.993,228.466C710.234,228.298 710.5,227.974 710.765,227.862C711.444,227.575 712.269,228.179 712.923,227.886C713.203,227.76 713.341,227.439 713.454,227.173C713.732,226.512 713.882,225.573 713.347,224.987C712.984,224.59 712.192,225.335 712,225.614C711.975,225.65 712.033,225.997 712,226C711.936,226.006 711.361,225.535 711.282,225.467C710.804,225.053 710.237,224.498 709.612,224.314C708.721,224.052 708.036,224.896 707.486,225.439C707.358,225.566 706.913,225.879 706.964,226.088C707.126,226.743 707.974,226.923 708.385,227.381" style="fill:none;stroke:rgb(17,17,17);stroke-width:0.95px;"/>
                        </g>
                    </g>
                    <g transform="matrix(0.828494,0,0,0.828494,124.183,44.0911)">
                        <path d="M683.966,210.694C683.591,209.991 683.271,209.425 682.642,208.889C682.499,208.768 682.144,208.499 681.937,208.676C681.774,208.815 681.37,209.914 681.211,209.914C680.994,209.914 681.211,209.48 681.211,209.263C681.211,208.891 681.093,208.528 681.083,208.153C681.082,208.116 681.053,207.628 681.04,207.661C680.747,208.424 680.869,209.531 680.869,210.331C680.869,210.552 680.758,211.175 680.997,211.335C681.059,211.376 681.124,210.63 681.126,210.598C681.136,210.379 680.969,208.47 680.933,208.505C680.25,209.186 679.941,210.631 680.677,211.367C680.745,211.435 680.688,211.175 680.688,211.079C680.688,210.794 679.897,210.199 679.897,209.914C679.897,209.163 680.602,208.731 680.602,207.971C680.602,207.88 680.565,206.675 680.485,206.775C680.352,206.939 680.328,207.348 680.271,207.554C680.241,207.663 680.207,207.998 680.207,207.885C680.207,206.992 680.353,206.387 681.115,205.814C681.154,205.784 682.273,205.238 682.151,205.12C681.946,204.922 681.612,205.338 681.499,205.451C681.432,205.518 680.507,205.451 680.602,205.451C680.981,205.451 682.879,203.87 683.347,204.354C683.778,204.801 685.097,206.369 685.749,206.497C686.244,206.595 686.201,206.288 686.412,206.07C686.44,206.041 686.541,206.22 686.572,206.188C686.593,206.166 686.491,205.392 686.721,205.622C687.082,205.983 686.905,206.692 687.298,207.085C687.489,207.275 687.544,205.544 687.544,205.814C687.544,206.471 687.399,207.645 687.49,208.292C687.508,208.417 687.469,208.866 687.544,208.943C687.569,208.969 687.614,208.614 687.629,208.569C687.755,208.199 687.928,208.052 687.928,207.629C687.928,207.541 687.883,207.044 687.875,207.063C687.398,208.172 686.81,209.253 686.412,210.395C686.276,210.783 686.215,211.183 686.123,211.58C686.08,211.769 686.059,212.35 686.059,212.157C686.059,211.998 686.367,210.793 686.23,210.726C685.973,210.6 685.653,211.079 685.536,211.228C685.074,211.815 684.859,212.549 684.778,213.278C684.762,213.42 684.808,214.259 684.82,214.24C685.053,213.865 684.951,212.925 684.799,212.552C684.772,212.487 684.568,212.063 684.393,212.2C683.81,212.658 683.57,213.71 683.347,214.368C683.27,214.592 683.203,214.808 683.155,215.041C683.131,215.152 683.133,215.496 683.133,215.382C683.133,214.749 683.185,214.108 683.016,213.492C682.996,213.42 682.881,212.77 682.706,212.841C682.348,212.984 682.215,214.633 682.193,214.987C682.177,215.254 682.193,215.788 682.193,215.788C682.193,215.788 682.193,215.062 682.193,214.699C682.193,213.924 681.958,213.43 681.627,212.745C681.595,212.678 681.1,211.816 681.072,211.901C680.742,212.886 682.713,214.154 682.749,215.185C682.755,215.343 682.659,216.147 682.813,216.146C685.417,216.118 683.1,214.862 683.155,214.699C683.201,214.559 683.347,214.551 683.347,214.699C683.347,215.64 683.018,217.101 682.813,218.02C682.734,218.375 680.587,218.112 680.527,218.469C680.499,218.635 680.463,218.97 680.463,218.97C680.463,218.97 680.351,218.61 680.463,218.5C680.969,218.009 684.276,218.196 682.813,218.02C682.601,217.994 682.949,217.208 683.016,217.411C683.132,217.764 680.625,217.752 680.549,218.095C680.214,219.6 679.589,220.895 679.022,222.313C678.755,222.98 678.559,223.673 678.296,224.342C678.199,224.587 678.082,224.822 677.965,225.057C677.925,225.136 677.854,225.365 677.826,225.282C677.535,224.41 678.42,223.304 678.722,222.548C678.835,222.268 678.946,221.988 679.075,221.715C679.146,221.563 679.3,221.111 679.321,221.277C679.364,221.625 678.954,222.19 678.797,222.473C678.649,222.742 678.506,222.962 678.338,223.221C678.125,223.55 677.696,224.477 677.324,224.662C677.206,224.721 677.324,224.399 677.324,224.267C677.324,224.011 677.345,223.771 677.399,223.52C677.608,222.546 677.976,222.28 678.659,221.597C678.813,221.443 678.898,221.219 679.054,221.063C679.133,220.984 679.241,220.686 679.257,220.797C679.308,221.163 678.496,221.678 678.296,221.928C677.499,222.925 677.116,224.198 676.373,225.25C676.007,225.769 675.657,226.301 675.359,226.862C675.239,227.088 675.136,227.324 675.028,227.556C674.988,227.64 674.924,227.891 674.9,227.802C674.673,226.972 674.739,225.567 675.166,224.833C675.411,224.412 675.462,224.508 675.904,224.288C676.064,224.209 676.299,223.746 676.299,223.925C676.299,224.837 674.959,224.707 674.718,225.314C674.361,226.212 675.294,227.75 674.504,228.539C674.233,228.81 673.199,229.241 672.785,228.966C672.674,228.892 672.84,228.346 672.935,228.346C672.992,228.346 672.642,228.475 672.518,228.475C672.159,228.475 671.883,228.624 671.557,228.624C671.093,228.624 670.439,229.044 670.041,229.244C669.815,229.357 669.802,229.415 669.549,229.415C669.446,229.415 671.454,227.802 671.557,227.802C671.886,227.802 669.709,229.113 669.966,228.987C670.099,228.922 670.393,228.87 670.393,228.87C670.393,228.87 670.058,229.019 669.902,229.115C669.601,229.301 668.366,229.085 668.054,229.244C667.467,229.542 667.811,231.606 667.649,232.17C667.196,233.743 667.89,234.752 668.054,236.249C668.255,238.081 668.25,239.611 669.613,240.98C670.021,241.388 670.66,241.437 671.173,241.642C673.202,242.452 675.314,242.544 677.42,242.924C677.983,243.025 679.503,243.338 679.897,243.041C680.128,242.868 680.256,242.383 680.463,242.176C680.845,241.794 681.377,241.462 681.766,241.087C682.332,240.54 683.274,240.22 683.87,239.72C684.147,239.487 684.356,239.087 684.692,238.919C684.935,238.797 685.418,238.716 685.707,238.812C685.803,238.844 686.177,238.987 686.177,238.919" style="fill:none;stroke:rgb(17,17,17);stroke-width:4.73px;"/>
                    </g>
                    <g transform="matrix(0.828494,0,0,0.828494,124.183,44.0911)">
                        <path d="M671.92,234.284C671.92,233.62 671.963,232.96 671.963,232.298C671.963,232.152 671.963,232.59 671.963,232.735C671.963,232.946 671.96,233.156 671.963,233.366C671.97,233.821 671.813,235.298 672.166,235.651C672.249,235.734 672.187,235.416 672.187,235.299C672.187,235.096 672.187,234.893 672.187,234.69C672.187,234.6 672.151,234.333 672.144,234.423C672.074,235.347 672.231,236.346 672.272,237.274C672.277,237.373 672.271,238.106 672.443,238.15C672.69,238.213 672.686,236.429 672.678,236.249C672.669,236.037 672.527,235.431 672.497,235.64C672.387,236.416 673.01,237.104 673.49,237.637C673.696,237.866 673.908,238.088 674.12,238.31C674.195,238.388 674.321,238.651 674.344,238.545C674.384,238.367 674.308,238.2 674.238,238.043C674.195,237.949 674.144,237.672 674.099,237.765C673.922,238.125 674.927,239.114 675.305,239.303C675.338,239.32 676.078,240.003 676.096,239.912C676.11,239.838 675.697,238.952 675.594,238.79C675.48,238.613 675.245,238.081 675.209,238.289C675.117,238.828 676.029,239.578 676.395,239.944C676.551,240.1 676.718,240.56 676.875,240.403C677.01,240.268 676.781,239.745 676.726,239.634C676.398,238.979 675.405,238.488 675.177,237.883C674.545,236.202 674.088,234.035 674.088,232.266C674.088,232.073 674.076,232.65 674.088,232.842C674.108,233.162 674.166,233.483 674.195,233.804C674.302,235.011 674.891,236.009 675.092,237.167C675.161,237.566 675.331,237.889 675.572,238.214C675.689,238.372 675.92,238.843 675.967,238.652C676.059,238.281 675.651,237.655 675.497,237.349C674.993,236.341 673.456,234.619 673.81,233.366C673.95,232.873 674.666,232.304 674.91,231.807C675.054,231.513 674.973,231.088 675.156,230.749C675.66,229.813 676.602,228.964 677.559,228.485C678.01,228.26 678.429,228.87 678.883,228.742C679.172,228.66 679.323,228.284 679.588,228.154C680.013,227.945 681.302,228.72 681.83,228.752C681.964,228.76 682.236,228.848 682.268,229.008C682.31,229.218 681.386,229.133 681.221,229.169C680.605,229.303 680.305,229.493 680.143,230.141C680.085,230.373 680.115,230.647 680.346,230.76C680.475,230.824 680.56,230.3 680.624,230.429C680.755,230.697 680.995,231.861 680.784,232.02C680.339,232.355 679.326,231.029 679.161,230.76C679.142,230.73 678.934,230.238 678.851,230.28C678.671,230.369 678.766,231.9 678.766,232.073C678.766,233.476 678.766,234.878 678.766,236.281C678.766,236.75 678.813,237.663 679.31,237.947C679.573,238.097 679.548,237.382 679.588,237.082C679.733,235.984 679.637,234.848 679.555,233.75C679.529,233.401 679.534,233.226 679.534,232.896C679.534,232.757 679.534,232.34 679.534,232.479C679.534,233.327 679.503,234.173 679.492,235.021C679.481,235.8 679.481,235.775 679.481,236.559C679.481,237.465 679.462,239.618 680.549,237.915C680.669,237.726 680.781,237.533 680.89,237.338C681.626,236.033 682.231,234.652 682.877,233.302C683.011,233.021 683.188,232.286 683.411,232.063C683.504,231.97 683.42,232.328 683.4,232.458C683.332,232.9 683.2,233.331 683.122,233.771C682.881,235.14 682.703,236.567 682.642,237.957C682.628,238.267 682.494,239.013 682.882,239.199C683.578,239.531 684.053,238.784 684.286,238.267C684.865,236.989 684.811,235.544 684.927,234.177C684.976,233.604 685.071,233.064 685.173,232.501C685.19,232.403 685.249,232.028 685.258,231.902C685.264,231.824 685.293,231.598 685.258,231.668C684.903,232.379 684.685,233.225 684.521,233.996C684.402,234.556 684.304,235.262 684.254,235.833C684.203,236.431 684.108,237.181 684.212,237.787C684.349,238.588 685.318,238.103 685.6,237.723C685.745,237.527 685.893,237.334 686.016,237.124C686.167,236.87 686.301,236.605 686.422,236.335C687.162,234.683 687.392,232.988 687.405,231.198C687.409,230.552 687.481,229.13 686.689,228.827C686.055,228.585 685.43,230.732 685.322,231.016C685.187,231.373 685.053,231.731 684.938,232.095C684.807,232.507 684.694,232.925 684.585,233.344C684.476,233.766 684.381,234.19 684.286,234.615C684.043,235.706 683.377,239.128 685.634,238.359C686.377,238.106 686.896,237.13 687.18,236.462C688.037,234.454 688.093,231.878 687.544,229.788C687.4,229.244 687.121,227.163 686.347,226.969C685.552,226.769 685.1,228.442 684.938,228.87C684.268,230.644 683.813,232.579 683.731,234.476C683.703,235.136 683.633,236.14 684.546,236.14C685.509,236.14 685.916,234.545 686.091,233.889C686.705,231.596 686.433,229.378 685.931,227.118C685.8,226.531 685.774,225.351 685.376,224.844C685.238,224.668 685.117,225.061 685.109,225.079C684.931,225.484 684.731,226.059 684.607,226.456C684.155,227.898 683.789,229.368 683.475,230.845C683.444,230.991 682.974,232.727 683.407,232.727C683.842,232.727 684.212,231.518 684.308,231.283C685.117,229.291 684.913,226.812 684.521,224.769C684.498,224.647 684.26,222.632 684.052,222.569C683.566,222.424 682.902,224.2 682.813,224.406C682.038,226.19 681.425,228.101 681.008,230.002C680.953,230.253 680.562,231.883 680.965,232.084C681.509,232.355 682.137,230.46 682.215,230.248C683.11,227.789 683.485,225.103 684.19,222.58C684.266,222.308 684.873,220.309 684.457,220.059C684.095,219.842 683.589,221.092 683.55,221.17C682.68,222.886 682.013,224.704 681.328,226.499C681.158,226.945 680.818,227.826 680.656,228.304C680.587,228.506 680.402,229.108 680.335,229.372C680.313,229.459 680.239,229.711 680.293,229.639C681.747,227.673 682.065,224.884 682.866,222.633C683.429,221.053 684.299,219.958 685.184,218.607C685.746,217.747 686.114,216.17 686.283,215.201C686.34,214.875 686.358,214.559 686.358,214.229C686.358,214.023 686.358,213.609 686.358,213.609C686.358,213.609 686.358,214.386 686.358,214.774C686.358,215.477 686.349,216.175 686.326,216.877C686.315,217.219 686.31,217.561 686.305,217.903C686.302,218.063 686.192,218.496 686.305,218.383C686.607,218.081 686.632,217.015 686.678,216.632C686.837,215.328 687.211,214.135 687.405,212.862C687.488,212.316 687.46,211.747 687.629,211.217C687.691,211.022 687.749,210.82 687.778,210.619C687.791,210.531 687.93,210.317 687.939,210.406C688.15,212.674 687.21,214.409 686.518,216.429C686.177,217.427 685.935,218.462 685.589,219.462C685.267,220.396 684.898,221.315 684.575,222.249C684.468,222.558 684.363,222.869 684.254,223.178C684.178,223.396 684.121,224.037 684.02,223.829C683.855,223.495 684.105,222.491 684.105,222.11C684.105,220.893 683.998,219.686 683.998,218.469C683.998,218.276 684.187,216.677 683.945,216.557C683.813,216.492 683.705,217.266 683.699,217.294C683.482,218.25 683.441,219.329 683.528,220.305C683.531,220.331 683.947,221.69 684.062,221.48C684.586,220.526 684.647,219.314 684.906,218.276C684.993,217.926 685.099,217.61 685.248,217.283C685.3,217.167 685.389,216.803 685.397,216.931C685.442,217.679 685.144,218.527 685.034,219.259C684.827,220.635 684.674,222.02 684.511,223.402C684.476,223.696 684.064,225.833 684.5,225.997C684.916,226.153 685.166,225.609 685.333,225.335C685.941,224.335 686.359,223.221 686.828,222.153C687.038,221.674 687.046,221.656 687.266,221.224C687.359,221.04 687.566,220.484 687.576,220.69C687.655,222.397 686.839,224.233 686.39,225.848C686.224,226.446 685.876,227.272 685.995,227.919C686.028,228.098 686.266,227.666 686.347,227.503C686.607,226.984 686.708,226.733 686.913,226.157C687.346,224.945 687.679,223.696 687.96,222.441C688.057,222.008 688.132,221.571 688.227,221.138C688.274,220.926 688.345,220.297 688.398,220.508C688.712,221.776 688.327,223.536 688.056,224.769C687.926,225.363 687.824,225.715 687.661,226.285C687.581,226.564 687.488,226.838 687.415,227.118C687.395,227.195 687.373,227.433 687.373,227.353C687.373,226.871 687.969,225.983 688.12,225.538C688.451,224.564 688.694,223.572 688.804,222.548C688.885,221.794 688.868,221.55 688.868,220.829C688.868,220.661 688.868,220.494 688.868,220.327C688.868,220.223 688.897,219.918 688.868,220.017C688.172,222.361 687.841,225.158 687.81,227.588C687.803,228.184 687.757,229.304 688.451,229.628C688.877,229.827 689.037,229.138 689.124,228.891C689.573,227.618 689.598,226.26 689.69,224.929C689.699,224.793 689.755,224.135 689.786,223.925C689.8,223.834 689.773,223.63 689.861,223.659C690.009,223.707 689.822,223.969 689.775,224.117C689.621,224.601 689.423,225.07 689.252,225.549C688.558,227.496 687.98,229.494 687.469,231.497C687.404,231.751 686.753,233.811 687.234,234.049C687.716,234.288 688.23,232.743 688.291,232.597C688.942,231.037 689.137,229.434 689.391,227.781C689.445,227.431 689.522,226.905 689.637,226.553C689.699,226.361 689.791,226.181 689.871,225.997C689.894,225.944 689.95,225.791 689.957,225.848C690.132,227.352 689.062,229.314 688.569,230.696C688.408,231.147 688.228,231.591 688.067,232.041C687.981,232.281 687.611,232.806 687.864,232.778C688.067,232.756 688.3,232.368 688.355,232.287C688.989,231.351 689.38,230.263 689.711,229.19C689.894,228.6 689.967,228.283 690.117,227.706C690.17,227.503 690.277,226.887 690.277,227.097C690.277,227.732 689.806,228.441 689.573,229.008C689.094,230.168 688.681,231.37 688.462,232.608C688.408,232.909 688.022,234.475 688.521,234.684C689.768,235.208 690.521,232.388 690.726,231.71C690.902,231.128 690.873,231.164 691.003,230.579C691.056,230.343 691.117,229.637 691.164,229.873C691.408,231.113 690.795,232.651 690.523,233.836C690.492,233.97 690.315,234.724 690.288,234.914C690.267,235.062 690.308,235.433 690.427,235.341C691.404,234.581 691.941,232.665 692.36,231.572C692.471,231.28 692.798,230.376 692.915,230.055C692.979,229.881 693.04,229.705 693.107,229.532C693.164,229.385 693.293,228.948 693.31,229.105C693.477,230.621 692.231,232.596 691.826,234.038C691.758,234.279 691.23,235.797 691.559,236.067C691.744,236.219 691.971,235.972 692.05,235.843C692.432,235.217 692.643,234.531 692.83,233.825C692.867,233.683 692.901,233.54 692.936,233.398C692.969,233.266 693.032,232.867 693.032,233.003C693.032,233.546 692.509,234.017 692.488,234.604C692.478,234.868 692.406,235.284 692.627,235.48C692.675,235.523 692.733,235.256 692.733,235.32C692.733,235.377 692.733,235.547 692.733,235.491C692.733,233.341 693.252,231.066 692.637,228.998C692.45,228.368 692.456,227.656 692.456,227.001C692.456,226.748 692.452,226.504 692.424,226.253C692.41,226.129 692.402,225.755 692.402,225.88C692.402,226.79 692.213,227.687 692.605,228.528C692.659,228.643 693.046,229.344 693.246,229.169C693.713,228.759 693.523,227.307 693.364,226.745C693.175,226.079 693.382,225.275 693.267,224.587C693.101,223.59 692.648,222.67 692.456,221.736C692.373,221.335 692.368,220.458 692.125,220.135C691.845,219.763 691.321,219.891 690.94,219.686C689.727,219.032 688.28,218.616 687.138,217.774C686.611,217.386 685.755,216.759 685.472,216.183C685.455,216.148 686.281,215.929 686.412,216.023C686.711,216.238 686.519,216.986 686.369,217.197C686.043,217.656 685.452,218.28 684.853,218.372C684.597,218.412 684.31,218.372 684.052,218.372C683.915,218.372 683.602,218.555 683.646,218.426C683.942,217.536 685.665,217.671 686.283,217.176C686.723,216.825 684.884,216.618 685.248,216.183C685.323,216.093 685.545,215.611 685.675,215.692C686.122,215.971 688.579,216.137 688.579,216.589C688.579,216.803 688.505,217.421 688.601,217.23C688.811,216.808 686.079,216.304 685.984,215.863C685.682,214.454 688.473,212.497 687.426,211.335C687.031,210.897 686.85,212.516 686.967,212.168" style="fill:none;stroke:rgb(17,17,17);stroke-width:4.73px;"/>
                    </g>
                    <g transform="matrix(0.828494,0,0,0.828494,124.183,44.0911)">
                        <path d="M716.783,252.876C716.874,252.971 716.528,252.809 716.398,252.791C716.18,252.76 715.963,252.748 715.747,252.705C715.036,252.563 714.386,252.205 713.664,252.075C712.239,251.819 710.64,251.536 709.286,251.007C708.978,250.887 708.945,250.642 708.677,250.463C708.355,250.248 707.827,250.202 707.46,250.11C706.099,249.77 704.642,249.881 703.284,249.544C701.634,249.135 700.247,248.413 698.682,247.782C697.624,247.357 696.448,247.386 695.361,247.024C694.686,246.8 694.141,246.343 693.492,246.073C692.362,245.605 691.163,245.239 690.064,244.707C688.625,244.01 687.159,243.792 685.6,243.457C685.345,243.402 684.277,243.061 684.073,243.265C683.89,243.448 684.452,244.234 684.596,244.386C685.37,245.208 686.981,245.629 688.035,245.946C688.379,246.049 688.746,246.076 689.081,246.18C689.271,246.24 689.847,246.373 689.647,246.373C689.388,246.373 688.87,245.925 688.633,245.796C688.491,245.719 687.75,245.553 687.671,245.401C687.244,244.575 687.741,243.559 688.494,243.169C688.609,243.109 689.096,243.185 689.156,243.105C689.404,242.775 689.633,242.264 689.807,241.888C690.016,241.436 690.107,240.346 690.107,239.837C690.107,239.566 690.017,239.03 690.192,238.812C690.42,238.527 691.899,238.934 691.943,238.844C692.05,238.626 691.766,238.276 691.9,238.075C691.988,237.945 692.499,237.827 692.499,237.648" style="fill:none;stroke:rgb(17,17,17);stroke-width:4.73px;"/>
                    </g>
                    <g transform="matrix(0.828494,0,0,0.828494,124.183,44.0911)">
                        <path d="M689.942,222.387C690.167,222.263 690.29,222.237 690.297,221.981C690.311,221.477 690.296,220.954 690.434,220.471C690.49,220.277 690.631,220.111 690.675,219.916C690.728,219.68 690.827,219.434 690.927,219.218C690.977,219.109 691.042,218.778 691.081,218.892C691.104,218.958 691.041,219.087 691.041,219.166" style="fill:none;stroke:rgb(17,17,17);stroke-width:2.84px;"/>
                    </g>
                    <g transform="matrix(0.828494,0,0,0.828494,124.183,44.0911)">
                        <path d="M697.134,231.45C697.134,231.37 696.335,231.218 696.196,231.21C696.088,231.204 695.801,231.319 695.904,231.353C696.184,231.445 696.787,231.246 697.077,231.204C697.251,231.179 697.246,231.182 697.403,231.141C697.465,231.125 697.638,231.064 697.575,231.056C696.883,230.961 696.363,231.253 695.893,231.748C695.885,231.756 695.411,232.321 695.492,232.343C695.721,232.405 696.003,232.27 696.207,232.194C696.409,232.12 696.388,232.121 696.597,232.04C697.664,231.624 696.265,232.194 695.967,232.366C695.922,232.392 695.69,232.518 695.773,232.623C696.04,232.964 696.832,232.552 697.106,232.446C697.254,232.388 697.4,232.345 697.558,232.32C697.643,232.306 697.901,232.297 697.815,232.297C697.399,232.297 696.8,232.574 696.442,232.772C696.342,232.827 696.097,232.949 696.064,233.081C696.049,233.144 696.187,233.037 696.248,233.012C696.305,232.989 696.462,232.943 696.522,232.926C696.836,232.84 697.141,232.77 697.443,232.646C697.591,232.586 697.889,232.469 697.889,232.469C697.889,232.469 697.509,232.638 697.323,232.732C697.019,232.886 696.615,233.058 696.265,233.058C696.219,233.058 696.357,233.064 696.402,233.058C696.455,233.051 696.578,233.015 696.625,233.001C696.809,232.945 696.99,232.883 697.174,232.829C697.801,232.645 698.372,232.33 698.965,232.063C699.504,231.82 699.88,231.473 700.378,231.176C701.64,230.424 703.053,230.02 704.446,229.654C705.154,229.468 705.781,229.004 706.397,228.652C706.624,228.523 706.874,228.397 707.09,228.252C707.12,228.231 707.478,228.121 707.416,228.057C707.309,227.947 706.96,227.932 706.815,227.937C706.302,227.957 705.621,228.183 705.144,228.384C704.714,228.564 704.256,228.538 703.817,228.693C703.186,228.915 702.615,229.285 701.992,229.528C701.298,229.799 700.566,229.963 699.858,230.192C699.331,230.361 698.784,230.337 698.267,230.552C697.589,230.835 696.805,231.106 696.064,231.158C695.991,231.164 695.397,231.171 695.395,231.158C695.359,230.904 696.208,230.574 696.425,230.546C696.935,230.481 697.223,230.22 697.666,230.049C698.34,229.789 699.058,229.822 699.72,229.453C700.882,228.808 702.328,228.948 703.6,228.658C704.726,228.401 705.762,227.806 706.889,227.543C707.325,227.441 707.831,227.351 708.251,227.211C708.457,227.142 708.921,226.944 709.155,227.045C709.198,227.063 709.389,227.361 709.367,227.365C709.16,227.408 709.101,227.519 709.304,227.583C709.323,227.589 709.868,227.653 709.916,227.588C709.973,227.512 710.072,227.5 710.151,227.451C710.192,227.425 710.264,227.296 710.248,227.342C710.221,227.422 710.116,227.56 710.116,227.56C710.116,227.56 710.104,227.142 710.168,226.947C710.262,226.662 710.458,226.695 710.683,226.604C710.732,226.584 710.98,226.433 710.975,226.444" style="fill:none;stroke:rgb(17,17,17);stroke-width:2.84px;"/>
                    </g>
                    <g transform="matrix(0.828494,0,0,0.828494,124.183,44.0911)">
                        <path d="M714.745,224.007C714.867,223.981 714.969,223.941 715.088,223.909C715.143,223.895 715.28,223.818 715.254,223.869C715.188,224.001 714.954,224.108 714.831,224.173C714.417,224.389 714.003,224.775 713.566,224.899C713.44,224.935 713.346,225.017 713.229,225.071C713.158,225.103 712.967,225.126 713.023,225.18C713.055,225.21 713.219,225.127 713.252,225.105C713.496,224.944 713.872,224.836 714.162,224.762C714.322,224.721 714.525,224.802 714.694,224.773C714.935,224.733 715.215,224.48 715.42,224.379C715.537,224.321 715.997,224.443 715.998,224.441C716.074,224.286 715.954,224.035 715.998,223.864C716.011,223.814 716.194,223.638 716.118,223.663" style="fill:none;stroke:rgb(17,17,17);stroke-width:2.84px;"/>
                    </g>
                    <g transform="matrix(0.828494,0,0,0.828494,124.183,44.0911)">
                        <path d="M693.169,218.737C693.155,218.454 692.912,218.457 692.683,218.4C692.225,218.285 691.872,218.098 691.373,218.222C691.188,218.268 691.188,218.442 690.995,218.52" style="fill:none;stroke:rgb(17,17,17);stroke-width:2.84px;"/>
                    </g>
                    <g transform="matrix(0.828494,0,0,0.828494,124.183,44.0911)">
                        <path d="M690.652,218.709C690.465,218.796 690.278,218.884 690.091,218.972" style="fill:none;stroke:rgb(17,17,17);stroke-width:2.84px;"/>
                    </g>
                    <g transform="matrix(0.828494,0,0,0.828494,124.183,44.0911)">
                        <path d="M674.191,224.624C673.918,224.474 673.621,224.369 673.322,224.275C673.273,224.26 673.059,224.266 673.035,224.218C672.913,223.969 673.559,223.646 673.688,223.56C673.953,223.384 674.426,223.152 674.729,223.091C675.179,223.001 675.652,223.024 675.93,222.628" style="fill:none;stroke:rgb(17,17,17);stroke-width:2.84px;"/>
                    </g>
                    <g transform="matrix(0.828494,0,0,0.828494,124.183,44.0911)">
                        <path d="M675.965,222.565C676.157,221.982 676.237,221.446 676.709,221.049C676.832,220.945 676.971,220.86 677.086,220.745C677.088,220.744 677.243,220.578 677.246,220.585C677.291,220.676 677.272,220.785 677.332,220.877" style="fill:none;stroke:rgb(17,17,17);stroke-width:2.84px;"/>
                    </g>
                    <g transform="matrix(0.828494,0,0,0.828494,124.183,44.0911)">
                        <path d="M697.046,245.597C697.109,245.61 697.255,245.698 697.235,245.637C697.151,245.381 696.287,245.077 696.045,245.077C695.41,245.077 695.061,244.646 694.471,244.442C694.057,244.298 693.463,244.316 693.127,244.001C692.954,243.839 692.586,243.322 692.663,243.068C692.729,242.854 692.922,242.71 692.955,242.473C693.007,242.1 692.906,241.707 692.961,241.335C693.035,240.835 693.564,240.201 693.928,239.876C694.132,239.693 694.409,239.764 694.191,240.07C693.994,240.348 693.715,240.57 693.464,240.797C693.444,240.815 692.832,241.425 692.921,241.455C693.356,241.604 694.139,240.741 694.431,240.5C694.597,240.363 694.762,240.23 694.952,240.128C695.02,240.09 695.218,239.981 695.169,240.042C694.764,240.549 694.066,240.918 693.579,241.352C693.574,241.356 693.012,241.977 693.161,241.999C693.447,242.04 693.677,241.735 693.871,241.57C694.269,241.228 694.671,240.88 695.089,240.562C695.308,240.397 695.543,240.246 695.782,240.11C695.877,240.056 696.17,239.912 696.079,239.973C695.679,240.241 695.348,240.638 694.969,240.94C694.829,241.052 694.686,241.16 694.546,241.272C694.492,241.315 694.332,241.374 694.391,241.409C694.51,241.48 694.787,241.259 694.86,241.209C695.323,240.893 695.724,240.494 696.199,240.196C696.382,240.082 696.571,239.979 696.766,239.887C696.865,239.84 697.161,239.695 697.069,239.756C696.55,240.102 695.992,240.38 695.501,240.768C695.351,240.887 695.208,241.011 695.066,241.14C695.019,241.184 694.872,241.269 694.935,241.283C695.113,241.325 695.389,241.194 695.553,241.146C696.077,240.991 696.593,240.798 697.103,240.603C697.302,240.526 697.499,240.443 697.698,240.368C697.801,240.33 698.122,240.276 698.013,240.276C697.395,240.276 696.587,240.687 696.028,240.929C695.8,241.027 695.586,241.139 695.37,241.261C695.292,241.304 695.056,241.37 695.141,241.398C695.379,241.477 695.763,241.242 695.982,241.18C696.693,240.982 697.43,240.884 698.145,240.7C698.502,240.608 698.851,240.484 699.209,240.396C699.301,240.374 699.399,240.356 699.495,240.356C699.546,240.356 699.701,240.356 699.649,240.356C698.913,240.356 698.139,240.597 697.389,240.637C697.182,240.648 696.762,240.645 696.686,240.912C696.667,240.976 697.357,240.962 697.418,240.963C698.149,240.974 698.765,240.977 699.478,240.831C700.196,240.685 700.859,240.86 701.572,240.923C702.675,241.019 703.773,240.77 704.839,241.152C705.006,241.212 705.234,241.165 705.388,241.266C705.452,241.309 705.068,241.459 705.056,241.466C704.931,241.551 704.824,241.812 704.89,241.964C705.489,243.332 705.688,244.854 705.926,246.335C706.016,246.9 705.942,247.908 706.218,248.389C706.359,248.638 706.838,248.558 707.07,248.681C707.567,248.944 707.913,248.939 708.409,249.076C708.658,249.145 708.791,249.363 709.016,249.465C709.226,249.561 709.427,249.549 709.645,249.66C709.665,249.67 709.363,249.679 709.376,249.665C709.454,249.588 709.413,249.897 709.49,249.974C709.923,250.407 710.587,250.556 711.144,250.752C711.902,251.02 712.653,251.282 713.415,251.536C714.165,251.786 714.771,252.335 715.464,252.681C716.305,253.1 717.161,253.256 718.032,253.579C718.267,253.666 718.729,253.8 718.914,253.985C718.962,254.034 718.899,254.218 718.977,254.317C719.318,254.75 720.071,254.937 720.584,254.7C720.875,254.566 720.93,254.028 721.082,253.762C721.566,252.914 722.003,251.985 722.186,251.01C722.262,250.608 722.4,250.144 722.518,249.751C722.553,249.636 722.622,249.521 722.69,249.419C722.723,249.37 722.797,249.206 722.77,249.259C722.435,249.917 721.539,249.941 720.968,250.209C720.315,250.515 720.013,251.336 719.566,251.851C719.43,252.008 719.302,252.211 719.12,252.32C719.009,252.386 718.544,252.44 718.828,252.44" style="fill:none;stroke:rgb(17,17,17);stroke-width:2.84px;"/>
                    </g>
                    <g transform="matrix(0.828494,0,0,0.828494,124.183,44.0911)">
                        <path d="M708.169,244.882C708.264,244.835 708.32,245.223 708.346,245.3C708.474,245.683 708.548,246.05 708.649,246.438C708.742,246.796 708.949,247.088 709.164,247.382C709.18,247.405 709.447,247.71 709.399,247.76C709.315,247.846 709.031,247.471 708.998,247.434C708.784,247.184 708.55,246.934 708.358,246.667C708.292,246.576 708.25,246.469 708.197,246.37C708.176,246.329 708.14,246.198 708.14,246.244C708.14,246.283 708.139,246.362 708.146,246.387C708.337,247.098 708.871,247.93 709.25,248.561C709.389,248.792 709.493,248.979 709.668,249.133C709.735,249.193 709.801,249.244 709.879,249.288C709.918,249.309 710.016,249.396 709.988,249.362C709.752,249.067 709.426,248.839 709.21,248.527C708.993,248.213 709.004,247.748 708.849,247.4C708.355,246.286 707.889,245.172 707.396,244.064C707.142,243.491 707.052,242.827 706.927,242.216C706.878,241.977 706.812,241.734 706.721,241.506C706.684,241.414 706.607,241.133 706.607,241.232C706.607,241.693 706.846,242.203 706.996,242.634C707.354,243.665 707.811,244.604 708.363,245.546C708.444,245.684 708.518,245.827 708.592,245.969C708.642,246.065 708.693,246.161 708.747,246.255C708.801,246.351 708.857,246.446 708.912,246.541C708.991,246.678 709.544,247.773 709.565,247.405C709.632,246.208 708.707,245.733 708.38,244.688C708.231,244.208 708.333,243.695 708.243,243.206C708.007,241.929 707.672,240.662 707.007,239.555C706.805,239.218 706.799,238.762 706.475,238.491C706.044,238.131 705.186,238.019 704.644,237.988C703.856,237.942 703.084,238.079 702.304,238.079C701.449,238.079 700.501,237.959 699.649,238.079C699.173,238.147 698.73,238.337 698.236,238.337C697.5,238.337 696.801,238.493 696.091,238.554C695.857,238.574 695.629,238.686 695.415,238.777C695.301,238.827 694.982,238.989 695.106,238.989C695.321,238.989 695.535,239.111 695.764,239.115C697.124,239.136 698.42,239.163 699.769,239.298C700.266,239.348 700.701,239.619 701.194,239.693C702.218,239.846 703.293,239.709 704.329,239.824C705.013,239.9 705.642,239.993 706.298,240.168C706.462,240.211 706.893,240.164 706.893,240.385" style="fill:none;stroke:rgb(17,17,17);stroke-width:2.84px;"/>
                    </g>
                </g>
                <g transform="matrix(0.131013,0,0,0.0377951,1986.92,177.857)">
                    <g transform="matrix(0.965926,-0.258819,0.258819,0.965926,-48.7101,116.01)">
                        <path d="M584.066,263.135L584.397,263.3L584.691,263.522L584.94,263.795L585.134,264.109L585.267,264.453L585.335,264.816L585.335,265.185L585.267,265.547L585.134,265.892L584.94,266.205L584.691,266.478L584.397,266.701L584.066,266.865L583.711,266.966L583.344,267L388.625,267L388.258,266.966L387.903,266.865L387.572,266.7L387.278,266.478L387.029,266.205L386.835,265.891L386.701,265.547L386.634,265.185L386.634,264.815L386.701,264.453L386.835,264.109L387.029,263.795L387.278,263.522L387.572,263.3L387.903,263.135L388.258,263.034L388.625,263L583.344,263L583.711,263.034L584.066,263.135Z" style="fill:rgb(17,17,17);"/>
                    </g>
                    <g transform="matrix(-0.965926,-0.258819,-0.258819,0.965926,1215.4,116.01)">
                        <path d="M583.344,263L388.625,263L388.258,263.034L387.903,263.135L387.572,263.3L387.278,263.522L387.029,263.795L386.835,264.109L386.701,264.453L386.634,264.815L386.634,265.185L386.701,265.547L386.835,265.891L387.029,266.205L387.278,266.478L387.572,266.7L387.903,266.865L388.258,266.966L388.625,267L583.344,267L583.711,266.966L584.066,266.865L584.397,266.701L584.691,266.478L584.94,266.205L585.134,265.892L585.267,265.547L585.335,265.185L585.335,264.816L585.267,264.453L585.134,264.109L584.94,263.795L584.691,263.522L584.397,263.3L584.066,263.135L583.711,263.034L583.344,263Z" style="fill:rgb(17,17,17);"/>
                    </g>
                </g>
                <g transform="matrix(0.131013,0,0,0.04922,1986.92,175.013)">
                    <path d="M473.299,248.993C473.041,243.847 473.41,238.673 473.299,233.522C473.291,233.123 473.215,228.744 473.252,228.743C481.22,228.558 489.683,227.104 497.595,227.592C497.597,227.592 497.774,230.852 497.779,230.925C498.004,234.399 497.552,240.144 497.779,243.618" style="fill:rgb(17,17,17);"/>
                    <path d="M494.622,225.958L495.014,225.962L495.405,225.968L495.797,225.976L496.189,225.988L496.581,226.002L496.972,226.018L497.364,226.038L497.745,226.06L497.889,226.073L498.032,226.093L498.173,226.122L498.31,226.158L498.444,226.201L498.573,226.252L498.697,226.31L498.815,226.375L498.927,226.446L499.032,226.524L499.129,226.607L499.218,226.695L499.298,226.788L499.37,226.885L499.432,226.985L499.485,227.089L499.527,227.196L499.559,227.305L499.581,227.415L499.593,227.526L499.684,229.166L499.777,230.859L499.797,231.197L499.813,231.556L499.825,231.924L499.834,232.302L499.84,232.689L499.843,233.085L499.842,233.893L499.833,234.726L499.818,235.576L499.778,237.299L499.738,239.015L499.724,239.851L499.715,240.665L499.714,241.45L499.717,241.826L499.723,242.194L499.732,242.55L499.743,242.894L499.758,243.224L499.777,243.549L499.778,243.664L499.768,243.778L499.747,243.892L499.715,244.004L499.672,244.114L499.618,244.222L499.554,244.325L499.48,244.425L499.397,244.521L499.304,244.611L499.204,244.696L499.095,244.774L498.978,244.847L498.855,244.912L498.726,244.97L498.592,245.021L498.453,245.063L498.311,245.098L498.165,245.124L498.017,245.142L497.868,245.152L497.719,245.153L497.57,245.145L497.422,245.129L497.275,245.104L497.132,245.071L496.993,245.03L496.857,244.981L496.727,244.924L496.603,244.86L496.486,244.789L496.375,244.711L496.273,244.628L496.179,244.538L496.093,244.444L496.018,244.345L495.952,244.242L495.896,244.135L495.851,244.026L495.817,243.914L495.793,243.801L495.781,243.686L495.761,243.346L495.745,242.988L495.733,242.619L495.723,242.241L495.717,241.855L495.714,241.459L495.715,240.651L495.724,239.818L495.739,238.967L495.779,237.244L495.818,235.528L495.833,234.692L495.842,233.878L495.843,233.093L495.84,232.716L495.835,232.348L495.826,231.992L495.815,231.648L495.8,231.318L495.781,230.992L495.688,229.296L495.674,229.047L495.664,229.046L495.306,229.038L494.947,229.033L494.586,229.029L494.225,229.028L493.866,229.029L493.134,229.036L492.401,229.052L491.664,229.074L490.923,229.103L490.179,229.138L489.431,229.178L488.68,229.223L487.927,229.273L487.17,229.327L486.411,229.383L485.651,229.443L484.12,229.567L482.585,229.696L481.046,229.823L480.273,229.885L479.501,229.945L478.728,230.002L477.954,230.056L477.18,230.106L476.406,230.152L475.632,230.193L475.249,230.21L475.258,230.967L475.283,232.588L475.299,233.502L475.314,234.475L475.32,235.452L475.318,236.428L475.309,237.402L475.296,238.374L475.279,239.345L475.244,241.28L475.227,242.245L475.215,243.207L475.207,244.167L475.206,245.126L475.213,246.081L475.229,247.036L475.242,247.51L475.257,247.985L475.276,248.46L475.298,248.938L475.298,249.053L475.286,249.167L475.264,249.281L475.23,249.393L475.186,249.503L475.131,249.609L475.066,249.713L474.991,249.812L474.906,249.907L474.813,249.997L474.711,250.081L474.601,250.159L474.484,250.23L474.36,250.295L474.231,250.352L474.096,250.401L473.956,250.443L473.813,250.477L473.668,250.502L473.52,250.519L473.37,250.528L473.221,250.527L473.072,250.519L472.924,250.501L472.778,250.476L472.635,250.441L472.496,250.399L472.362,250.349L472.232,250.292L472.109,250.227L471.992,250.155L471.882,250.077L471.781,249.992L471.688,249.903L471.604,249.808L471.529,249.708L471.465,249.604L471.41,249.497L471.366,249.388L471.333,249.276L471.311,249.162L471.3,249.048L471.278,248.561L471.259,248.07L471.243,247.579L471.23,247.088L471.213,246.11L471.206,245.133L471.207,244.156L471.215,243.182L471.228,242.209L471.244,241.238L471.28,239.303L471.296,238.338L471.31,237.375L471.318,236.415L471.32,235.457L471.315,234.501L471.299,233.542L471.283,232.626L471.259,230.999L471.249,230.162L471.243,229.438L471.243,228.918L471.247,228.739L471.251,228.677L471.263,228.573L471.283,228.471L471.287,228.458L471.318,228.352L471.359,228.248L471.409,228.146L471.469,228.047L471.538,227.952L471.615,227.861L471.701,227.774L471.794,227.692L471.895,227.615L472.002,227.544L472.116,227.479L472.236,227.42L472.36,227.368L472.489,227.323L472.622,227.285L472.758,227.255L472.897,227.232L473.037,227.216L473.179,227.208L473.915,227.188L474.645,227.161L475.378,227.128L476.116,227.089L476.858,227.045L477.604,226.997L478.354,226.944L479.108,226.888L479.865,226.829L480.624,226.769L482.154,226.642L483.693,226.513L485.238,226.388L486.015,226.327L486.793,226.269L487.572,226.214L488.353,226.162L489.134,226.115L489.917,226.073L490.7,226.036L491.484,226.005L492.268,225.982L493.052,225.965L493.833,225.957L494.229,225.956L494.622,225.958Z" style="fill:rgb(17,17,17);"/>
                </g>
                <g id="smoke" transform="matrix(0.131013,0,0,0.0377951,1986.92,177.857)">
                    <g transform="matrix(1,0,0,1,-2,-1)">
                        <path d="M469.222,177.806L469.4,177.834L469.574,177.878L469.743,177.937L470.422,178.209L471.113,178.478L471.826,178.749L472.559,179.023L474.076,179.587L474.854,179.877L475.643,180.175L476.44,180.481L477.243,180.797L478.047,181.123L478.454,181.292L478.859,181.463L479.263,181.637L479.667,181.815L480.071,181.997L480.474,182.182L480.875,182.372L481.275,182.565L481.674,182.763L482.071,182.966L482.465,183.173L482.857,183.386L483.246,183.603L483.633,183.826L484.016,184.054L484.395,184.288L484.771,184.528L485.143,184.775L485.51,185.027L485.873,185.286L486.231,185.552L486.583,185.825L486.93,186.105L487.271,186.393L487.606,186.688L487.934,186.991L488.254,187.303L488.568,187.622L488.874,187.951L489.172,188.288L489.456,188.628L489.601,188.809L489.74,188.987L489.877,189.169L490.011,189.352L490.142,189.537L490.271,189.725L490.398,189.915L490.521,190.107L490.643,190.302L490.761,190.499L490.876,190.698L490.988,190.9L491.098,191.104L491.205,191.311L491.309,191.52L491.409,191.731L491.506,191.944L491.6,192.16L491.691,192.378L491.779,192.599L491.863,192.822L491.947,193.056L492.013,193.256L492.074,193.466L492.127,193.676L492.173,193.885L492.213,194.094L492.246,194.302L492.274,194.509L492.297,194.716L492.314,194.921L492.327,195.126L492.336,195.33L492.341,195.533L492.343,195.736L492.341,195.944L492.329,196.337L492.307,196.734L492.276,197.127L492.238,197.517L492.196,197.903L492.149,198.283L492.101,198.659L492.002,199.386L491.909,200.091L491.868,200.424L491.833,200.748L491.803,201.06L491.78,201.357L491.765,201.638L491.757,201.91L491.757,202.027L491.759,202.146L491.763,202.259L491.769,202.367L491.777,202.469L491.787,202.564L491.799,202.653L491.812,202.735L491.827,202.81L491.842,202.879L491.858,202.939L491.874,202.992L491.891,203.038L491.907,203.079L491.922,203.111L491.93,203.128L491.935,203.136L491.946,203.152L491.971,203.185L492.011,203.232L492.065,203.29L492.134,203.359L492.215,203.435L492.307,203.517L492.411,203.605L492.525,203.698L492.648,203.794L492.775,203.891L493.064,204.103L493.369,204.32L494.026,204.78L494.365,205.021L494.702,205.268L494.878,205.402L495.047,205.535L495.216,205.671L495.385,205.814L495.551,205.962L495.716,206.117L495.878,206.28L496.027,206.441L496.229,206.674L496.417,206.896L496.601,207.119L496.781,207.344L496.957,207.569L497.13,207.797L497.299,208.026L497.463,208.256L497.624,208.488L497.781,208.721L497.934,208.955L498.083,209.191L498.228,209.427L498.369,209.665L498.506,209.905L498.639,210.146L498.769,210.388L498.894,210.631L499.015,210.876L499.132,211.121L499.246,211.369L499.355,211.617L499.46,211.866L499.562,212.117L499.659,212.369L499.753,212.622L499.842,212.875L499.927,213.13L500.009,213.386L500.086,213.644L500.16,213.902L500.23,214.161L500.295,214.421L500.357,214.682L500.415,214.944L500.469,215.206L500.519,215.47L500.565,215.735L500.607,216L500.646,216.266L500.68,216.533L500.711,216.801L500.738,217.069L500.761,217.338L500.78,217.608L500.796,217.879L500.808,218.151L500.816,218.423L500.821,218.695L500.822,218.969L500.819,219.243L500.812,219.517L500.802,219.792L500.789,220.068L500.772,220.345L500.751,220.622L500.727,220.9L500.699,221.178L500.668,221.457L500.634,221.737L500.596,222.017L500.555,222.297L500.51,222.579L500.464,222.849L500.426,223.025L500.372,223.196L500.303,223.362L500.22,223.521L500.123,223.672L500.012,223.813L499.89,223.944L499.756,224.064L499.612,224.171L499.459,224.264L499.298,224.344L499.13,224.409L498.958,224.458L498.782,224.492L498.603,224.51L498.424,224.512L498.245,224.498L498.068,224.468L497.894,224.422L497.726,224.361L497.563,224.285L497.408,224.194L497.262,224.09L497.125,223.974L497,223.845L496.887,223.706L496.786,223.557L496.7,223.4L496.627,223.236L496.57,223.066L496.528,222.891L496.502,222.714L496.492,222.535L496.498,222.355L496.521,222.177L496.563,221.929L496.601,221.692L496.635,221.457L496.667,221.223L496.696,220.99L496.721,220.759L496.744,220.529L496.764,220.3L496.781,220.073L496.795,219.847L496.806,219.622L496.814,219.398L496.819,219.176L496.822,218.955L496.821,218.735L496.817,218.516L496.811,218.299L496.801,218.082L496.789,217.867L496.773,217.653L496.755,217.44L496.734,217.228L496.71,217.018L496.683,216.808L496.652,216.6L496.619,216.393L496.583,216.186L496.544,215.981L496.503,215.777L496.458,215.573L496.41,215.371L496.359,215.17L496.305,214.969L496.248,214.769L496.188,214.57L496.125,214.373L496.059,214.176L495.99,213.979L495.918,213.784L495.842,213.589L495.764,213.395L495.682,213.201L495.597,213.009L495.509,212.817L495.418,212.626L495.323,212.435L495.225,212.245L495.124,212.055L495.02,211.866L494.912,211.679L494.801,211.491L494.686,211.304L494.568,211.117L494.447,210.931L494.322,210.745L494.194,210.561L494.062,210.376L493.926,210.192L493.787,210.009L493.644,209.825L493.498,209.643L493.348,209.461L493.194,209.279L493.047,209.11L492.988,209.046L492.927,208.984L492.852,208.915L492.764,208.836L492.665,208.752L492.554,208.663L492.434,208.568L492.31,208.474L492.025,208.265L491.72,208.049L491.063,207.589L490.72,207.344L490.379,207.094L490.201,206.959L490.029,206.823L489.857,206.684L489.687,206.539L489.517,206.388L489.349,206.231L489.185,206.066L489.022,205.891L488.863,205.704L488.708,205.504L488.559,205.285L488.425,205.059L488.317,204.848L488.225,204.646L488.145,204.443L488.073,204.24L488.011,204.037L487.957,203.834L487.912,203.633L487.873,203.432L487.841,203.232L487.815,203.034L487.794,202.836L487.778,202.639L487.767,202.444L487.76,202.249L487.757,202.055L487.758,201.854L487.767,201.477L487.788,201.095L487.817,200.715L487.854,200.337L487.895,199.961L487.941,199.586L488.038,198.856L488.135,198.134L488.181,197.784L488.222,197.441L488.259,197.106L488.291,196.78L488.315,196.465L488.332,196.162L488.342,195.865L488.343,195.733L488.342,195.598L488.339,195.468L488.333,195.342L488.325,195.22L488.315,195.103L488.303,194.992L488.289,194.886L488.273,194.785L488.255,194.69L488.235,194.6L488.214,194.517L488.191,194.439L488.164,194.357L488.109,194.204L488.048,194.043L487.986,193.885L487.92,193.728L487.853,193.573L487.783,193.42L487.71,193.267L487.636,193.117L487.559,192.968L487.48,192.821L487.398,192.675L487.315,192.531L487.228,192.387L487.14,192.245L487.05,192.105L486.957,191.965L486.863,191.827L486.766,191.691L486.666,191.555L486.565,191.421L486.462,191.288L486.36,191.161L486.137,190.895L485.911,190.639L485.677,190.387L485.434,190.139L485.183,189.896L484.924,189.657L484.657,189.421L484.383,189.19L484.101,188.962L483.813,188.738L483.517,188.519L483.215,188.303L482.905,188.09L482.591,187.882L482.269,187.677L481.942,187.475L481.61,187.277L481.272,187.082L480.93,186.891L480.582,186.702L480.23,186.517L479.874,186.336L479.514,186.157L479.151,185.981L478.783,185.807L478.413,185.637L478.041,185.47L477.665,185.304L477.288,185.141L476.908,184.981L476.53,184.824L475.76,184.512L474.99,184.209L474.219,183.913L473.448,183.622L472.68,183.335L471.162,182.771L470.414,182.491L469.677,182.211L468.953,181.929L468.255,181.65L468.092,181.576L467.936,181.487L467.788,181.385L467.65,181.27L467.523,181.143L467.408,181.005L467.306,180.858L467.217,180.702L467.143,180.539L467.084,180.369L467.04,180.195L467.012,180.018L467,179.839L467.004,179.659L467.024,179.481L467.06,179.305L467.111,179.133L467.178,178.967L467.259,178.807L467.355,178.655L467.463,178.512L467.585,178.38L467.717,178.258L467.86,178.15L468.012,178.054L468.171,177.973L468.338,177.906L468.51,177.854L468.686,177.818L468.864,177.798L469.043,177.794L469.222,177.806Z" style="fill:rgb(17,17,17);"/>
                    </g>
                    <g transform="matrix(1,0,0,1,3,-1)">
                        <path d="M398.587,178.414L398.826,178.448L399.06,178.51L399.284,178.599L399.496,178.715L399.692,178.856L399.87,179.019L400.027,179.203L400.161,179.404L400.472,179.94L400.785,180.468L401.104,180.997L401.428,181.524L401.758,182.051L402.094,182.577L402.436,183.102L402.783,183.626L403.135,184.148L403.493,184.669L403.857,185.189L404.225,185.707L404.599,186.223L404.979,186.736L405.363,187.248L405.753,187.757L406.147,188.265L406.547,188.769L406.951,189.27L407.36,189.769L407.775,190.264L408.193,190.757L408.617,191.246L409.045,191.731L409.478,192.213L409.915,192.691L410.357,193.165L410.803,193.635L411.254,194.101L411.709,194.562L412.168,195.019L412.631,195.471L413.099,195.919L413.57,196.361L414.045,196.799L414.524,197.231L415.007,197.658L415.494,198.079L415.985,198.495L416.479,198.905L416.977,199.309L417.478,199.706L417.983,200.098L418.492,200.483L419.003,200.862L419.518,201.234L420.037,201.6L420.558,201.958L421.083,202.31L421.61,202.654L422.141,202.991L422.674,203.32L423.21,203.642L423.749,203.957L424.291,204.263L424.836,204.562L425.383,204.852L425.932,205.134L426.484,205.408L427.039,205.673L427.596,205.93L428.155,206.178L428.717,206.417L429.28,206.647L429.841,206.866L430.406,207.077L430.977,207.279L431.553,207.474L432.132,207.66L432.716,207.839L433.305,208.011L433.898,208.175L434.494,208.332L435.093,208.482L435.696,208.625L436.302,208.761L436.911,208.891L437.522,209.014L438.136,209.131L438.752,209.242L439.369,209.347L439.989,209.447L440.61,209.54L441.232,209.628L441.856,209.711L442.48,209.789L443.104,209.861L443.729,209.929L444.354,209.992L444.98,210.051L445.604,210.106L446.229,210.156L446.852,210.203L447.474,210.245L448.096,210.284L448.698,210.319L448.841,210.324L449.002,210.324L449.194,210.32L449.413,210.312L449.656,210.299L449.916,210.282L450.498,210.238L451.129,210.185L451.799,210.125L452.498,210.066L453.212,210.009L453.927,209.962L454.289,209.943L454.645,209.928L454.998,209.917L455.348,209.912L455.694,209.913L456.035,209.921L456.372,209.938L456.706,209.964L457.024,210L457.198,210.026L457.363,210.054L457.529,210.087L457.697,210.125L457.865,210.17L458.035,210.221L458.208,210.282L458.386,210.354L458.568,210.439L458.752,210.539L458.905,210.635L459.047,210.737L459.177,210.843L459.298,210.952L459.409,211.062L459.522,211.186L459.684,211.387L459.834,211.601L459.964,211.811L460.078,212.017L460.18,212.219L460.272,212.416L460.356,212.611L460.435,212.803L460.51,212.995L460.646,213.357L460.775,213.711L460.898,214.045L461.022,214.362L461.078,214.498L461.136,214.631L461.193,214.753L461.247,214.863L461.3,214.96L461.349,215.043L461.392,215.11L461.429,215.162L461.458,215.198L461.484,215.226L461.585,215.3L461.693,215.374L461.799,215.444L461.902,215.507L462.001,215.565L462.1,215.619L462.198,215.669L462.292,215.715L462.385,215.756L462.479,215.794L462.571,215.829L462.664,215.862L462.758,215.892L462.852,215.919L462.948,215.944L463.047,215.966L463.147,215.987L463.248,216.005L463.354,216.022L463.463,216.036L463.576,216.049L463.691,216.06L463.812,216.069L463.929,216.075L464.2,216.084L464.481,216.086L464.78,216.081L465.069,216.071L465.21,216.061L465.537,216.031L465.977,215.991L466.472,215.95L466.969,215.917L467.22,215.905L467.463,215.899L467.713,215.9L467.974,215.917L468.1,215.935L468.295,215.973L468.333,215.982L468.5,216.031L468.663,216.095L468.688,216.106L468.852,216.187L469.008,216.284L469.155,216.394L469.163,216.401L469.304,216.529L469.432,216.67L469.546,216.823L469.55,216.83L469.651,216.996L469.736,217.172L470.112,218.063L470.281,218.453L470.441,218.811L470.6,219.146L470.674,219.296L470.75,219.444L470.826,219.587L470.903,219.725L470.981,219.859L471.061,219.99L471.143,220.118L471.228,220.246L471.316,220.372L471.408,220.498L471.506,220.626L471.609,220.755L471.717,220.886L471.834,221.019L471.958,221.157L472.091,221.298L472.233,221.443L472.384,221.593L472.545,221.748L472.718,221.909L472.901,222.074L473.106,222.255L473.277,222.425L473.427,222.615L473.552,222.821L473.652,223.041L473.724,223.272L473.768,223.509L473.784,223.75L473.77,223.991L473.727,224.229L473.656,224.46L473.557,224.68L473.433,224.887L473.284,225.078L473.114,225.249L472.924,225.398L472.718,225.524L472.498,225.624L472.267,225.696L472.03,225.74L471.789,225.755L471.548,225.741L471.31,225.698L471.079,225.627L470.859,225.529L470.652,225.404L470.461,225.256L470.237,225.059L470.013,224.856L469.798,224.656L469.591,224.457L469.392,224.26L469.202,224.065L469.018,223.869L468.842,223.675L468.673,223.481L468.51,223.285L468.354,223.089L468.204,222.894L468.06,222.697L467.922,222.499L467.791,222.302L467.664,222.103L467.543,221.904L467.426,221.703L467.315,221.502L467.207,221.301L467.103,221.099L467,220.89L466.808,220.486L466.62,220.067L466.572,219.956L466.322,219.976L465.899,220.014L465.545,220.047L465.289,220.066L464.879,220.08L464.501,220.086L464.122,220.084L463.75,220.072L463.552,220.06L463.361,220.046L463.166,220.029L462.973,220.007L462.78,219.981L462.584,219.95L462.387,219.915L462.19,219.874L461.994,219.828L461.797,219.777L461.599,219.72L461.401,219.658L461.205,219.589L461.007,219.514L460.811,219.433L460.614,219.346L460.419,219.252L460.227,219.154L460.034,219.048L459.842,218.936L459.651,218.818L459.463,218.695L459.275,218.566L459.078,218.423L458.96,218.331L458.84,218.229L458.725,218.124L458.605,218.005L458.419,217.801L458.242,217.582L458.084,217.361L457.941,217.14L457.812,216.92L457.695,216.703L457.588,216.487L457.489,216.275L457.398,216.066L457.31,215.855L457.159,215.466L457.02,215.09L456.893,214.743L456.775,214.426L456.722,214.291L456.67,214.166L456.623,214.056L456.587,213.979L456.573,213.977L456.508,213.967L456.321,213.946L456.118,213.93L455.89,213.919L455.64,213.913L455.372,213.912L455.088,213.916L454.789,213.925L454.48,213.939L454.164,213.955L453.501,213.999L452.825,214.052L452.146,214.11L451.473,214.17L450.819,214.225L450.196,214.273L449.89,214.292L449.597,214.308L449.313,214.319L449.034,214.325L448.763,214.323L448.514,214.315L447.856,214.277L447.213,214.237L446.567,214.192L445.919,214.144L445.27,214.092L444.618,214.035L443.966,213.974L443.312,213.907L442.657,213.836L442.001,213.76L441.345,213.678L440.688,213.591L440.032,213.498L439.375,213.399L438.718,213.294L438.062,213.183L437.407,213.064L436.752,212.94L436.098,212.808L435.446,212.669L434.795,212.522L434.146,212.368L433.499,212.206L432.854,212.037L432.211,211.858L431.571,211.672L430.934,211.477L430.299,211.272L429.668,211.059L429.041,210.836L428.416,210.604L427.797,210.362L427.177,210.109L426.561,209.847L425.948,209.575L425.338,209.294L424.733,209.004L424.131,208.706L423.531,208.398L422.936,208.082L422.345,207.758L421.757,207.425L421.173,207.085L420.593,206.737L420.017,206.381L419.444,206.017L418.876,205.646L418.311,205.268L417.751,204.882L417.195,204.49L416.642,204.091L416.094,203.685L415.549,203.272L415.01,202.854L414.474,202.429L413.942,201.997L413.415,201.56L412.893,201.117L412.375,200.669L411.861,200.215L411.351,199.756L410.846,199.291L410.346,198.822L409.851,198.347L409.36,197.868L408.874,197.384L408.392,196.895L407.915,196.403L407.444,195.906L406.977,195.405L406.515,194.9L406.057,194.391L405.605,193.878L405.159,193.362L404.717,192.843L404.28,192.321L403.848,191.795L403.422,191.266L403.001,190.735L402.585,190.201L402.175,189.664L401.77,189.125L401.371,188.584L400.977,188.041L400.589,187.495L400.206,186.948L399.829,186.399L399.457,185.849L399.092,185.297L398.732,184.744L398.378,184.189L398.03,183.634L397.688,183.078L397.351,182.521L397.021,181.963L396.702,181.413L396.593,181.197L396.512,180.97L396.458,180.734L396.433,180.494L396.437,180.253L396.47,180.013L396.532,179.78L396.622,179.556L396.738,179.344L396.879,179.147L397.042,178.97L397.226,178.813L397.427,178.679L397.642,178.57L397.87,178.489L398.105,178.435L398.345,178.41L398.587,178.414Z" style="fill:rgb(17,17,17);"/>
                    </g>
                </g>
            </g>
        </g>
    </g>
</svg>
