<?xml version="1.0" encoding="UTF-8" standalone="no"?>
<!DOCTYPE svg PUBLIC "-//W3C//DTD SVG 1.1//EN" "http://www.w3.org/Graphics/SVG/1.1/DTD/svg11.dtd">
<svg width="100%" height="100%" viewBox="0 0 109 74" version="1.1" xmlns="http://www.w3.org/2000/svg" xmlns:xlink="http://www.w3.org/1999/xlink" xml:space="preserve" xmlns:serif="http://www.serif.com/" style="fill-rule:evenodd;clip-rule:evenodd;stroke-linecap:round;stroke-linejoin:round;stroke-miterlimit:1.5;">
    <g transform="matrix(1,0,0,1,-3796.25,-2123.9)">
        <g transform="matrix(1.03506,0,0,3.58793,1766.14,1587.17)">
            <g>
                <g transform="matrix(1.51667,0,0,0.345943,-3807.15,-588.013)">
                    <path d="M3872.37,2157.29L3813.96,2156.83L3803.41,2176.03L3872.37,2176.03L3872.37,2157.29Z" style="fill:rgb(60,65,85);"/>
                </g>
                <g transform="matrix(1.51667,0,0,0.345943,-3807.15,-588.013)">
                    <path d="M3872.66,2191.14L3803.41,2191.14L3803.41,2176.03L3872.37,2176.03L3872.66,2191.14Z" style="fill:rgb(49,54,72);"/>
                </g>
                <g transform="matrix(0.966131,0,0,0.278712,-1706.32,-442.362)">
                    <path d="M3823.96,2165.45C3823.96,2164.19 3829.07,2163.18 3835.37,2163.18C3841.67,2163.18 3846.78,2164.19 3846.78,2165.45C3846.78,2166.7 3841.67,2167.72 3835.37,2167.72C3829.07,2167.72 3823.96,2166.7 3823.96,2165.45" style="fill:rgb(90,90,90);stroke:black;stroke-width:0.45px;"/>
                </g>
                <g transform="matrix(0.506898,0,0,0.202908,55.5803,-278.321)">
                    <path d="M3812.49,2165.98C3812.49,2164.26 3822.24,2162.86 3834.24,2162.86C3846.25,2162.86 3855.99,2164.26 3855.99,2165.98" style="fill:none;stroke:black;stroke-width:1.68px;"/>
                </g>
                <g transform="matrix(0.575815,0,0,0.590661,917.498,-175.277)">
                    <g id="coloring">
                        <g transform="matrix(0.903904,0,0,0.254207,899.7,-711.494)">
                            <path d="M1087.1,4984.75C1086.85,4985.88 1086.52,4987.01 1086.08,4988.08C1085.91,4988.47 1085.75,4988.85 1085.58,4989.24C1085.52,4989.36 1085.46,4989.49 1085.4,4989.62C1085.38,4989.68 1085.35,4989.85 1085.32,4989.79C1084.6,4988.34 1084.88,4986.41 1085.16,4984.87C1085.26,4984.36 1085.38,4983.85 1085.48,4983.34C1085.52,4983.16 1085.55,4982.98 1085.58,4982.79C1085.6,4982.68 1085.71,4982.4 1085.63,4982.47C1085.36,4982.68 1085.14,4983.12 1084.96,4983.4C1084.36,4984.37 1083.88,4985.4 1083.48,4986.46C1083.3,4986.92 1083.15,4987.39 1083.01,4987.87C1082.97,4988.02 1082.92,4988.17 1082.88,4988.32C1082.86,4988.39 1082.8,4988.62 1082.82,4988.54C1083.29,4986.99 1083.89,4985.48 1084.53,4983.99C1084.72,4983.53 1084.92,4983.09 1085.06,4982.61C1085.12,4982.42 1085.16,4982.23 1085.21,4982.03C1085.23,4981.93 1085.31,4981.63 1085.28,4981.73C1084.92,4982.62 1084.58,4983.53 1084.29,4984.45" style="fill:none;stroke:white;stroke-width:3px;"/>
                        </g>
                        <g transform="matrix(0.903904,0,0,0.254207,899.7,-711.494)">
                            <path d="M1084.61,4981.85C1084.59,4977.95 1088.17,4975.9 1089.04,4972.36C1089.55,4970.27 1087.52,4968.23 1088.26,4966.12C1088.65,4964.98 1090.33,4964.07 1091.5,4964.57C1091.99,4964.79 1092.26,4965.28 1092.5,4965.73C1093.07,4966.82 1093.62,4968.22 1093.09,4969.43C1092.84,4969.99 1092.44,4970.49 1092,4970.91C1091.96,4970.94 1091.58,4971.29 1091.54,4971.26C1090.71,4970.6 1091.59,4969.17 1091.35,4968.33C1091.33,4968.25 1090.9,4967.41 1090.86,4967.44C1090.3,4967.83 1090.12,4969.11 1089.97,4969.77C1089.44,4972.2 1089.24,4974.7 1089.32,4977.19C1089.44,4980.83 1089.7,4984.44 1090.79,4987.94C1091.2,4989.28 1091.57,4990.61 1092.24,4991.85C1092.37,4992.09 1092.51,4992.32 1092.66,4992.55C1092.73,4992.67 1092.82,4993.03 1092.9,4992.91C1093.11,4992.59 1092.83,4991.43 1092.81,4991.01C1092.71,4988.99 1091.27,4988.15 1090.01,4986.75C1089.22,4985.89 1088.62,4984.65 1088.29,4983.53C1087.9,4982.22 1087.83,4980.84 1087.8,4979.49C1087.8,4979.05 1087.79,4978.6 1087.82,4978.16C1087.83,4978.02 1087.84,4977.87 1087.86,4977.72C1087.87,4977.64 1087.89,4977.39 1087.89,4977.47C1088.15,4981.36 1088.09,4985.26 1088.51,4989.14C1088.65,4990.45 1088.74,4991.79 1089.03,4993.08C1089.12,4993.49 1089.24,4993.9 1089.39,4994.3C1089.45,4994.45 1089.52,4994.61 1089.59,4994.76C1089.62,4994.83 1089.65,4995.02 1089.68,4994.96C1090.12,4994.07 1090.74,4993.12 1090.82,4992.13C1090.84,4991.77 1090.77,4991.45 1090.62,4991.13C1090.56,4991.02 1090.5,4990.91 1090.43,4990.81C1090.4,4990.76 1090.3,4990.63 1090.34,4990.67C1090.92,4991.37 1091.51,4992.04 1092.13,4992.71C1092.16,4992.74 1092.65,4993.19 1092.63,4993.25C1092.24,4994.2 1090.9,4994.76 1090.02,4995.02C1089.37,4995.21 1088.69,4995.24 1088.02,4995.23C1087.41,4995.23 1086.82,4995.14 1086.22,4995.04C1084.32,4994.71 1081.24,4994.23 1081,4991.77C1080.89,4990.69 1081.34,4989.41 1081.76,4988.44C1081.89,4988.12 1082.19,4987.53 1082.59,4987.48C1083.18,4987.42 1083.75,4987.85 1084.19,4988.2C1085.21,4989.03 1086.04,4989.97 1086.62,4991.16C1086.77,4991.48 1087.26,4992.37 1087.13,4992.72C1087.11,4992.78 1086.74,4992.77 1086.72,4992.77C1086.24,4992.75 1085.76,4992.59 1085.35,4992.36C1084.85,4992.09 1084.36,4991.7 1084,4991.25C1083.89,4991.11 1083.8,4990.96 1083.74,4990.79C1083.71,4990.7 1083.73,4990.44 1083.68,4990.52C1083.45,4990.84 1083.29,4991.25 1083.15,4991.61" style="fill:none;stroke:white;stroke-width:3px;"/>
                        </g>
                        <g transform="matrix(0.903904,0,0,0.254207,899.7,-711.494)">
                            <path d="M1073.04,4997.13C1071.32,4999.21 1071.63,5002.44 1071.7,5004.98C1071.73,5006.16 1071.72,5007.41 1072.5,5008.38C1073.44,5009.53 1074.92,5009.22 1075.89,5010.2C1076.64,5010.96 1077.16,5011.9 1077.95,5012.64C1079.31,5013.95 1081.88,5015.26 1083.84,5015.38C1085.18,5015.46 1086.46,5014.71 1087.57,5014.02C1090.24,5012.34 1092.39,5009.93 1094.84,5007.93C1095.92,5007.05 1097.34,5006.58 1098.35,5005.6C1099.73,5004.25 1099.92,5002.07 1100.07,5000.25C1100.1,4999.9 1100.39,4998.98 1100.32,4998.66C1100.31,4998.65 1100.05,4998.72 1100.02,4998.73C1099.73,4998.82 1099.45,4998.96 1099.2,4999.15C1098.24,4999.84 1097.78,5000.96 1097.26,5001.99C1095.95,5004.57 1093.92,5006.86 1091.63,5008.62C1091.06,5009.05 1090.49,5009.47 1089.9,5009.88C1087.57,5011.47 1083.93,5014.09 1081.03,5012.44C1079.36,5011.5 1078.21,5009.69 1076.96,5008.29C1076.23,5007.46 1074.91,5007.11 1074.37,5006.13C1074.11,5005.65 1073.97,5005.11 1073.89,5004.58C1073.67,5003.1 1073.92,5001.55 1074.29,5000.12C1074.34,4999.92 1074.41,4999.06 1074.56,4998.97C1074.62,4998.94 1074.56,4999.11 1074.57,4999.19C1074.57,4999.34 1074.57,4999.49 1074.58,4999.65C1074.59,5000.14 1074.64,5000.62 1074.72,5001.1C1074.96,5002.53 1075.33,5003.97 1075.75,5005.36C1075.87,5005.76 1075.99,5006.16 1076.1,5006.56C1076.14,5006.69 1076.19,5006.83 1076.23,5006.96C1076.25,5007.02 1076.26,5007.2 1076.3,5007.15C1076.89,5006.33 1076.91,5004.99 1077.17,5004.05C1077.61,5002.5 1078.3,5000.95 1079.12,4999.57C1079.58,4998.78 1080.03,4997.99 1080.37,4997.13C1080.46,4996.89 1080.69,4996.5 1080.68,4996.24C1080.68,4996.13 1080.23,4995.15 1080.13,4995.19C1079.91,4995.29 1079.7,4995.91 1079.59,4996.13C1079.05,4997.18 1078.61,4998.29 1078.13,4999.38C1077.94,4999.81 1077.76,5000.25 1077.58,5000.69C1077.52,5000.84 1077.45,5000.98 1077.39,5001.13C1077.37,5001.21 1077.27,5001.43 1077.31,5001.36C1077.52,5000.86 1077.75,5000.39 1078,4999.91C1078.55,4998.86 1079.1,4997.8 1079.71,4996.77C1079.92,4996.4 1080.26,4995.79 1080.7,4995.61C1081.13,4995.43 1081.58,4995.61 1081.96,4995.84C1082.97,4996.44 1083.83,4997.02 1085.02,4997.27C1085.97,4997.46 1086.92,4997.26 1087.87,4997.14C1089.31,4996.95 1090.92,4996.72 1092.38,4996.68C1092.43,4996.68 1092.6,4997.06 1092.63,4997.12C1092.87,4997.56 1093.07,4998.02 1093.19,4998.5C1093.7,5000.53 1093.45,5003.12 1093.13,5005.15C1093.01,5005.87 1092.77,5006.47 1092.46,5007.13C1092.36,5007.35 1092.26,5007.57 1092.15,5007.79C1092.1,5007.89 1092.04,5008.18 1092,5008.08C1091.13,5006.03 1093.41,5004.13 1093.14,5002.18C1093.06,5001.59 1092.78,5001.03 1092.46,5000.54C1092.05,4999.89 1091.4,4998.9 1090.63,4998.59C1089.97,4998.32 1089.15,4998.63 1088.51,4998.87C1087.62,4999.2 1086.68,4999.52 1085.73,4999.57C1084.91,4999.61 1084.17,4999.38 1083.39,4999.17C1083.2,4999.12 1082.64,4998.86 1082.44,4998.92C1082.3,4998.96 1082.59,4999.19 1082.66,4999.33C1082.81,4999.59 1082.94,4999.86 1083.05,5000.14C1083.37,5000.97 1083.47,5001.86 1083.56,5002.74C1083.64,5003.66 1083.71,5004.6 1083.61,5005.53C1083.6,5005.65 1083.57,5006.34 1083.42,5006.39C1082.63,5006.69 1082.42,5006.57 1081.96,5007.53C1081.65,5008.18 1081.49,5008.66 1081,5009.23C1080.86,5009.39 1080.64,5009.73 1080.37,5009.67C1080.21,5009.62 1080.04,5009.08 1079.95,5008.9C1079.51,5008.11 1079.06,5007.31 1078.56,5006.56C1078.51,5006.48 1078.07,5005.72 1077.98,5005.73C1077.81,5005.74 1078.09,5006.07 1078.15,5006.24C1078.37,5006.89 1078.64,5007.53 1078.98,5008.13C1079.18,5008.49 1079.39,5008.84 1079.62,5009.18C1079.78,5009.44 1079.96,5009.69 1080.13,5009.95C1080.29,5010.16 1080.44,5010.38 1080.59,5010.6C1080.93,5011.07 1081.67,5012.69 1082.31,5012.42C1083.39,5011.95 1084.02,5010.83 1084.4,5009.77C1084.44,5009.64 1084.76,5008.71 1084.7,5008.68C1084.64,5008.64 1084.06,5009.27 1083.99,5009.35C1083.36,5010 1082.74,5010.67 1082.11,5011.32C1082.06,5011.37 1082.2,5011.25 1082.25,5011.21C1082.35,5011.14 1082.45,5011.08 1082.55,5011.03C1082.89,5010.85 1083.25,5010.73 1083.62,5010.62C1084.22,5010.45 1084.83,5010.37 1085.45,5010.27C1085.5,5010.26 1086.42,5010.13 1086.42,5010.11C1086.4,5009.52 1086.18,5008.88 1086.13,5008.28C1085.94,5006.31 1085.77,5004.34 1085.51,5002.37" style="fill:none;stroke:white;stroke-width:3px;"/>
                        </g>
                        <g transform="matrix(0.903904,0,0,0.254207,899.7,-711.494)">
                            <path d="M1088.79,5000.2C1087.11,5002.05 1085.82,5003.98 1086.48,5006.59C1086.69,5007.43 1087.15,5008.24 1087.65,5008.94C1087.82,5009.17 1088.01,5009.4 1088.2,5009.61C1088.29,5009.72 1088.48,5010.06 1088.48,5009.92C1088.48,5009.71 1088.25,5009.4 1088.15,5009.22C1087.81,5008.56 1087.39,5007.93 1086.95,5007.32C1086.77,5007.07 1086.6,5006.82 1086.42,5006.57C1086.34,5006.45 1086.04,5006.13 1086.18,5006.2C1088.01,5007.1 1089.36,5008.89 1090.74,5010.33" style="fill:none;stroke:white;stroke-width:3px;"/>
                        </g>
                        <g transform="matrix(0.903904,0,0,0.254207,899.7,-711.494)">
                            <path d="M1071.43,5040.93C1071.43,5038.11 1071.35,5035.31 1071.28,5032.49C1071.24,5030.74 1071.24,5028.99 1071.23,5027.23C1071.22,5026.27 1071.21,5025.31 1071.21,5024.35C1071.21,5023.79 1071.3,5023.19 1071.08,5022.66C1070.91,5022.24 1070.63,5022.09 1070.4,5021.75C1070.37,5021.7 1070.49,5021.46 1070.51,5021.42C1070.54,5021.35 1071,5020.41 1071.06,5020.41C1071.77,5020.48 1072.25,5021.15 1072.88,5021.39C1073.48,5021.63 1074.16,5021.71 1074.79,5021.78C1075.06,5021.82 1075.51,5021.78 1075.75,5021.91C1076.81,5022.51 1077,5024.35 1077.57,5025.32C1078.51,5026.94 1080.38,5027.69 1081.87,5028.72C1082.43,5029.1 1083.04,5029.68 1083.75,5029.68C1084.93,5029.69 1086.01,5028.87 1086.86,5028.14C1087.51,5027.58 1088.13,5026.97 1088.69,5026.32C1090.17,5024.61 1091.31,5022.56 1093.38,5021.51C1093.98,5021.2 1094.72,5020.79 1095.43,5020.93C1096.28,5021.1 1096.98,5021.68 1097.6,5022.24C1098.14,5022.73 1098.69,5023.23 1099.07,5023.85C1099.32,5024.25 1098.39,5025.38 1098.2,5025.71C1097.7,5026.61 1097.31,5027.51 1096.72,5028.35C1096.14,5029.16 1095.4,5029.82 1095.02,5030.74C1094.36,5032.34 1094.31,5034.51 1094.61,5036.22C1094.78,5037.24 1095.36,5038.8 1095.01,5039.81C1094.53,5041.18 1092.82,5041.71 1091.54,5041.89C1090.59,5042.02 1089.63,5041.98 1088.68,5041.95C1087.22,5041.89 1085.75,5041.86 1084.29,5041.85C1081.92,5041.82 1079.56,5041.71 1077.2,5041.65C1076.38,5041.64 1075.57,5041.59 1074.75,5041.55C1074.44,5041.54 1074.13,5041.53 1073.82,5041.51C1073.81,5041.51 1073.52,5041.49 1073.52,5041.49C1073.76,5039.29 1074.22,5037.11 1073.8,5034.9C1073.53,5033.44 1073.21,5032.02 1073.11,5030.54C1073.05,5029.64 1073.02,5028.75 1073,5027.85C1072.97,5026.86 1073.08,5025.9 1073.18,5024.92C1073.19,5024.88 1073.26,5024.1 1073.27,5024.1C1075.45,5024.23 1076.4,5026.74 1077.49,5028.18C1078.98,5030.13 1081.89,5031.54 1084.37,5031.26C1087.1,5030.95 1089.54,5028.99 1091.14,5026.83C1091.8,5025.93 1092.2,5024.8 1093,5024C1093.69,5023.31 1095.77,5022.22 1096.51,5023.6C1096.74,5024.03 1095.93,5024.55 1095.65,5024.77C1094.31,5025.81 1093.56,5027.26 1093.01,5028.83C1092.22,5031.04 1091.93,5032.78 1092.17,5035.13C1092.3,5036.44 1093,5038.67 1091.6,5039.56C1090.66,5040.15 1089.38,5040.21 1088.3,5040.23C1086.09,5040.26 1083.87,5039.98 1081.66,5039.97C1080.4,5039.97 1079.14,5040 1077.89,5039.99C1077.47,5039.99 1077.05,5039.98 1076.63,5040C1076.49,5040 1076.35,5040.01 1076.2,5040.02C1076.14,5040.02 1076.01,5040.09 1076.02,5040.03C1076.18,5038.87 1076.62,5037.81 1076.51,5036.6C1076.35,5034.65 1075.43,5032.78 1074.95,5030.89C1074.7,5029.89 1074.52,5028.85 1074.42,5027.81C1074.39,5027.49 1074.37,5027.18 1074.37,5026.86C1074.37,5026.74 1074.37,5026.63 1074.37,5026.51C1074.38,5026.45 1074.34,5026.26 1074.38,5026.31C1075.63,5027.9 1076.63,5029.58 1077.99,5031.08C1078.7,5031.88 1079.46,5032.67 1080.53,5032.97C1081.63,5033.28 1082.86,5032.92 1083.94,5032.69C1086.56,5032.11 1089.08,5031.21 1091.44,5029.93C1092.51,5029.36 1093.56,5028.76 1094.6,5028.15C1094.94,5027.94 1095.28,5027.72 1095.61,5027.48C1095.72,5027.39 1095.84,5027.31 1095.95,5027.22C1096,5027.19 1096.15,5027.12 1096.09,5027.12C1094.54,5027.11 1092.29,5027.97 1091.41,5029.39C1090.36,5031.08 1090.43,5033.09 1090.51,5035.01C1090.54,5035.67 1090.56,5036.33 1090.55,5037C1090.55,5037.09 1090.62,5037.54 1090.55,5037.62C1090.33,5037.85 1089.81,5037.97 1089.51,5038.07C1088.46,5038.44 1087.35,5038.64 1086.25,5038.76C1085.21,5038.88 1084.17,5038.98 1083.13,5039.05C1081.87,5039.13 1080.6,5038.97 1079.35,5038.75C1079.07,5038.7 1078.37,5038.65 1078.18,5038.35C1077.51,5037.25 1077.25,5036.04 1077.1,5034.77C1077.06,5034.4 1077.03,5034.02 1076.96,5033.65C1076.94,5033.52 1076.91,5033.39 1076.89,5033.27C1076.87,5033.18 1076.76,5032.96 1076.83,5033C1078.74,5034.15 1080.19,5036.5 1082.7,5036.23C1084.19,5036.07 1085.65,5035.42 1086.98,5034.75C1087.43,5034.53 1087.88,5034.31 1088.36,5034.13C1088.51,5034.07 1088.66,5034.02 1088.82,5033.97C1088.91,5033.94 1089.09,5033.8 1089.09,5033.89C1089.02,5034.74 1088.44,5035.56 1087.92,5036.2C1086.46,5037.99 1084.5,5039.06 1082.16,5039.09C1081.27,5039.11 1080.42,5038.84 1079.57,5038.61C1079.25,5038.52 1078.93,5038.44 1078.61,5038.35C1078.45,5038.31 1078,5038.33 1078.13,5038.22C1079.1,5037.39 1080.26,5036.86 1081.33,5036.2C1082.27,5035.61 1083.06,5034.81 1084.07,5034.34C1086.55,5033.19 1089.92,5033.34 1092.43,5034.13C1093.06,5034.33 1093.69,5034.55 1094.34,5034.64C1094.61,5034.68 1095.15,5034.54 1095.38,5034.65C1095.92,5034.9 1094.82,5036.49 1095.02,5037" style="fill:none;stroke:white;stroke-width:3px;"/>
                        </g>
                        <g transform="matrix(0.903904,0,0,0.254207,899.7,-711.494)">
                            <path d="M1068.74,5030.39C1067.85,5029.78 1066.94,5028.91 1065.82,5028.78C1063.99,5028.57 1062.52,5030.23 1060.68,5030.29C1057.93,5030.36 1055.66,5028.39 1054.16,5026.27C1053.4,5025.19 1052.22,5023.99 1052.54,5022.61C1052.64,5022.21 1053.09,5020.69 1053.74,5021.39C1054.43,5022.16 1053.98,5023.54 1054.16,5024.49C1054.6,5026.78 1056,5028.08 1058.26,5028.47C1059.04,5028.61 1059.86,5028.55 1060.5,5028.07C1061.1,5027.62 1061.53,5027.02 1062.08,5026.53C1063.26,5025.45 1065.01,5024.27 1066.61,5023.94C1068.33,5023.58 1069.83,5025.54 1069.46,5027.16C1069.3,5027.88 1068.6,5028.2 1067.94,5028.24C1066.84,5028.31 1065.88,5027.65 1064.85,5027.36C1064.42,5027.25 1063.99,5027.14 1063.55,5027.24C1063.4,5027.28 1063.26,5027.33 1063.12,5027.4C1063.04,5027.43 1062.82,5027.51 1062.9,5027.51C1063.9,5027.45 1064.87,5027.24 1065.81,5026.93C1066.59,5026.68 1067.36,5026.38 1068.13,5026.1C1068.31,5026.03 1068.8,5025.96 1068.95,5025.8C1069.03,5025.7 1068.8,5025.13 1068.75,5024.97C1068.51,5024.21 1068.15,5023.34 1067.4,5022.94C1066.11,5022.25 1064.91,5023.63 1063.87,5024.49" style="fill:none;stroke:white;stroke-width:3px;"/>
                        </g>
                        <g transform="matrix(0.903904,0,0,0.254207,899.7,-711.494)">
                            <path d="M1051.97,5014.8C1051.98,5015.83 1052.05,5016.86 1052.09,5017.89C1052.1,5018.15 1052.12,5018.42 1052.17,5018.68C1052.18,5018.71 1052.2,5018.9 1052.23,5018.9C1052.66,5018.99 1053.09,5018.72 1053.43,5018.47C1053.49,5018.43 1053.7,5018.21 1053.78,5018.19C1053.8,5018.19 1053.89,5018.33 1053.9,5018.35C1054.02,5018.53 1054.11,5018.72 1054.18,5018.91C1054.21,5019 1054.19,5019.22 1054.27,5019.18C1054.38,5019.12 1054.47,5018.81 1054.51,5018.73C1054.71,5018.3 1054.87,5017.86 1054.98,5017.4C1055.03,5017.2 1055.08,5016.99 1055.12,5016.79C1055.13,5016.72 1055.14,5016.65 1055.15,5016.58C1055.16,5016.55 1055.2,5016.47 1055.17,5016.48C1054.51,5016.75 1053.53,5018.2 1052.81,5017.36C1052.4,5016.89 1052.15,5016.15 1052.19,5015.51C1052.21,5015.3 1052.25,5015.07 1052.33,5014.87C1052.35,5014.8 1052.38,5014.73 1052.41,5014.66C1052.43,5014.63 1052.48,5014.54 1052.46,5014.57C1052.1,5015.09 1051.8,5015.66 1051.35,5016.11C1050.5,5016.97 1049.3,5017.48 1049.47,5018.86C1049.5,5019.14 1049.56,5019.42 1049.66,5019.68C1049.84,5020.16 1050.22,5020.54 1050.51,5020.96" style="fill:none;stroke:white;stroke-width:3px;"/>
                        </g>
                        <g transform="matrix(0.903904,0,0,0.254207,899.7,-711.494)">
                            <path d="M1099.86,5026.99C1100.3,5027.79 1100.92,5028.51 1101.51,5029.21C1102.32,5030.19 1103.37,5031.23 1104.64,5031.57C1105.31,5031.74 1106.02,5031.44 1106.66,5031.26C1107.45,5031.03 1108.29,5030.82 1109,5030.38C1109.66,5029.96 1110.17,5029.36 1110.71,5028.8C1111.06,5028.44 1111.45,5028.11 1111.81,5027.75C1112.26,5027.29 1112.66,5026.79 1113.03,5026.26C1113.6,5025.45 1114.3,5024.66 1114.71,5023.75C1114.94,5023.22 1115.05,5022.62 1115.12,5022.04C1115.18,5021.53 1115.26,5020.95 1115.05,5020.46C1114.86,5019.99 1114.44,5019.84 1113.98,5020.14C1113.49,5020.45 1113.1,5021 1112.87,5021.52C1112.47,5022.38 1112.32,5023.33 1111.89,5024.18C1110.98,5025.98 1109.46,5027.35 1107.78,5028.42C1106.64,5029.15 1105.22,5029.64 1103.89,5029.13C1102.7,5028.68 1101.6,5027.61 1101.14,5026.41C1101.01,5026.07 1100.93,5025.72 1100.88,5025.36C1100.87,5025.31 1100.8,5025.09 1100.84,5025.05C1100.98,5024.89 1101.28,5024.86 1101.46,5024.86C1102.66,5024.83 1103.59,5026.03 1104.48,5026.67C1104.93,5026.99 1105.26,5027.28 1105.87,5027.22C1106.75,5027.13 1107.68,5026.54 1108.48,5026.21C1108.8,5026.08 1109.11,5025.94 1109.42,5025.8C1109.54,5025.74 1109.65,5025.69 1109.77,5025.63C1109.82,5025.6 1109.97,5025.58 1109.92,5025.55C1109.45,5025.25 1108.74,5025.19 1108.2,5025.16C1107.07,5025.11 1105.96,5025.29 1104.84,5025.36" style="fill:none;stroke:white;stroke-width:3px;"/>
                        </g>
                        <g transform="matrix(0.903904,0,0,0.254207,899.7,-711.494)">
                            <path d="M1115.8,5018.1C1115.75,5017.51 1115.61,5016.89 1115.28,5016.38C1114.46,5015.11 1112.9,5014 1113.13,5012.31C1113.19,5011.82 1113.7,5011.61 1114.07,5011.36C1114.53,5011.03 1114.87,5010.69 1115.18,5010.22C1115.4,5009.87 1115.61,5009.53 1115.77,5009.15C1115.83,5009.03 1115.88,5008.9 1115.94,5008.77C1115.96,5008.7 1116,5008.49 1116.02,5008.57C1116.19,5009.43 1116.15,5010.5 1115.87,5011.35C1115.68,5011.91 1115.21,5012.56 1115.24,5013.17C1115.28,5013.83 1115.77,5014.42 1116.1,5014.96C1116.31,5015.29 1116.52,5015.84 1116.88,5016.05C1117.22,5016.25 1117.72,5016.13 1118.08,5016.05C1119.16,5015.8 1120.24,5015.2 1121.04,5014.45C1121.35,5014.15 1121.66,5013.86 1121.96,5013.54C1122.06,5013.43 1122.16,5013.33 1122.27,5013.22C1122.31,5013.17 1122.47,5013.09 1122.41,5013.08C1121.93,5012.95 1121.41,5013.03 1120.93,5013.08C1120.16,5013.18 1119.39,5013.3 1118.63,5013.48C1118.26,5013.56 1117.88,5013.66 1117.5,5013.74C1117.46,5013.75 1116.93,5013.85 1116.93,5013.85C1116.91,5013.33 1117.43,5012.71 1117.74,5012.32C1118.15,5011.81 1118.62,5011.35 1118.98,5010.8C1119.24,5010.4 1119.42,5009.94 1119.62,5009.5" style="fill:none;stroke:white;stroke-width:3px;"/>
                        </g>
                        <g transform="matrix(0.903904,0,0,0.254207,899.7,-711.494)">
                            <path d="M1072.1,5015.42C1071.78,5015.94 1071.48,5016.46 1071.19,5017C1071.16,5017.06 1070.96,5017.36 1070.99,5017.42C1071.71,5018.65 1073.5,5018.84 1074.72,5019.15C1075.83,5019.42 1077.41,5020.24 1078.23,5021C1079.83,5022.47 1079.63,5024.85 1081.82,5025.71C1082.22,5025.87 1082.65,5025.95 1083.08,5025.99C1084.89,5026.17 1085.99,5025.25 1087.38,5023.98C1088.46,5022.99 1089.51,5021.95 1090.5,5020.86C1091.1,5020.2 1092.21,5019.44 1092.5,5018.62C1092.62,5018.29 1093.66,5018.74 1093.76,5018.63C1093.88,5018.49 1093.46,5018.4 1093.32,5018.28C1093.03,5018.04 1092.74,5017.8 1092.44,5017.57C1092.09,5017.29 1091.63,5017.02 1091.34,5016.67C1091.02,5016.27 1090.84,5015.75 1090.53,5015.36C1090.48,5015.31 1089.97,5015.57 1089.91,5015.6C1089.26,5015.93 1088.69,5016.4 1088.03,5016.72C1086.37,5017.53 1084.11,5018.46 1082.21,5018.07C1081.19,5017.86 1080.16,5017.19 1079.33,5016.55C1078.97,5016.27 1078.54,5015.72 1078.08,5015.59C1077.78,5015.5 1077.32,5015.7 1077.04,5015.77C1076.4,5015.94 1075.77,5016.1 1075.11,5016.17C1074.89,5016.19 1074.66,5016.21 1074.44,5016.22C1074.33,5016.23 1074.04,5016.15 1074.1,5016.24C1075.23,5017.97 1077.31,5018.71 1078.94,5019.87C1079.83,5020.5 1080.44,5021.44 1081.09,5022.3C1081.63,5023.03 1082.11,5024.16 1083.14,5024.04C1085.17,5023.8 1086.98,5021.95 1088.59,5020.8C1089.16,5020.39 1089.72,5019.96 1090.29,5019.54C1090.48,5019.4 1090.66,5019.25 1090.85,5019.1C1090.95,5019.02 1091.24,5018.93 1091.14,5018.86C1089.38,5017.59 1086.45,5018.44 1084.6,5019.2C1083.87,5019.5 1083.2,5019.87 1082.57,5020.34C1082.44,5020.43 1082.32,5020.53 1082.19,5020.63C1082.14,5020.68 1081.98,5020.73 1082.04,5020.77C1083.19,5021.52 1084.65,5021.4 1085.85,5020.89C1086.22,5020.74 1086.57,5020.55 1086.91,5020.35C1087.05,5020.26 1087.18,5020.18 1087.32,5020.09C1087.37,5020.06 1087.53,5019.99 1087.46,5019.99C1086.65,5019.94 1085.85,5019.97 1085.03,5020.03C1084.46,5020.07 1083.89,5020.12 1083.32,5020.17C1082.9,5020.21 1082.48,5020.25 1082.06,5020.28C1080.89,5020.37 1079.37,5020.29 1078.43,5019.45C1077.99,5019.05 1077.59,5018.42 1077.76,5017.82" style="fill:none;stroke:white;stroke-width:3px;"/>
                        </g>
                        <g transform="matrix(0.903904,0,0,0.254207,899.7,-711.494)">
                            <path d="M1080.38,5003.95C1080.49,5004.4 1080.61,5004.84 1080.78,5005.27C1080.83,5005.41 1080.88,5005.54 1080.94,5005.67C1080.96,5005.74 1081.02,5005.94 1081.02,5005.86C1081.05,5004.56 1080.92,5003.27 1080.9,5001.96C1080.9,5001.84 1080.92,5000.69 1081.05,5000.66C1083.06,5000.19 1085.38,5000.89 1087.39,5001.09C1088.13,5001.17 1088.87,5001.22 1089.61,5001.2C1089.86,5001.19 1090.11,5001.18 1090.36,5001.15C1090.36,5001.15 1090.74,5001.11 1090.74,5001.11C1090.91,5002.36 1090.43,5003.69 1090.02,5004.85C1089.88,5005.24 1089.72,5005.63 1089.57,5006.02C1089.52,5006.15 1089.47,5006.29 1089.43,5006.42C1089.4,5006.48 1089.39,5006.67 1089.36,5006.61C1088.46,5004.81 1088.61,5002.52 1089.26,5000.67" style="fill:none;stroke:white;stroke-width:3px;"/>
                        </g>
                    </g>
                    <g transform="matrix(0.903904,0,0,0.302048,-64.4021,492.912)">
                        <g transform="matrix(1,0,0,0.841611,0,-755.766)">
                            <path d="M2136.34,1190.97C2136.34,1190.63 2136.34,1191.65 2136.34,1191.99C2136.34,1192.75 2136.47,1193.4 2136.47,1194.15C2136.47,1196.1 2136.97,1198.38 2136.97,1200.06" style="fill:none;stroke:rgb(17,17,17);stroke-width:1px;"/>
                        </g>
                        <g transform="matrix(1,0,0,0.841611,0,-755.766)">
                            <path d="M2136.81,1188.16C2136.81,1187.16 2137.07,1185.78 2136.81,1184.8C2136.34,1183.02 2135.17,1182.75 2134.1,1181.67C2133.99,1181.57 2132.91,1182.19 2132.72,1182.25C2131.2,1182.72 2129.98,1183.05 2128.62,1183.72C2127.69,1184.18 2126.8,1185.01 2125.94,1185.28C2125.7,1185.35 2124.92,1186.26 2124.88,1186.23C2124.09,1185.52 2122.3,1185.35 2121.89,1184.05C2121.61,1183.16 2121.89,1182.05 2121.89,1181.18C2121.89,1181.05 2122.07,1180.31 2121.97,1180.21C2121.92,1180.16 2121.45,1180.18 2121.36,1180.13C2119.49,1179.19 2119.26,1180.16 2118.53,1181.6C2118.45,1181.75 2117.02,1183.14 2117.07,1183.19C2117.42,1183.55 2118.14,1184.04 2118.53,1184.8C2119.87,1187.46 2121.8,1190.56 2125.45,1191.47C2126.45,1191.72 2128.09,1191.92 2129.12,1191.66C2129.83,1191.48 2130.83,1190.43 2131.38,1190.43" style="fill:none;stroke:rgb(17,17,17);stroke-width:1px;"/>
                        </g>
                        <g transform="matrix(1,0,0,0.841611,0,-755.766)">
                            <path d="M2117.4,1186.28C2117.4,1185.52 2117.38,1184.77 2117.38,1184.02C2117.38,1183.96 2117.39,1184.13 2117.43,1184.17C2117.52,1184.27 2117.59,1184.39 2117.68,1184.5C2117.94,1184.83 2117.96,1185.23 2117.96,1185.64C2117.96,1185.75 2117.98,1186.03 2117.79,1186.04C2117.73,1186.05 2117.91,1185.96 2117.93,1185.89C2117.96,1185.81 2118.22,1185.46 2118.37,1185.6C2118.44,1185.67 2118.25,1185.85 2118.22,1185.88C2118.07,1186.03 2117.63,1186.43 2117.42,1186.43C2117.39,1186.43 2117.5,1186.41 2117.53,1186.4C2117.62,1186.38 2117.7,1186.34 2117.78,1186.32C2118.03,1186.25 2118.25,1186.12 2118.46,1186.01C2118.52,1185.98 2118.84,1185.93 2118.73,1185.93" style="fill:none;stroke:rgb(17,17,17);stroke-width:1px;"/>
                        </g>
                        <g transform="matrix(1,0,0,0.841611,0,-755.766)">
                            <path d="M2122.47,1185.31C2122.42,1185.26 2122.59,1185.47 2122.62,1185.5C2122.74,1185.65 2122.89,1185.78 2123.02,1185.91C2123.38,1186.27 2123.88,1186.47 2124.35,1186.58C2124.46,1186.61 2124.79,1186.65 2124.88,1186.57C2124.91,1186.54 2124.7,1186.52 2124.69,1186.52C2124.53,1186.5 2124.38,1186.44 2124.22,1186.4C2123.79,1186.29 2123.35,1186.07 2122.97,1185.87C2122.87,1185.82 2122.85,1185.65 2122.76,1185.61C2122.43,1185.44 2122.17,1185.08 2121.99,1184.71C2121.91,1184.56 2121.94,1184.32 2121.94,1184.14C2121.94,1184.08 2121.94,1183.77 2121.94,1183.91" style="fill:none;stroke:rgb(17,17,17);stroke-width:1px;"/>
                        </g>
                        <g transform="matrix(1,0,0,0.841611,0,-755.766)">
                            <path d="M2119.4,1186.7C2119.4,1187.32 2120.19,1188.05 2120.59,1188.45C2121.35,1189.21 2122.12,1189.85 2122.78,1190.52C2123.17,1190.91 2123.43,1191.28 2123.91,1191.51C2124.49,1191.8 2124.68,1192.72 2125.18,1192.98C2125.2,1192.98 2125.19,1192.88 2125.19,1192.87C2125.21,1192.78 2125.28,1192.67 2125.34,1192.6C2125.74,1192.2 2126.56,1192 2127.12,1192C2127.26,1192 2128.16,1191.93 2128.07,1191.85" style="fill:none;stroke:rgb(17,17,17);stroke-width:1px;"/>
                        </g>
                        <g transform="matrix(1,0,0,0.841611,0,-755.766)">
                            <path d="M2124.7,1191.64C2124.93,1191.64 2125.07,1191.65 2125.27,1191.77C2125.31,1191.79 2126.03,1192.2 2125.99,1192.29C2125.98,1192.31 2125.69,1192.33 2125.66,1192.35C2125.22,1192.52 2125.42,1192.7 2125.71,1192.85C2125.81,1192.9 2126.23,1192.72 2126.35,1192.68C2126.68,1192.58 2127.04,1192.64 2127.37,1192.53C2127.86,1192.35 2128.39,1192.13 2128.84,1191.9C2129.03,1191.8 2129.42,1191.36 2129.61,1191.36" style="fill:none;stroke:rgb(17,17,17);stroke-width:1px;"/>
                        </g>
                        <g transform="matrix(1,0,0,0.841611,0,-755.766)">
                            <path d="M2117,1183.08C2116.72,1183.08 2116.61,1182.9 2116.43,1182.72C2116.4,1182.69 2116.25,1182.55 2116.27,1182.52C2116.46,1182.13 2117.08,1182.2 2117.3,1181.88C2117.55,1181.49 2117.85,1181.19 2118.11,1180.8C2118.18,1180.69 2118.41,1180.61 2118.45,1180.47C2118.57,1180.11 2118.97,1179.75 2119.29,1179.59C2119.52,1179.47 2119.9,1179.66 2120.13,1179.66" style="fill:none;stroke:rgb(17,17,17);stroke-width:1px;"/>
                        </g>
                        <g transform="matrix(1,0,0,0.841611,0,-755.766)">
                            <path d="M2115.56,1181.65C2115.56,1181.32 2115.74,1180.88 2115.63,1180.55C2115.56,1180.32 2114.9,1180.28 2114.8,1180.47C2114.78,1180.52 2115.07,1181.03 2115.1,1181.11C2115.11,1181.13 2115.2,1181.24 2115.17,1181.27C2115.04,1181.4 2114.47,1181.16 2114.35,1181.05C2114.05,1180.74 2113.96,1180.14 2113.9,1179.75C2113.83,1179.35 2113.87,1178.91 2113.87,1178.51C2113.87,1177.56 2113.74,1176.32 2114.66,1175.85C2114.98,1175.68 2115.53,1175.89 2115.7,1176.18C2115.73,1176.23 2116.03,1176.54 2115.96,1176.61C2115.88,1176.69 2115.52,1176.55 2115.43,1176.53C2115.32,1176.51 2114.7,1176.39 2114.62,1176.54C2114.57,1176.63 2114.7,1176.75 2114.72,1176.83C2114.77,1177 2114.72,1177.23 2114.72,1177.41C2114.72,1178.01 2114.7,1178.6 2114.7,1179.2C2114.7,1179.3 2114.69,1180.3 2114.69,1179.9" style="fill:none;stroke:rgb(17,17,17);stroke-width:1px;"/>
                        </g>
                        <g transform="matrix(1,0,0,0.841611,0,-755.766)">
                            <path d="M2117.64,1174.33C2117.64,1173.75 2117.41,1173.19 2117.22,1172.65C2116.81,1171.44 2116.27,1170.4 2115.7,1169.26C2115.51,1168.87 2115.39,1168.44 2115.27,1168.02C2115.25,1167.97 2115.14,1167.69 2115.19,1167.63C2115.23,1167.59 2115.63,1168.06 2115.66,1168.1C2116.09,1168.72 2116.34,1169.42 2116.7,1170.08C2116.96,1170.57 2117.4,1170.91 2117.69,1171.37C2117.99,1171.85 2118.18,1172.43 2118.52,1172.87C2118.69,1173.08 2118.7,1173.32 2118.79,1173.54C2118.79,1173.55 2118.84,1173.77 2118.84,1173.77C2118.82,1173.77 2118.73,1173.54 2118.71,1173.51C2118.51,1173.24 2118.31,1172.96 2118.07,1172.72C2117.96,1172.61 2117.86,1172.48 2117.78,1172.35C2117.74,1172.31 2117.64,1172.19 2117.66,1172.21" style="fill:none;stroke:rgb(17,17,17);stroke-width:1px;"/>
                        </g>
                        <g transform="matrix(1,0,0,0.841611,0,-755.766)">
                            <path d="M2119.78,1173.37C2119.78,1171.35 2119.78,1169.35 2119.94,1167.34C2119.99,1166.73 2119.99,1166.1 2120.09,1165.49C2120.12,1165.29 2120.15,1165.09 2120.18,1164.89C2120.2,1164.79 2120.13,1164.54 2120.22,1164.59C2120.28,1164.62 2120.25,1164.99 2120.25,1165.03C2120.25,1165.53 2120.26,1166.02 2120.28,1166.52C2120.34,1168.7 2120.35,1170.9 2120.35,1173.08C2120.35,1173.91 2120.44,1174.74 2120.44,1175.57C2120.44,1175.84 2120.44,1176.11 2120.44,1176.38C2120.44,1176.46 2120.44,1176.73 2120.44,1176.71" style="fill:none;stroke:rgb(17,17,17);stroke-width:1px;"/>
                        </g>
                        <g transform="matrix(1,0,0,0.841611,0,-755.766)">
                            <path d="M2120.44,1176.71C2120.44,1176.22 2121,1175.72 2121.3,1175.37C2121.96,1174.6 2122.38,1173.73 2122.86,1172.86C2123.18,1172.28 2123.35,1171.61 2123.74,1171.06C2123.77,1171.02 2124.1,1170.53 2124.12,1170.56C2124.15,1170.59 2124.12,1170.85 2124.12,1170.87C2124.12,1171.29 2124,1171.65 2123.89,1172.06C2123.54,1173.39 2123.46,1174.71 2122.91,1175.99C2122.7,1176.47 2122.71,1177.03 2122.58,1177.54C2122.53,1177.72 2122.45,1177.89 2122.41,1178.06C2122.4,1178.11 2122.29,1178.31 2122.29,1178.27" style="fill:none;stroke:rgb(17,17,17);stroke-width:1px;"/>
                        </g>
                        <g transform="matrix(1,0,0,0.841611,0,-755.766)">
                            <path d="M2121.9,1178.26C2121.9,1177.73 2122.14,1177.24 2122.21,1176.71C2122.3,1176.08 2122.28,1175.41 2122.47,1174.79C2122.59,1174.41 2122.74,1174.02 2122.95,1173.67C2123.02,1173.56 2123.09,1173.43 2123.17,1173.33C2123.2,1173.29 2123.27,1173.17 2123.27,1173.19" style="fill:none;stroke:rgb(17,17,17);stroke-width:1px;"/>
                        </g>
                        <g transform="matrix(1,0,0,0.841611,0,-755.766)">
                            <path d="M2136.14,1180.25C2136.14,1179.13 2137.74,1179.16 2138.45,1179.52C2138.86,1179.72 2139.23,1180.01 2139.39,1180.45C2139.42,1180.54 2139.57,1181.09 2139.68,1181.1C2139.69,1181.1 2139.55,1180.75 2139.54,1180.73C2139.48,1180.51 2139.38,1180.24 2139.26,1180.04C2138.78,1179.23 2137.84,1178.58 2136.87,1178.97C2136.6,1179.08 2136.36,1179.16 2136.15,1179.37C2136.11,1179.41 2135.91,1179.42 2135.91,1179.53" style="fill:none;stroke:rgb(17,17,17);stroke-width:1px;"/>
                        </g>
                        <g transform="matrix(1,0,0,0.841611,0,-755.766)">
                            <path d="M2135.91,1179.53C2135.91,1179.03 2135.99,1178.45 2135.91,1177.96C2135.87,1177.72 2135.73,1177.46 2135.73,1177.22C2135.73,1177.16 2135.8,1177.38 2135.84,1177.34C2135.87,1177.31 2135.89,1177.19 2135.93,1177.13C2136.5,1176.36 2137.11,1175.59 2137.7,1174.84C2137.85,1174.64 2137.95,1174.42 2138.09,1174.22C2138.12,1174.18 2138.27,1174.05 2138.27,1174.02C2138.27,1173.98 2138.29,1174.12 2138.33,1174.14C2138.43,1174.19 2138.55,1174.29 2138.66,1174.32C2139.01,1174.4 2139.37,1174.49 2139.72,1174.55C2140.75,1174.75 2141.58,1174.84 2142.68,1174.69C2142.9,1174.66 2143.42,1174.67 2143.58,1174.52C2143.62,1174.48 2143.52,1174.34 2143.49,1174.37C2143.12,1174.73 2142.34,1174.66 2141.83,1174.66C2141.76,1174.66 2140.99,1174.66 2141.08,1174.75C2141.15,1174.82 2141.43,1174.84 2141.53,1174.86C2141.97,1174.92 2142.4,1174.99 2142.85,1174.99C2143.05,1174.99 2143.25,1174.99 2143.44,1174.99C2143.5,1174.99 2143.77,1174.92 2143.64,1174.92" style="fill:none;stroke:rgb(17,17,17);stroke-width:1px;"/>
                        </g>
                        <g transform="matrix(1,0,0,0.841611,0,-755.766)">
                            <path d="M2141.49,1174.94C2141.49,1175.37 2141.35,1175.75 2141.28,1176.16C2141.14,1176.87 2141.16,1177.67 2141.16,1178.41C2141.16,1178.74 2141.15,1179.12 2141.07,1179.44C2141.05,1179.51 2141.11,1179.72 2141.06,1179.78C2141.04,1179.8 2140.97,1179.68 2140.95,1179.67C2140.89,1179.65 2140.82,1179.66 2140.75,1179.66C2140.42,1179.66 2140.09,1179.64 2139.77,1179.7C2139.74,1179.71 2139.18,1179.81 2139.2,1179.83C2139.22,1179.85 2139.42,1179.83 2139.46,1179.83C2139.74,1179.83 2140,1179.83 2140.28,1179.89C2140.6,1179.95 2140.94,1180.01 2141.26,1180.06C2141.36,1180.08 2141.5,1180.09 2141.6,1180.12C2141.66,1180.14 2141.7,1180.16 2141.7,1180.16C2141.7,1180.16 2142.2,1180.13 2142.24,1180.13C2142.61,1180.13 2142.97,1180.16 2143.33,1180.23C2143.64,1180.29 2143.84,1181.22 2143.92,1181.53C2143.95,1181.67 2144.01,1181.8 2144.06,1181.91C2144.08,1181.95 2144.2,1182.13 2144.13,1182.13" style="fill:none;stroke:rgb(17,17,17);stroke-width:1px;"/>
                        </g>
                        <g transform="matrix(1,0,0,0.841611,0,-755.766)">
                            <path d="M2143.91,1180.61C2144.55,1180.61 2145.13,1180.81 2145.65,1181.18C2145.85,1181.32 2146,1181.55 2146.23,1181.64C2146.64,1181.8 2147.44,1182 2147.9,1181.84C2148.22,1181.73 2148.9,1181.88 2149.12,1182.1C2149.51,1182.5 2149.6,1183.16 2149.89,1183.65C2150.3,1184.36 2150.98,1184.96 2151.47,1185.61C2151.61,1185.79 2151.55,1186.17 2151.66,1186.3C2151.67,1186.31 2151.62,1186.21 2151.62,1186.2C2151.59,1186.14 2151.61,1186.02 2151.61,1185.95C2151.61,1185.71 2151.64,1185.44 2151.68,1185.2C2151.75,1184.75 2152.33,1184.3 2152.33,1183.86" style="fill:none;stroke:rgb(17,17,17);stroke-width:1px;"/>
                        </g>
                        <g transform="matrix(1,0,0,0.841611,0,-755.766)">
                            <path d="M2147.47,1182.37C2147.45,1182.37 2147.52,1182.38 2147.53,1182.4C2147.56,1182.45 2147.66,1182.51 2147.72,1182.53C2147.91,1182.61 2148.11,1182.59 2148.32,1182.59C2148.91,1182.59 2149.56,1182.56 2150.15,1182.64C2150.46,1182.68 2151.03,1182.7 2151.31,1182.56C2151.48,1182.47 2151.87,1182.58 2152.06,1182.56C2152.74,1182.47 2153.45,1182.59 2154.12,1182.46C2154.42,1182.4 2154.75,1182.39 2155.06,1182.34C2155.11,1182.33 2155.35,1182.29 2155.39,1182.33C2155.43,1182.37 2155.43,1182.54 2155.43,1182.6C2155.43,1182.92 2155.31,1182.88 2154.99,1182.92C2154.82,1182.94 2154.65,1182.99 2154.48,1183.02C2154.22,1183.06 2153.93,1182.97 2153.68,1183.02C2152.49,1183.26 2151.15,1183.18 2149.92,1183.18" style="fill:none;stroke:rgb(17,17,17);stroke-width:1px;"/>
                        </g>
                        <g transform="matrix(1,0,0,0.841611,0,-755.766)">
                            <path d="M2144.09,1181.98C2144.1,1181.98 2144.09,1182.17 2144.09,1182.19C2144.11,1182.32 2144.16,1182.46 2144.2,1182.58C2144.35,1183.03 2144.51,1183.36 2144.85,1183.7C2145.2,1184.05 2145.54,1184.43 2145.93,1184.75C2146.32,1185.09 2146.78,1185.37 2147.15,1185.73C2147.44,1186.02 2147.73,1186.34 2148.04,1186.61C2148.29,1186.82 2148.62,1187.04 2148.84,1187.25C2149,1187.41 2149.15,1187.79 2149.33,1187.98C2149.35,1188 2149.47,1187.98 2149.5,1187.99C2149.76,1188.08 2150.04,1188.02 2150.3,1188.02C2151.2,1188.02 2151.93,1187.38 2152.61,1186.81C2152.86,1186.59 2153.18,1186.46 2153.43,1186.25" style="fill:none;stroke:rgb(17,17,17);stroke-width:1px;"/>
                        </g>
                        <g transform="matrix(1,0,0,0.841611,0,-755.766)">
                            <path d="M2153.39,1186.25C2153.47,1186.25 2153.59,1186.09 2153.64,1186.04C2153.87,1185.86 2154.1,1185.68 2154.32,1185.48C2154.43,1185.38 2154.53,1185.24 2154.66,1185.15C2154.91,1184.96 2155.2,1184.81 2155.44,1184.6C2155.97,1184.13 2156.4,1183.55 2156.9,1183.05C2157.13,1182.82 2157.36,1182.59 2157.59,1182.37C2157.76,1182.21 2157.95,1182.06 2158.1,1181.87C2158.21,1181.72 2158.3,1181.56 2158.43,1181.43C2158.49,1181.38 2158.58,1181.3 2158.66,1181.3C2158.67,1181.3 2158.63,1181.3 2158.62,1181.3" style="fill:none;stroke:rgb(17,17,17);stroke-width:1px;"/>
                        </g>
                        <g transform="matrix(1,0,0,0.841611,0,-755.766)">
                            <path d="M2158.74,1181.31C2158.74,1181.03 2159.3,1180.75 2159.47,1180.58C2160,1180.05 2160.41,1179.39 2160.84,1178.79C2160.98,1178.61 2161.14,1178.43 2161.24,1178.22C2161.25,1178.2 2161.36,1178.05 2161.35,1178.04C2161.33,1178.02 2161.12,1177.97 2161.09,1177.95C2160.93,1177.89 2160.77,1177.79 2160.64,1177.68C2160.4,1177.48 2160.11,1177.19 2159.93,1176.93C2159.73,1176.66 2159.58,1176.35 2159.32,1176.13C2159.08,1175.93 2158.89,1175.68 2158.73,1175.41C2158.7,1175.36 2158.53,1175.29 2158.53,1175.23" style="fill:none;stroke:rgb(17,17,17);stroke-width:1px;"/>
                        </g>
                        <g transform="matrix(1,0,0,0.841611,0,-755.766)">
                            <path d="M2141.99,1166.88C2141.99,1167.85 2141.95,1168.81 2141.95,1169.79C2141.95,1170.23 2141.89,1170.81 2142.09,1171.2C2142.5,1172.02 2143.25,1172.94 2143.99,1173.53C2144.19,1173.68 2144.29,1173.93 2144.49,1174.1C2144.79,1174.33 2145.17,1174.44 2145.44,1174.71C2146.02,1175.29 2146.74,1175.85 2147.45,1176.27C2147.84,1176.49 2148.43,1176.89 2148.88,1176.96C2149.28,1177.03 2149.75,1177.01 2150.14,1176.93C2150.88,1176.79 2151.7,1176.96 2152.45,1176.84C2152.84,1176.79 2153.25,1176.82 2153.64,1176.72C2153.69,1176.7 2153.99,1176.67 2153.99,1176.61" style="fill:none;stroke:rgb(17,17,17);stroke-width:1px;"/>
                        </g>
                        <g transform="matrix(1,0,0,0.841611,0,-755.766)">
                            <path d="M2153.98,1176.59C2154.17,1176.4 2154.46,1176.38 2154.64,1176.2C2155.04,1175.79 2155.6,1175.52 2156.06,1175.17C2156.8,1174.61 2157.49,1174.03 2158.26,1173.51C2158.7,1173.22 2159.07,1172.72 2159.49,1172.38C2159.74,1172.19 2159.88,1171.93 2160.12,1171.73C2160.41,1171.48 2160.74,1171.27 2160.96,1170.94C2161.14,1170.66 2161.39,1170.46 2161.59,1170.2C2161.61,1170.17 2161.75,1169.98 2161.77,1170C2161.87,1170.09 2161.71,1170.6 2161.74,1170.72C2161.75,1170.81 2161.98,1171.33 2161.91,1171.4C2161.74,1171.58 2161.44,1171.83 2161.24,1172.03C2161.01,1172.26 2160.89,1172.58 2160.66,1172.82C2160.36,1173.11 2160,1173.29 2159.74,1173.62C2158.86,1174.79 2157.86,1175.86 2156.7,1176.72C2155.95,1177.28 2155.25,1178.1 2154.34,1178.45C2154.05,1178.57 2153.68,1178.58 2153.37,1178.62C2152.52,1178.74 2151.63,1178.83 2150.78,1178.97C2150.17,1179.07 2149.39,1178.96 2148.81,1178.77C2148.45,1178.65 2148.12,1178.42 2147.73,1178.42" style="fill:none;stroke:rgb(17,17,17);stroke-width:1px;"/>
                        </g>
                        <g transform="matrix(1,0,0,0.841611,0,-755.766)">
                            <path d="M2147.73,1178.42C2147.43,1178.42 2147.16,1177.99 2146.94,1177.83C2146.69,1177.64 2146.39,1177.54 2146.15,1177.34C2145.59,1176.87 2145.1,1176.34 2144.59,1175.83C2144.41,1175.65 2144.21,1175.47 2144.03,1175.29C2143.99,1175.25 2143.83,1175.15 2143.83,1175.1" style="fill:none;stroke:rgb(17,17,17);stroke-width:1px;"/>
                        </g>
                        <g transform="matrix(1,0,0,0.841611,0,-755.766)">
                            <path d="M2141.75,1171.36C2141.22,1171.36 2140.74,1171.1 2140.24,1170.93C2140.13,1170.89 2139.83,1170.92 2139.76,1170.84C2139.61,1170.69 2139.79,1170.26 2139.54,1170.07C2139.24,1169.84 2138.47,1169.75 2138.1,1169.75C2137.92,1169.75 2137.58,1169.81 2137.42,1169.73C2137.34,1169.68 2137.18,1169.22 2137.13,1169.12C2136.98,1168.83 2136.84,1168.56 2136.76,1168.25C2136.71,1168.04 2136.78,1167.79 2136.72,1167.57C2136.69,1167.45 2136.6,1167.3 2136.6,1167.19" style="fill:none;stroke:rgb(17,17,17);stroke-width:1px;"/>
                        </g>
                        <g transform="matrix(1,0,0,0.841611,0,-755.766)">
                            <path d="M2141.62,1170.27C2140.31,1170.27 2139.47,1170.1 2138.28,1169.62C2138,1169.51 2137.82,1169.31 2137.55,1169.17C2137.15,1168.97 2137.04,1168.47 2136.94,1168.08C2136.91,1167.96 2136.8,1167.49 2136.8,1167.57" style="fill:none;stroke:rgb(17,17,17);stroke-width:1px;"/>
                        </g>
                        <g transform="matrix(1,0,0,0.841611,0,-755.766)">
                            <path d="M2136.41,1167.02C2136.41,1165.66 2136.28,1164.27 2136.48,1162.93C2136.54,1162.52 2136.6,1162.11 2136.66,1161.69C2136.68,1161.55 2136.72,1161.01 2136.76,1161.1" style="fill:none;stroke:rgb(17,17,17);stroke-width:1px;"/>
                        </g>
                        <g transform="matrix(1,0,0,0.841611,0,-755.766)">
                            <path d="M2136.78,1161.31C2136.78,1160.52 2137.11,1159.86 2137.39,1159.13C2137.84,1158.01 2138.09,1156.83 2138.53,1155.71C2138.69,1155.31 2138.73,1154.86 2138.85,1154.46C2138.88,1154.39 2138.81,1154.11 2138.87,1154.05C2138.87,1154.04 2138.91,1154.14 2138.91,1154.15C2138.95,1154.23 2138.96,1154.33 2138.98,1154.41C2139.05,1154.61 2139.18,1154.8 2139.25,1155.02C2139.44,1155.59 2139.95,1156.06 2140.31,1156.54C2140.73,1157.1 2141.34,1157.55 2141.9,1157.92C2142.11,1158.05 2142.72,1158.51 2142.66,1158.51" style="fill:none;stroke:rgb(17,17,17);stroke-width:1px;"/>
                        </g>
                        <g transform="matrix(1,0,0,0.841611,0,-755.766)">
                            <path d="M2142.07,1162.69C2142.07,1162.3 2142.04,1161.89 2142.07,1161.5C2142.14,1160.81 2142.53,1160.18 2142.75,1159.54C2142.95,1158.92 2143.15,1158.32 2143.38,1157.72C2143.64,1157.06 2143.8,1156.28 2144.18,1155.68C2144.62,1155.01 2145.06,1154.32 2145.48,1153.63C2145.61,1153.42 2145.8,1153.18 2145.98,1153C2146.03,1152.94 2146.2,1152.69 2146.2,1152.7" style="fill:none;stroke:rgb(17,17,17);stroke-width:1px;"/>
                        </g>
                        <g transform="matrix(1,0,0,0.841611,0,-755.766)">
                            <path d="M2146.3,1152.71C2146.28,1152.71 2146.29,1152.42 2146.29,1152.41C2146.29,1152.11 2146.29,1151.82 2146.33,1151.52C2146.51,1150.16 2146.87,1148.77 2147.43,1147.51C2148.22,1145.78 2148.99,1144.04 2149.59,1142.23C2149.82,1141.53 2149.91,1140.79 2150.16,1140.09C2151.19,1137.2 2152.52,1134.28 2154.7,1132.07" style="fill:none;stroke:rgb(17,17,17);stroke-width:1px;"/>
                        </g>
                        <g transform="matrix(1,0,0,0.841611,0,-755.766)">
                            <path d="M2155.87,1133.31C2155.53,1133.31 2155.21,1132.94 2154.94,1132.75C2154.18,1132.22 2153.54,1131.41 2153.38,1130.47C2153.27,1129.79 2153.3,1129.09 2153.23,1128.41C2153.16,1127.66 2153.18,1126.85 2153.44,1126.14C2153.75,1125.32 2154.68,1124.67 2155.36,1124.19C2155.7,1123.94 2155.97,1123.58 2156.39,1123.43C2157.25,1123.1 2158.34,1123.08 2159.25,1123.17C2161.04,1123.35 2160.72,1125.78 2160.96,1126.98C2161.11,1127.75 2161.51,1128.45 2161.37,1129.26C2161.28,1129.85 2160.84,1130.37 2160.49,1130.82C2160.26,1131.11 2160.07,1131.64 2159.74,1131.83C2159.09,1132.21 2158.41,1132.45 2157.68,1132.63C2157.03,1132.79 2156.48,1133.03 2155.8,1133.03" style="fill:none;stroke:rgb(17,17,17);stroke-width:1px;"/>
                        </g>
                        <g transform="matrix(1,0,0,0.841611,0,-755.766)">
                            <path d="M2155.8,1133.03C2156.69,1133.03 2157.61,1133.76 2158.53,1133.57C2160.56,1133.14 2161.78,1130.98 2161.78,1129.01C2161.78,1128.61 2161.88,1127.75 2161.62,1127.4C2160.92,1126.47 2160.46,1125.37 2159.73,1124.45C2159.47,1124.12 2159.15,1123.86 2158.85,1123.56C2158.78,1123.48 2158.67,1123.41 2158.58,1123.35C2158.56,1123.34 2158.4,1123.26 2158.41,1123.26C2158.47,1123.2 2158.68,1123.4 2158.74,1123.41C2159.11,1123.49 2159.59,1123.67 2159.88,1123.91C2161.04,1124.83 2161.7,1125.85 2161.7,1127.33" style="fill:none;stroke:rgb(17,17,17);stroke-width:1px;"/>
                        </g>
                        <g transform="matrix(1,0,0,0.841611,0,-755.766)">
                            <path d="M2151.11,1139.23C2151.11,1139.59 2151.79,1140.05 2152.05,1140.26C2152.33,1140.48 2152.66,1140.62 2152.98,1140.79C2153.76,1141.23 2154.97,1141.93 2155.91,1141.49C2156.34,1141.28 2156.78,1141.09 2157.16,1140.8C2157.21,1140.76 2157.49,1140.66 2157.49,1140.62" style="fill:none;stroke:rgb(17,17,17);stroke-width:1px;"/>
                        </g>
                        <g transform="matrix(1,0,0,0.841611,0,-755.766)">
                            <path d="M2157.53,1139.92C2157.4,1139.92 2156.98,1140.35 2156.82,1140.43C2156.07,1140.8 2155.09,1141.16 2154.26,1140.88C2153.78,1140.72 2153.1,1140.33 2152.74,1139.97C2152.67,1139.9 2152.03,1139.36 2152.16,1139.36" style="fill:none;stroke:rgb(17,17,17);stroke-width:1px;"/>
                        </g>
                        <g transform="matrix(1,0,0,0.841611,0,-755.766)">
                            <path d="M2157.04,1134C2157.04,1133.99 2157.04,1134.11 2157.04,1134.13C2157.04,1134.23 2157.04,1134.33 2157.04,1134.43C2157.04,1134.77 2157.07,1135.09 2157.13,1135.41C2157.32,1136.35 2157.51,1137.35 2157.61,1138.3C2157.72,1139.57 2158.07,1140.82 2158.2,1142.08C2158.36,1143.72 2158.44,1145.45 2158.9,1147.05C2159.19,1148.07 2159.68,1148.67 2160.29,1149.49C2160.48,1149.74 2160.64,1150.05 2160.89,1150.24C2160.96,1150.3 2161.23,1150.65 2161.14,1150.57" style="fill:none;stroke:rgb(17,17,17);stroke-width:1px;"/>
                        </g>
                        <g transform="matrix(1,0,0,0.841611,0,-755.766)">
                            <path d="M2157.71,1134.02C2157.71,1135.17 2157.65,1136.34 2157.71,1137.49C2157.76,1138.65 2158.04,1139.8 2158.22,1140.94C2158.43,1142.19 2158.53,1143.5 2158.9,1144.71C2159.21,1145.73 2159.63,1146.88 2160.15,1147.82C2160.4,1148.26 2160.73,1148.66 2160.95,1149.11C2161.16,1149.53 2161.36,1150.07 2161.69,1150.41" style="fill:none;stroke:rgb(17,17,17);stroke-width:1px;"/>
                        </g>
                        <g transform="matrix(1,0,0,0.841611,0,-755.766)">
                            <path d="M2150.16,1142.44C2150.28,1142.44 2150.43,1142.62 2150.5,1142.69C2150.8,1142.94 2151.09,1143.2 2151.41,1143.42C2151.82,1143.69 2152.3,1143.84 2152.75,1144.03C2153.35,1144.29 2154.05,1144.69 2154.73,1144.69C2155.42,1144.69 2156.1,1144.68 2156.78,1144.56C2156.91,1144.54 2157.93,1144.43 2157.82,1144.35" style="fill:none;stroke:rgb(17,17,17);stroke-width:1px;"/>
                        </g>
                        <g transform="matrix(1,0,0,0.841611,0,-755.766)">
                            <path d="M2149.22,1144.81C2149.22,1144.74 2149.29,1144.93 2149.34,1144.98C2149.43,1145.07 2149.52,1145.14 2149.61,1145.23C2149.86,1145.48 2150.23,1145.69 2150.52,1145.9C2151.08,1146.3 2151.75,1146.59 2152.37,1146.9C2152.81,1147.12 2153.17,1147.37 2153.65,1147.51C2154.66,1147.79 2155.75,1147.83 2156.78,1147.72C2157.11,1147.69 2157.47,1147.69 2157.78,1147.62C2157.88,1147.6 2157.99,1147.57 2158.09,1147.55C2158.14,1147.54 2158.29,1147.52 2158.24,1147.52C2158.2,1147.52 2158.17,1147.49 2158.12,1147.49" style="fill:none;stroke:rgb(17,17,17);stroke-width:1px;"/>
                        </g>
                        <g transform="matrix(1,0,0,0.841611,0,-755.766)">
                            <path d="M2158.26,1146.89C2157.48,1146.89 2156.88,1147.28 2156.13,1147.45C2154.82,1147.74 2153.63,1147.73 2152.35,1147.51C2151.41,1147.35 2150.43,1146.79 2149.58,1146.36C2149.38,1146.26 2149.01,1145.75 2148.8,1145.75" style="fill:none;stroke:rgb(17,17,17);stroke-width:1px;"/>
                        </g>
                        <g transform="matrix(1,0,0,0.841611,0,-755.766)">
                            <path d="M2146.42,1153.11C2146.72,1153.11 2147.2,1153.8 2147.4,1154.01C2148.07,1154.68 2148.95,1155.52 2149.87,1155.84C2152.17,1156.63 2154.92,1156.53 2157.28,1156C2158.14,1155.81 2159.03,1155.54 2159.78,1155.1C2159.92,1155.02 2160.08,1154.91 2160.17,1154.79C2160.22,1154.71 2160.22,1154.55 2160.3,1154.5C2160.63,1154.28 2160.98,1153.99 2161.25,1153.71C2161.63,1153.33 2161.57,1152.35 2161.51,1151.84C2161.48,1151.67 2161.35,1151.45 2161.35,1151.3" style="fill:none;stroke:rgb(17,17,17);stroke-width:1px;"/>
                        </g>
                        <g transform="matrix(1,0,0,0.841611,0,-755.766)">
                            <path d="M2145.87,1153.96C2146.11,1153.96 2146.32,1154.23 2146.52,1154.36C2147.07,1154.73 2147.59,1155.08 2148.13,1155.46C2148.55,1155.76 2149,1155.87 2149.45,1156.09C2150.33,1156.53 2151.39,1156.86 2152.36,1157.01C2152.92,1157.09 2153.61,1157.2 2154.15,1157.03C2154.23,1157.01 2154.55,1156.99 2154.55,1156.9" style="fill:none;stroke:rgb(17,17,17);stroke-width:1px;"/>
                        </g>
                        <g transform="matrix(1,0,0,0.841611,0,-755.766)">
                            <path d="M2160.27,1155.08C2160.4,1155.08 2160.47,1155.46 2160.51,1155.56C2160.76,1156.05 2160.86,1156.65 2160.97,1157.18C2161.29,1158.81 2161.24,1160.4 2160.95,1162.03C2160.81,1162.8 2160.44,1163.62 2160.44,1164.38" style="fill:none;stroke:rgb(17,17,17);stroke-width:1px;"/>
                        </g>
                        <g transform="matrix(1,0,0,0.841611,0,-755.766)">
                            <path d="M2160.51,1164.15C2160.51,1164 2160.61,1163.87 2160.69,1163.75C2161.03,1163.19 2161.35,1162.63 2161.74,1162.09C2162.32,1161.26 2163.19,1160.53 2163.97,1159.91C2164.22,1159.71 2164.36,1159.47 2164.53,1159.23C2164.79,1158.88 2165.22,1158.58 2165.55,1158.3C2165.99,1157.93 2166.75,1157.83 2167.28,1157.63C2167.92,1157.39 2168.58,1156.43 2168.88,1155.82C2168.99,1155.61 2169,1154.81 2169,1154.82" style="fill:none;stroke:rgb(17,17,17);stroke-width:1px;"/>
                        </g>
                        <g transform="matrix(1,0,0,0.841611,0,-755.766)">
                            <path d="M2169,1154.84C2168.11,1154.84 2167.29,1155.48 2166.62,1156.01C2165.59,1156.83 2164.32,1157.38 2163.38,1158.31C2162.78,1158.91 2162.11,1159.35 2161.59,1160.04C2161.48,1160.19 2161.39,1160.36 2161.3,1160.52C2161.28,1160.54 2161.15,1160.76 2161.17,1160.76" style="fill:none;stroke:rgb(17,17,17);stroke-width:1px;"/>
                        </g>
                        <g transform="matrix(1,0,0,0.841611,0,-755.766)">
                            <path d="M2161.24,1161.43C2161.24,1161.45 2161.46,1161.24 2161.48,1161.21C2161.61,1161.04 2161.75,1160.88 2161.87,1160.7C2162.23,1160.16 2162.61,1159.43 2163.17,1159.08C2163.45,1158.9 2163.77,1158.76 2164.09,1158.65C2164.19,1158.62 2164.3,1158.6 2164.4,1158.56C2164.45,1158.54 2164.59,1158.5 2164.55,1158.52C2164.15,1158.72 2163.85,1159.18 2163.54,1159.49C2163.25,1159.78 2162.92,1160.04 2162.61,1160.31C2162.5,1160.41 2162.1,1160.87 2161.96,1160.88C2161.87,1160.89 2162.05,1160.73 2162.11,1160.66C2162.22,1160.54 2162.37,1160.43 2162.51,1160.32C2162.97,1159.97 2163.41,1159.61 2163.89,1159.28C2164.8,1158.65 2165.45,1157.63 2166.22,1156.84C2166.47,1156.57 2166.98,1156.1 2167.38,1156.1C2167.49,1156.1 2167.19,1156.16 2167.11,1156.22C2166.93,1156.33 2166.75,1156.41 2166.58,1156.54C2166.05,1156.95 2165.55,1157.38 2165.07,1157.86C2165.01,1157.91 2164.65,1158.18 2164.65,1158.29C2164.65,1158.35 2164.72,1158.21 2164.76,1158.17C2164.84,1158.09 2164.92,1158.02 2165,1157.95C2165.24,1157.77 2165.46,1157.57 2165.71,1157.4C2166.2,1157.06 2166.84,1156.74 2167.24,1156.28C2167.5,1155.98 2167.64,1155.55 2167.91,1155.28C2167.93,1155.25 2167.85,1155.41 2167.83,1155.44C2167.75,1155.59 2167.66,1155.72 2167.57,1155.86C2167.4,1156.14 2167.26,1156.43 2167.07,1156.7C2167.04,1156.74 2166.66,1157.11 2166.68,1157.13C2166.69,1157.14 2166.99,1156.9 2167.01,1156.87C2167.37,1156.57 2167.83,1156.24 2168.09,1155.85C2168.18,1155.7 2168.27,1155.6 2168.36,1155.45C2168.44,1155.33 2168.49,1155.28 2168.49,1155.28" style="fill:none;stroke:rgb(17,17,17);stroke-width:1px;"/>
                        </g>
                        <g transform="matrix(1,0,0,0.841611,0,-755.766)">
                            <path d="M2168.22,1156.92C2168.24,1156.92 2168.23,1157.7 2168.23,1157.75C2168.23,1158.64 2168.31,1159.59 2168.08,1160.46C2167.77,1161.62 2167.47,1162.83 2167.09,1163.96C2166.93,1164.43 2166.94,1165 2166.64,1165.41C2166.18,1166.01 2165.38,1166.42 2164.76,1166.79C2164.1,1167.17 2163.52,1167.48 2162.92,1167.98C2162.72,1168.15 2162.53,1168.32 2162.34,1168.51C2162.28,1168.57 2162.12,1168.84 2162.12,1168.75" style="fill:none;stroke:rgb(17,17,17);stroke-width:1px;"/>
                        </g>
                        <g transform="matrix(1,0,0,0.841611,0,-755.766)">
                            <path d="M2162.12,1168.75C2162.93,1168.75 2163.84,1168.85 2164.63,1168.68C2165,1168.61 2165.28,1168.28 2165.63,1168.13C2166.27,1167.86 2167.02,1167.56 2167.52,1167.05C2168.95,1165.61 2168.96,1163.37 2168.96,1161.45C2168.96,1160.05 2168.84,1158.62 2168.97,1157.21C2169,1156.81 2168.99,1156.16 2169.17,1155.8C2169.25,1155.65 2169.18,1155.12 2169.18,1155.25" style="fill:none;stroke:rgb(17,17,17);stroke-width:1px;"/>
                        </g>
                        <g transform="matrix(1,0,0,0.841611,0,-755.766)">
                            <path d="M2163.85,1168.44C2164.17,1168.34 2164.45,1168.07 2164.73,1167.9C2165.51,1167.43 2166.3,1166.71 2166.84,1165.99C2167,1165.77 2167.32,1165.61 2167.43,1165.35C2167.56,1165.02 2167.66,1164.66 2167.79,1164.33C2168.02,1163.72 2167.98,1163.11 2167.98,1162.47C2167.98,1162.23 2167.98,1162 2168.01,1161.77C2168.01,1161.74 2168.06,1161.49 2168.06,1161.49C2168.21,1161.64 2168.1,1162.53 2168.07,1162.69C2167.87,1163.87 2167.69,1165.16 2167.29,1166.3" style="fill:none;stroke:rgb(17,17,17);stroke-width:1px;"/>
                        </g>
                        <g transform="matrix(1,0,0,0.841611,0,-755.766)">
                            <path d="M2166.71,1167.4C2166.64,1167.4 2166.81,1167.4 2166.83,1167.4C2166.95,1167.4 2167.13,1167.35 2167.15,1167.22C2167.17,1167.07 2167.13,1166.09 2167.42,1166.09" style="fill:none;stroke:rgb(17,17,17);stroke-width:1px;"/>
                        </g>
                        <g transform="matrix(1,0,0,0.841611,0,-755.766)">
                            <path d="M2145.08,1164.8C2145.08,1164.43 2145.55,1164.05 2145.69,1163.71C2146.11,1162.64 2146.66,1161.72 2147.26,1160.73C2147.37,1160.53 2147.94,1159.39 2148.19,1159.63C2148.25,1159.7 2148.1,1159.93 2148.09,1160C2148.03,1160.27 2148.08,1160.58 2148.08,1160.86C2148.08,1161.42 2148.19,1161.95 2148.3,1162.5C2148.39,1162.91 2148.29,1163.37 2148.36,1163.78C2148.4,1164.04 2148.37,1164.32 2148.37,1164.58C2148.37,1164.61 2148.39,1164.81 2148.37,1164.84C2147.8,1165.38 2147.38,1166.22 2147.58,1167.02C2147.62,1167.17 2147.5,1167.47 2147.62,1167.6C2147.72,1167.71 2148.04,1167.18 2148.04,1167.08C2148.04,1166.88 2147.91,1166.76 2147.84,1166.62C2147.79,1166.51 2147.88,1166.25 2147.8,1166.16C2147.64,1165.99 2147.6,1165.82 2147.53,1165.59C2147.52,1165.56 2147.37,1165.19 2147.31,1165.25C2146.83,1165.67 2147.14,1166.53 2147.14,1167.06C2147.14,1167.25 2147.21,1167.46 2147.26,1167.64C2147.29,1167.72 2147.31,1167.97 2147.31,1167.88" style="fill:none;stroke:rgb(17,17,17);stroke-width:1px;"/>
                        </g>
                        <g transform="matrix(1,0,0,0.841611,0,-755.766)">
                            <path d="M2154.63,1164.49C2154.63,1163.96 2155.01,1163.32 2155.3,1162.9C2155.62,1162.45 2155.78,1161.88 2156.1,1161.44C2156.29,1161.19 2156.56,1160.98 2156.7,1160.7C2156.86,1160.37 2157.04,1160.06 2157.37,1159.89C2157.4,1159.88 2157.5,1159.67 2157.55,1159.72C2157.62,1159.79 2157.56,1160.01 2157.62,1160.11C2158.01,1160.71 2158.04,1161.35 2158.18,1162.05C2158.41,1163.27 2157.81,1164.24 2157.31,1165.23C2157.11,1165.62 2156.69,1165.89 2156.59,1166.29C2156.5,1166.66 2156.45,1167.05 2156.36,1167.42C2156.34,1167.49 2156.3,1167.81 2156.35,1167.86C2156.62,1168.15 2156.84,1167.44 2156.91,1167.31C2157.08,1166.97 2156.8,1166.34 2156.64,1166.04C2156.59,1165.94 2156.46,1165.44 2156.29,1165.53C2156.22,1165.56 2156.21,1165.85 2156.21,1165.92C2156.21,1166.3 2156.15,1166.65 2156.15,1167.03C2156.15,1167.17 2156.14,1167.32 2156.14,1167.47C2156.14,1167.55 2156.14,1167.76 2156.14,1167.69" style="fill:none;stroke:rgb(17,17,17);stroke-width:1px;"/>
                        </g>
                        <g transform="matrix(1,0,0,0.841611,0,-755.766)">
                            <path d="M2157.45,1160.91C2157.45,1160.89 2157.27,1160.9 2157.25,1160.9C2157.09,1160.9 2156.89,1160.9 2156.75,1160.96C2156.73,1160.97 2156.56,1161.1 2156.53,1161.06C2156.31,1160.85 2156.8,1160.2 2156.94,1160.06C2156.97,1160.04 2157.23,1159.72 2157.23,1159.72C2157.16,1159.68 2157.07,1159.82 2157.04,1159.85C2156.91,1159.98 2156.53,1160.27 2156.53,1160.48" style="fill:none;stroke:rgb(17,17,17);stroke-width:1px;"/>
                        </g>
                        <g transform="matrix(1,0,0,0.841611,0,-755.766)">
                            <path d="M2143.49,1168.66C2143.87,1168.66 2144.25,1168.8 2144.57,1168.8" style="fill:none;stroke:rgb(17,17,17);stroke-width:1px;"/>
                        </g>
                        <g transform="matrix(1,0,0,0.841611,0,-755.766)">
                            <path d="M2158.65,1169.07C2158.54,1169.07 2158.86,1169.07 2158.96,1169.07C2159.06,1169.07 2159.57,1169 2159.64,1169.08" style="fill:none;stroke:rgb(17,17,17);stroke-width:1px;"/>
                        </g>
                        <g transform="matrix(1,0,0,0.841611,0,-755.766)">
                            <path d="M2151.72,1166.5C2151.72,1166.92 2151.26,1167.43 2151.12,1167.84C2150.75,1168.94 2150.4,1170.23 2150.4,1171.39C2150.4,1171.43 2150.42,1171.31 2150.45,1171.28C2150.5,1171.2 2150.54,1171.11 2150.6,1171.04C2150.77,1170.84 2150.99,1170.67 2151.14,1170.45C2151.65,1169.68 2151.82,1168.86 2151.89,1167.93C2151.92,1167.55 2152,1167.09 2152,1166.72C2152,1166.69 2151.94,1166.78 2151.94,1166.81" style="fill:none;stroke:rgb(17,17,17);stroke-width:1px;"/>
                        </g>
                        <g transform="matrix(1,0,0,0.841611,0,-755.766)">
                            <path d="M2150.3,1174.13C2150.66,1174.13 2150.99,1174.1 2151.33,1173.95C2151.6,1173.82 2151.85,1173.65 2152.12,1173.53C2152.69,1173.27 2153.23,1172.97 2153.81,1172.73C2154.49,1172.44 2155.18,1171.99 2155.39,1173.02C2155.45,1173.32 2155.4,1173.6 2155.18,1173.82C2154.89,1174.11 2154.3,1174 2153.94,1174.09C2153.11,1174.3 2152.34,1174.62 2151.49,1174.8C2151.35,1174.83 2150.72,1175.04 2150.57,1174.88C2150.51,1174.82 2150.46,1174.54 2150.42,1174.44C2150.41,1174.43 2151.39,1174.22 2151.49,1174.18C2152.24,1173.93 2152.91,1173.51 2153.63,1173.22C2153.93,1173.11 2154.28,1173.21 2154.45,1172.97C2154.49,1172.89 2154.76,1172.84 2154.72,1172.84" style="fill:none;stroke:rgb(17,17,17);stroke-width:1px;"/>
                        </g>
                        <g transform="matrix(1,0,0,0.841611,0,-755.766)">
                            <path d="M2160.89,1179.72C2160.88,1179.71 2161.15,1179.71 2161.19,1179.71C2161.38,1179.71 2161.57,1179.71 2161.76,1179.69C2162.41,1179.64 2163.07,1179.54 2163.73,1179.54C2164.12,1179.54 2164.51,1179.5 2164.88,1179.65C2165.88,1180.07 2166.47,1181.12 2167.22,1181.86C2167.49,1182.13 2167.88,1182.36 2168.11,1182.67C2168.32,1182.96 2168.78,1183.01 2169.05,1183.23C2169.26,1183.4 2169.43,1183.59 2169.66,1183.72C2170.06,1183.95 2170.49,1183.92 2170.92,1183.99C2172.03,1184.18 2173.38,1183.99 2174.44,1183.72C2175.07,1183.56 2175.65,1183.45 2176.2,1183.09C2177.23,1182.45 2177.76,1181.5 2178.38,1180.51C2178.68,1180.03 2179.01,1179.6 2179.24,1179.12C2179.33,1178.95 2179.58,1178.68 2179.58,1178.53" style="fill:none;stroke:rgb(17,17,17);stroke-width:1px;"/>
                        </g>
                        <g transform="matrix(1,0,0,0.841611,0,-755.766)">
                            <path d="M2161.39,1178.6C2163.57,1178.6 2164.84,1180.33 2166.56,1181.33C2167.2,1181.71 2167.81,1182.17 2168.45,1182.55C2168.88,1182.8 2169.43,1182.8 2169.88,1182.99C2170.24,1183.15 2170.55,1183.36 2170.93,1183.44C2171.57,1183.57 2172.32,1183.48 2172.98,1183.48C2173.46,1183.48 2173.95,1183.51 2174.43,1183.44C2174.99,1183.35 2175.54,1182.97 2176.06,1182.79C2176.18,1182.75 2177.01,1182.54 2177.01,1182.4" style="fill:none;stroke:rgb(17,17,17);stroke-width:1px;"/>
                        </g>
                        <g transform="matrix(1,0,0,0.841611,0,-755.766)">
                            <path d="M2180.19,1178.69C2180.19,1179.02 2180.01,1179.26 2179.84,1179.54C2179.49,1180.09 2179.28,1180.66 2178.88,1181.18C2178.55,1181.62 2178.41,1182.15 2178.08,1182.58C2177.89,1182.83 2177.55,1182.95 2177.32,1183.14C2177.16,1183.27 2177.04,1183.44 2176.87,1183.57C2175.92,1184.28 2174.47,1184.54 2173.34,1184.73C2172.76,1184.83 2171.95,1184.98 2171.38,1184.86C2170.94,1184.77 2170.53,1184.61 2170.12,1184.51C2169.93,1184.46 2163,1179.71 2163,1179.54" style="fill:none;stroke:rgb(17,17,17);stroke-width:1px;"/>
                        </g>
                        <g transform="matrix(1,0,0,0.841611,0,-755.766)">
                            <path d="M2181.34,1178.65C2181.17,1178.65 2180.97,1178.43 2180.87,1178.33C2180.56,1178.02 2180.22,1177.72 2179.93,1177.4C2179.41,1176.82 2178.82,1176.31 2178.28,1175.77C2177.98,1175.46 2177.92,1174.75 2177.92,1174.34C2177.92,1173.2 2178.15,1172.15 2178.6,1171.11C2178.85,1170.52 2179.08,1169.82 2179.18,1169.2C2179.22,1168.98 2179.28,1168.75 2179.31,1168.53C2179.32,1168.42 2179.28,1168.12 2179.36,1168.2C2179.43,1168.27 2179.37,1168.67 2179.37,1168.78C2179.37,1169.24 2179.44,1169.7 2179.5,1170.16C2179.52,1170.25 2179.45,1170.53 2179.5,1170.58C2179.55,1170.63 2179.73,1170.36 2179.74,1170.35C2180,1170.09 2180.23,1169.82 2180.44,1169.53C2181.15,1168.58 2182.17,1167.78 2182.6,1166.65C2182.71,1166.35 2182.84,1166.06 2182.94,1165.77C2182.98,1165.64 2183.22,1165.44 2183.1,1165.44" style="fill:none;stroke:rgb(17,17,17);stroke-width:1px;"/>
                        </g>
                        <g transform="matrix(1,0,0,0.841611,0,-755.766)">
                            <path d="M2183.43,1165.29C2183.43,1165.85 2183.41,1166.41 2183.41,1166.96C2183.41,1167.41 2183.6,1167.9 2183.69,1168.34C2183.88,1169.3 2184.12,1170.45 2184.12,1171.42C2184.12,1171.49 2184.16,1171.3 2184.18,1171.24C2184.21,1171.11 2184.31,1170.98 2184.39,1170.88C2184.66,1170.52 2185,1170.23 2185.26,1169.86C2185.89,1168.96 2186.55,1168.02 2186.94,1166.99C2187.04,1166.72 2187.14,1166.45 2187.24,1166.18C2187.26,1166.13 2187.32,1165.93 2187.39,1165.93C2187.43,1165.92 2187.37,1166.02 2187.39,1166.07C2187.41,1166.16 2187.41,1166.26 2187.41,1166.36C2187.41,1166.87 2187.43,1167.38 2187.43,1167.89C2187.43,1168.63 2187.32,1169.55 2187.03,1170.23C2186.75,1170.9 2186.33,1171.52 2186,1172.17C2185.83,1172.5 2185.68,1172.81 2185.41,1173.08C2185.35,1173.14 2185.18,1173.38 2185.12,1173.38C2185.05,1173.38 2185.23,1173.28 2185.3,1173.25C2185.45,1173.17 2185.6,1173.12 2185.76,1173.07C2186.18,1172.95 2186.6,1172.78 2187,1172.6C2187.97,1172.15 2188.97,1171.74 2189.92,1171.26C2190.14,1171.15 2190.32,1171 2190.53,1170.89C2190.55,1170.88 2190.69,1170.78 2190.7,1170.79C2190.72,1170.81 2190.46,1171.43 2190.45,1171.48C2190.24,1172.22 2189.97,1172.86 2189.47,1173.44C2188.57,1174.49 2187.53,1175.39 2186.56,1176.36C2186.18,1176.73 2185.51,1176.97 2185.05,1177.23C2184.74,1177.41 2184.1,1177.95 2183.83,1177.94C2183.79,1177.93 2183.66,1178.12 2183.62,1178.14C2183.35,1178.34 2183.38,1178.59 2183.1,1178.73" style="fill:none;stroke:rgb(17,17,17);stroke-width:1px;"/>
                        </g>
                        <g transform="matrix(1,0,0,0.841611,0,-755.766)">
                            <path d="M2178.78,1174.66C2178.78,1175.22 2179.26,1176 2179.66,1176.4C2179.84,1176.59 2180.05,1176.72 2180.21,1176.92C2180.22,1176.93 2180.34,1177.11 2180.33,1177.11C2180.25,1177.14 2180.09,1176.96 2180.05,1176.9C2179.87,1176.68 2179.68,1176.43 2179.48,1176.23C2179,1175.74 2178.87,1175.2 2178.7,1174.57C2178.49,1173.71 2178.37,1173 2178.37,1172.13" style="fill:none;stroke:rgb(17,17,17);stroke-width:1px;"/>
                        </g>
                        <g transform="matrix(1,0,0,0.841611,0,-755.766)">
                            <path d="M2179.08,1167.72C2179.08,1167.71 2179.08,1167.86 2179.08,1167.9C2179.08,1167.99 2179.08,1168.08 2179.08,1168.17C2179.08,1168.45 2179.11,1168.74 2179.08,1169.02C2179.04,1169.47 2179,1169.92 2178.79,1170.32C2178.67,1170.57 2178.23,1170.98 2178.23,1171.24C2178.23,1171.29 2178.24,1171.14 2178.27,1171.1C2178.32,1171.01 2178.39,1170.92 2178.45,1170.83C2178.6,1170.54 2178.74,1170.26 2178.84,1169.95C2179.06,1169.3 2179.33,1168.58 2179.4,1167.89C2179.41,1167.78 2179.42,1167.19 2179.53,1167.13C2179.53,1167.13 2179.81,1167.98 2179.82,1168.03C2179.92,1168.38 2180.03,1168.74 2180.09,1169.09C2180.1,1169.17 2180.16,1169.42 2180.07,1169.47C2179.98,1169.51 2179.96,1168.96 2179.94,1168.89C2179.86,1168.47 2179.66,1168.02 2179.49,1167.62C2179.42,1167.46 2179.13,1167.05 2179.13,1167.06" style="fill:none;stroke:rgb(17,17,17);stroke-width:1px;"/>
                        </g>
                        <g transform="matrix(1,0,0,0.841611,0,-755.766)">
                            <path d="M2183.76,1165.14C2183.76,1166.33 2184.12,1167.42 2184.25,1168.59C2184.3,1168.98 2184.28,1169.38 2184.33,1169.78C2184.34,1169.91 2184.35,1170.05 2184.37,1170.19C2184.38,1170.25 2184.39,1170.37 2184.39,1170.37C2184.39,1170.37 2184.45,1170.02 2184.55,1169.89C2184.75,1169.63 2184.97,1169.38 2185.15,1169.1C2185.68,1168.31 2186.02,1167.41 2186.53,1166.63C2186.68,1166.39 2186.96,1165.86 2187.21,1165.74C2187.31,1165.68 2187.44,1165.62 2187.52,1165.53C2187.53,1165.52 2187.7,1165.42 2187.69,1165.42" style="fill:none;stroke:rgb(17,17,17);stroke-width:1px;"/>
                        </g>
                        <g transform="matrix(1,0,0,0.841611,0,-755.766)">
                            <path d="M2186.7,1172.1C2186.64,1172.1 2186.82,1172.1 2186.87,1172.07C2186.98,1172 2187.11,1171.93 2187.23,1171.88C2187.53,1171.73 2187.85,1171.62 2188.14,1171.46C2188.75,1171.12 2189.62,1170.94 2190.17,1170.52C2190.36,1170.38 2190.83,1170.01 2191.04,1170.01" style="fill:none;stroke:rgb(17,17,17);stroke-width:1px;"/>
                        </g>
                        <g transform="matrix(1,0,0,0.841611,0,-755.766)">
                            <path d="M2186.42,1171.75C2186.42,1171.73 2187.11,1171.37 2187.17,1171.34C2187.73,1171.03 2188.36,1170.86 2188.95,1170.62C2189.22,1170.51 2189.43,1170.28 2189.7,1170.17C2190,1170.05 2190.18,1169.79 2190.51,1169.7C2190.62,1169.67 2190.98,1169.48 2190.97,1169.48" style="fill:none;stroke:rgb(17,17,17);stroke-width:1px;"/>
                        </g>
                        <g transform="matrix(1,0,0,0.841611,0,-755.766)">
                            <path d="M2185.78,1177.51C2186.11,1177.51 2186.39,1177.39 2186.7,1177.3C2187.85,1176.97 2188.72,1175.93 2189.18,1174.84C2189.35,1174.43 2189.5,1174.03 2189.76,1173.68C2190.16,1173.14 2190.37,1172.48 2190.73,1171.91C2190.78,1171.83 2191.09,1171.32 2191.24,1171.55C2191.43,1171.83 2191.13,1172.14 2190.94,1172.33C2190.51,1172.76 2190.09,1173.2 2189.65,1173.64C2189.09,1174.2 2188.62,1174.88 2188.05,1175.44C2187.87,1175.62 2187.75,1175.87 2187.53,1176.02C2187,1176.38 2186.45,1176.67 2185.9,1176.99C2185.54,1177.2 2185.23,1177.54 2184.87,1177.76C2184.35,1178.09 2183.99,1178.42 2183.41,1178.65C2183.3,1178.69 2183.14,1178.88 2183.03,1178.88C2182.99,1178.88 2183.12,1178.83 2183.15,1178.8C2183.19,1178.76 2183.22,1178.68 2183.26,1178.63C2183.38,1178.46 2183.48,1178.28 2183.63,1178.13C2184.04,1177.72 2184.36,1177.2 2184.76,1176.79C2184.86,1176.7 2185.07,1176.58 2185.21,1176.58C2185.31,1176.58 2185.56,1176.62 2185.49,1176.55C2185.46,1176.52 2185.24,1176.55 2185.2,1176.55C2185.05,1176.55 2184.17,1176.69 2184.12,1176.88C2184.08,1176.99 2184.15,1177.47 2183.99,1177.47" style="fill:none;stroke:rgb(17,17,17);stroke-width:1px;"/>
                        </g>
                        <g transform="matrix(1,0,0,0.841611,0,-755.766)">
                            <path d="M2167.31,1182.66C2167.33,1182.63 2167.32,1182.79 2167.32,1182.82C2167.32,1182.92 2167.32,1183.03 2167.32,1183.13C2167.32,1183.45 2167.29,1183.74 2167.24,1184.05C2167.05,1185.11 2166.51,1186.06 2165.99,1186.98C2165.8,1187.31 2165.71,1187.75 2165.53,1188.03C2165.5,1188.07 2165.34,1188.3 2165.39,1188.35C2165.42,1188.39 2165.42,1188.24 2165.42,1188.23" style="fill:none;stroke:rgb(17,17,17);stroke-width:1px;"/>
                        </g>
                        <g transform="matrix(1,0,0,0.841611,0,-755.766)">
                            <path d="M2165.42,1188.19C2165.42,1188.96 2166.03,1189.59 2166.42,1190.2C2166.66,1190.59 2166.8,1191.01 2167.11,1191.37C2167.56,1191.89 2168.14,1192.27 2168.65,1192.71C2169.21,1193.2 2169.75,1193.69 2170.41,1194.02C2170.79,1194.21 2171.63,1194.07 2172.02,1194C2172.32,1193.95 2172.29,1193.7 2172.46,1193.58C2172.66,1193.45 2172.94,1193.46 2173.13,1193.31C2173.63,1192.94 2173.47,1192.37 2172.95,1192.26C2172.54,1192.17 2171.86,1192.43 2171.51,1192.6C2171.2,1192.75 2170.62,1192.64 2170.32,1192.56C2170.15,1192.52 2169.84,1192.5 2169.72,1192.38C2169.49,1192.15 2168.98,1191.98 2168.82,1191.67C2168.72,1191.46 2168.65,1191.11 2168.61,1190.87C2168.56,1190.62 2168.52,1190.42 2168.52,1190.15C2168.52,1190.06 2168.42,1189.8 2168.42,1189.88" style="fill:none;stroke:rgb(17,17,17);stroke-width:1px;"/>
                        </g>
                        <g transform="matrix(1,0,0,0.841611,0,-755.766)">
                            <path d="M2165.73,1188C2165.73,1188.47 2166.41,1189.04 2166.67,1189.4C2167.44,1190.46 2168.49,1191.77 2169.75,1192.27C2170.27,1192.48 2170.72,1192.82 2171.28,1192.93C2171.44,1192.96 2171.67,1192.99 2171.84,1192.96C2171.93,1192.94 2172.11,1192.76 2172.12,1192.86C2172.13,1192.89 2171.61,1192.98 2171.57,1192.98C2171.14,1193.03 2170.27,1192.78 2169.92,1193.13C2169.89,1193.15 2170.38,1193.19 2170.43,1193.2C2170.78,1193.23 2171.06,1193.33 2171.41,1193.33" style="fill:none;stroke:rgb(17,17,17);stroke-width:1px;"/>
                        </g>
                        <g transform="matrix(1,0,0,0.841611,0,-755.766)">
                            <path d="M2175.12,1191.05C2175.12,1191.42 2175.12,1191.79 2175.12,1192.16C2175.12,1192.26 2175.07,1192.51 2175.12,1192.61C2175.17,1192.72 2175.35,1192.82 2175.44,1192.91C2175.76,1193.23 2176.26,1193.68 2176.77,1193.43C2177.02,1193.3 2177.02,1192.99 2177.2,1192.81C2177.69,1192.31 2178.22,1191.96 2178.66,1191.35C2178.8,1191.15 2179.02,1190.99 2179.18,1190.8C2179.6,1190.3 2179.93,1189.69 2180.45,1189.27C2181.07,1188.77 2181.62,1188.33 2182.14,1187.71C2182.65,1187.11 2182.78,1186.23 2183.33,1185.68" style="fill:none;stroke:rgb(17,17,17);stroke-width:1px;"/>
                        </g>
                        <g transform="matrix(1,0,0,0.841611,0,-755.766)">
                            <path d="M2175.27,1190.88C2175.39,1190.88 2175.64,1190.64 2175.75,1190.58C2176.12,1190.37 2176.52,1190.22 2176.89,1190.02C2178.56,1189.08 2180.03,1187.83 2181.51,1186.65C2181.95,1186.29 2182.12,1185.71 2182.56,1185.34C2182.64,1185.27 2183.03,1184.93 2183.03,1184.82" style="fill:none;stroke:rgb(17,17,17);stroke-width:1px;"/>
                        </g>
                        <g transform="matrix(1,0,0,0.841611,0,-755.766)">
                            <path d="M2182.01,1179.26C2182,1179.25 2182.14,1179.25 2182.18,1179.25C2182.28,1179.25 2182.47,1179.25 2182.55,1179.29C2182.7,1179.37 2182.96,1179.3 2183.08,1179.41C2183.12,1179.46 2183.1,1179.84 2183.1,1179.91C2183.27,1181.11 2183.1,1182.39 2183.1,1183.62C2183.1,1184.07 2183.12,1184.66 2182.95,1185.07C2182.93,1185.12 2182.83,1185.55 2182.76,1185.49" style="fill:none;stroke:rgb(17,17,17);stroke-width:1px;"/>
                        </g>
                        <g transform="matrix(1,0,0,0.841611,0,-755.766)">
                            <path d="M2175.91,1191.39C2175.91,1191.56 2175.87,1191.79 2175.92,1191.95C2175.97,1192.1 2176.04,1192.23 2176.08,1192.38C2176.2,1192.8 2176.54,1192.77 2176.81,1192.5C2177.21,1192.1 2177.32,1191.44 2177.72,1191.02C2177.74,1191.01 2177.57,1191.04 2177.55,1191.05C2177.46,1191.09 2177.37,1191.12 2177.27,1191.14C2177,1191.21 2176.77,1191.29 2176.53,1191.41C2176.49,1191.43 2176.34,1191.57 2176.3,1191.53C2176.25,1191.48 2176.42,1191.32 2176.45,1191.3C2176.73,1191.09 2177.01,1190.86 2177.29,1190.65C2177.71,1190.33 2177.99,1189.91 2178.48,1189.71C2178.52,1189.69 2178.86,1189.5 2178.86,1189.5C2178.91,1189.55 2178.59,1189.94 2178.56,1189.98C2178.25,1190.34 2178.05,1190.55 2178.05,1191.03C2178.05,1191.11 2178.08,1190.88 2178.1,1190.81C2178.14,1190.68 2178.19,1190.52 2178.28,1190.43C2178.7,1190 2179.08,1189.53 2179.5,1189.11C2180.36,1188.25 2181.39,1187.5 2182.05,1186.48C2182.38,1185.98 2182.8,1185.55 2183.11,1185.04C2183.16,1184.94 2183.56,1184.29 2183.54,1184.29" style="fill:none;stroke:rgb(17,17,17);stroke-width:1px;"/>
                        </g>
                        <g transform="matrix(1,0,0,0.841611,0,-755.766)">
                            <path d="M2134.2,1180.73C2132.74,1180.73 2131.88,1181.76 2130.83,1182.59C2130.07,1183.19 2129.25,1183.72 2128.5,1184.35C2128.25,1184.56 2128.1,1184.88 2127.84,1185.1C2127.1,1185.73 2126.35,1186.51 2125.5,1187C2125.32,1187.11 2125.18,1187.03 2125,1187.08C2124.37,1187.24 2123.84,1187.16 2123.37,1186.69C2123.25,1186.57 2122.87,1186 2122.75,1186" style="fill:none;stroke:rgb(17,17,17);stroke-width:1px;"/>
                        </g>
                        <g transform="matrix(1,0,0,0.841611,0,-755.766)">
                            <path d="M2125.03,1186.66C2125.03,1186.57 2125.19,1186.58 2125.27,1186.53C2125.37,1186.44 2125.47,1186.35 2125.57,1186.26C2126.03,1185.87 2126.47,1185.53 2127,1185.25C2127.15,1185.18 2127.01,1184.99 2127.29,1184.99" style="fill:none;stroke:rgb(17,17,17);stroke-width:1px;"/>
                        </g>
                        <g transform="matrix(1,0,0,0.841611,0,-755.766)">
                            <path d="M2134.59,1180.81C2134.65,1180.74 2134.91,1181.32 2134.94,1181.38C2135,1181.51 2135.44,1181.6 2135.44,1181.72" style="fill:none;stroke:rgb(17,17,17);stroke-width:1px;"/>
                        </g>
                        <g transform="matrix(1,0,0,0.841611,0,-755.766)">
                            <path d="M2136.54,1190.95C2135.93,1190.95 2135.49,1191.17 2134.94,1191.34C2134.9,1191.35 2134.66,1191.37 2134.64,1191.39C2134.63,1191.4 2134.88,1191.58 2134.91,1191.61C2135.04,1191.74 2135.11,1192 2135.17,1192.17C2135.45,1193.01 2136,1193.81 2136,1194.71C2136,1195.34 2136.02,1195.96 2136.09,1196.57C2136.12,1196.78 2136.19,1196.97 2136.23,1197.17C2136.24,1197.24 2136.25,1197.31 2136.26,1197.38C2136.27,1197.42 2136.28,1197.53 2136.28,1197.49C2136.28,1196.11 2136.12,1194.71 2136.02,1193.34C2135.99,1192.87 2135.99,1192.39 2135.99,1191.92C2135.99,1191.85 2135.94,1191.22 2135.91,1191.26C2135.83,1191.33 2135.83,1191.66 2135.83,1191.77C2135.83,1192.34 2135.89,1192.79 2136.07,1193.34C2136.27,1193.99 2136.31,1194.7 2136.37,1195.37C2136.44,1196.12 2136.55,1196.83 2136.55,1197.57C2136.55,1198 2136.35,1198.51 2136.46,1198.93C2136.5,1199.08 2136.53,1199.24 2136.58,1199.39C2136.59,1199.42 2136.67,1199.62 2136.66,1199.62" style="fill:none;stroke:rgb(17,17,17);stroke-width:1px;"/>
                        </g>
                        <g transform="matrix(1,0,0,0.841611,0,-755.766)">
                            <path d="M2161.13,1192.4C2161.09,1192.4 2161.32,1192.18 2161.34,1192.16C2161.51,1191.96 2161.72,1191.81 2161.89,1191.61C2162.25,1191.17 2162.63,1190.76 2163.06,1190.32C2163.11,1190.28 2163.47,1189.9 2163.54,1189.96C2163.61,1190.03 2163.54,1190.58 2163.54,1190.68C2163.54,1191.38 2163.54,1192.08 2163.54,1192.78C2163.54,1194.21 2163.44,1195.68 2163.55,1197.1C2163.62,1198.05 2163.76,1199.27 2163.53,1200.19C2163.45,1200.52 2163.52,1200.91 2163.48,1201.25C2163.45,1201.46 2163.37,1201.63 2163.33,1201.83C2163.31,1201.92 2163.27,1202.31 2163.17,1202.35C2162.72,1202.59 2162.76,1201.8 2162.76,1201.58C2162.76,1201.15 2162.91,1200.67 2163.01,1200.26C2163.11,1199.86 2163.11,1199.43 2163.2,1199.04C2163.3,1198.67 2163.21,1198.24 2163.26,1197.86C2163.39,1196.85 2163.24,1195.77 2163.24,1194.76C2163.24,1194.28 2163.08,1193.64 2163.26,1193.25C2163.32,1193.11 2163.35,1192.88 2163.37,1192.73C2163.4,1192.55 2163.41,1192.56 2163.45,1192.38C2163.52,1192.05 2163.52,1191.76 2163.52,1191.42C2163.52,1191.35 2163.51,1191.13 2163.44,1191.09C2163.4,1191.07 2163.1,1191.03 2163.06,1191.07C2163,1191.13 2163.08,1191.41 2163.08,1191.49C2163.08,1191.98 2163.12,1192.47 2163.12,1192.97C2163.12,1193 2163.14,1193.57 2163.1,1193.57" style="fill:none;stroke:rgb(17,17,17);stroke-width:1px;"/>
                        </g>
                        <g transform="matrix(1,0,0,0.841611,0,-755.766)">
                            <path d="M2162.57,1191.38C2162.57,1191.79 2162.08,1192.33 2161.77,1192.54C2161.71,1192.57 2161.47,1192.8 2161.41,1192.74C2161.3,1192.63 2161.42,1192.32 2161.33,1192.24C2161.22,1192.14 2161.4,1191.85 2161.45,1191.75C2161.68,1191.27 2162.07,1190.93 2162.41,1190.49C2162.53,1190.32 2162.82,1189.8 2163.03,1189.8" style="fill:none;stroke:rgb(17,17,17);stroke-width:1px;"/>
                        </g>
                    </g>
                </g>
                <g transform="matrix(0.506898,0,0,0.202908,55.5803,-278.321)">
                    <path d="M3855.99,2165.98C3855.99,2167.7 3846.25,2169.1 3834.24,2169.1C3822.24,2169.1 3812.49,2167.7 3812.49,2165.98" style="fill:none;stroke:black;stroke-width:1.68px;"/>
                </g>
            </g>
        </g>
    </g>
</svg>
