<?xml version="1.0" encoding="UTF-8" standalone="no"?>
<!DOCTYPE svg PUBLIC "-//W3C//DTD SVG 1.1//EN" "http://www.w3.org/Graphics/SVG/1.1/DTD/svg11.dtd">
<svg width="100%" height="100%" viewBox="0 0 85 63" version="1.1" xmlns="http://www.w3.org/2000/svg" xmlns:xlink="http://www.w3.org/1999/xlink" xml:space="preserve" xmlns:serif="http://www.serif.com/" style="fill-rule:evenodd;clip-rule:evenodd;stroke-linecap:round;stroke-linejoin:round;stroke-miterlimit:1.5;">
    <g transform="matrix(1,0,0,1,-6384.25,-2525.59)">
        <g transform="matrix(0.0386102,0,0,31.6458,6268.58,1382.63)">
            <g transform="matrix(15.6321,0,0,0.0323799,-24233.1,19.8122)">
                <g transform="matrix(1,0,0,1,-73.5626,78.3885)">
                    <g id="shading">
                        <g transform="matrix(0.966131,0,0,0.569066,-179.791,-2118.81)">
                            <path d="M2074.12,4508.87C2074.12,4508.55 2074.1,4508.22 2074.08,4507.9C2074.07,4507.75 2074.03,4507.29 2074.05,4507.44C2074.47,4510.94 2077.24,4514.07 2078.73,4517.2C2081.16,4522.3 2083.08,4527.66 2085.67,4532.68C2086.51,4534.31 2087.56,4535.82 2088.49,4537.41C2089.58,4539.29 2090.57,4541.21 2091.53,4543.16C2091.85,4543.81 2092.2,4544.45 2092.57,4545.08C2092.69,4545.29 2092.81,4545.5 2092.94,4545.71C2092.99,4545.8 2093.1,4546.08 2093.11,4545.98C2093.24,4544.03 2092.86,4541.55 2091.92,4539.8C2091.24,4538.51 2090.12,4537.55 2089.23,4536.41C2088.09,4534.95 2087.1,4533.35 2086.22,4531.72C2084.05,4527.7 2083.58,4523.1 2081.46,4519.07C2081.14,4518.47 2080.8,4517.89 2080.46,4517.3C2079.6,4515.79 2078.91,4514.2 2078.24,4512.6C2078.03,4512.1 2077.52,4511.2 2077.54,4510.63C2077.57,4510.04 2078.44,4509.45 2078.91,4509.22C2079.93,4508.73 2080.69,4509.2 2081.42,4510.03C2082.61,4511.38 2083.27,4513.25 2083.63,4514.99C2083.97,4516.69 2082.75,4518.18 2083.07,4519.83C2084.12,4525.05 2086.92,4529.35 2089.42,4533.92C2090.36,4535.62 2091.34,4537.41 2092.59,4538.91C2093.05,4539.46 2093.53,4540.18 2094.23,4540.44C2094.66,4540.6 2095.13,4540.67 2095.59,4540.67C2099.75,4540.67 2097.47,4535.16 2097.12,4532.91C2097.01,4532.15 2096.89,4531.39 2096.78,4530.64C2096.65,4529.75 2096.51,4528.87 2096.41,4527.99C2096.37,4527.66 2095.97,4527.04 2096.3,4527.02C2097.23,4526.93 2098.63,4528.19 2099.19,4528.8C2099.79,4529.44 2099.84,4530.61 2100.2,4531.42C2100.87,4532.94 2101.9,4534.34 2103.19,4535.39C2104.28,4536.3 2105.56,4537.02 2106.94,4537.37C2107.36,4537.48 2107.78,4537.57 2108.21,4537.65C2108.45,4537.69 2109.07,4537.97 2108.92,4537.77C2108.04,4536.54 2106.72,4535.45 2105.63,4534.4C2103.27,4532.14 2100.81,4529.96 2098.75,4527.41C2097.74,4526.16 2096.18,4524.44 2095.89,4522.77C2095.8,4522.25 2096.53,4521.55 2096.76,4521.16C2097.32,4520.23 2097.69,4519.27 2097.56,4518.16C2097.34,4516.23 2095.89,4515.85 2094.39,4514.92C2093.19,4514.19 2092.07,4513.28 2091.01,4512.37C2090.2,4511.67 2089.4,4510.86 2088.83,4509.95C2088.65,4509.67 2088.55,4509.37 2088.49,4509.04C2088.47,4508.86 2088.51,4508.34 2088.46,4508.51C2088.03,4509.97 2087.73,4511.45 2087.5,4512.95C2086.92,4516.69 2086.74,4520.42 2085.9,4524.12C2085.61,4525.4 2084.77,4527.37 2085.35,4528.63C2086.08,4530.19 2087.47,4531.1 2088.66,4532.3C2089.91,4533.56 2090.95,4535.03 2091.92,4536.52C2092.64,4537.62 2093.28,4538.79 2094.13,4539.8C2094.47,4540.2 2094.87,4540.53 2095.3,4540.83C2095.31,4540.84 2095.69,4541.08 2095.7,4541.08C2096,4540.44 2095.88,4538.55 2095.88,4538.47C2095.92,4536.89 2095.84,4535.27 2095.68,4533.7C2095.59,4532.83 2095.44,4531.98 2095.28,4531.12C2095.24,4530.93 2095.21,4530.74 2095.17,4530.55C2095.13,4530.36 2095.1,4529.8 2095.05,4529.98C2094.52,4532 2094.16,4534.07 2093.98,4536.15C2093.92,4536.87 2093.85,4537.6 2093.86,4538.32C2093.87,4538.53 2093.88,4538.74 2093.9,4538.95C2093.91,4539.09 2093.99,4539.51 2093.94,4539.38C2092.14,4535.17 2091.58,4530.5 2091.23,4525.98C2091.13,4524.56 2091.1,4523.15 2090.96,4521.74C2090.92,4521.39 2090.88,4521.05 2090.84,4520.7C2090.81,4520.47 2090.72,4519.78 2090.74,4520.01C2091.01,4522.8 2091.28,4525.6 2091.79,4528.36C2091.95,4529.21 2092.12,4530.05 2092.35,4530.88C2092.43,4531.16 2092.51,4531.45 2092.61,4531.73C2092.65,4531.86 2092.76,4532.26 2092.76,4532.12C2092.63,4527.02 2091.75,4521.89 2091.12,4516.82C2090.89,4514.97 2090.68,4513.07 2090.37,4511.22C2090.26,4510.54 2090.15,4509.84 2089.98,4509.16C2089.92,4508.89 2089.84,4508.61 2089.75,4508.34C2089.68,4508.15 2089.57,4507.6 2089.52,4507.79C2087.86,4513.3 2089.95,4519.07 2090.35,4524.58C2090.47,4526.32 2090.53,4528.06 2090.63,4529.79C2090.66,4530.39 2090.7,4530.99 2090.73,4531.58C2090.74,4531.76 2090.75,4531.94 2090.76,4532.12C2090.76,4532.21 2090.83,4532.47 2090.77,4532.4C2088.43,4529.33 2087.08,4525.34 2086.62,4521.53C2086.47,4520.19 2086.41,4518.85 2086.38,4517.51C2086.37,4517.09 2086.37,4516.66 2086.36,4516.24C2086.36,4516.04 2086.26,4515.45 2086.37,4515.62C2087.96,4518.15 2088.9,4521.03 2089.46,4523.95C2089.65,4524.92 2089.78,4525.89 2089.9,4526.87C2089.94,4527.2 2089.98,4527.53 2090.01,4527.86C2090.03,4528.04 2090.21,4528.54 2090.07,4528.42C2089.66,4528.06 2089.46,4526.48 2089.36,4525.97C2088.79,4523.27 2088.54,4520.28 2088.67,4517.52C2088.75,4515.94 2089.07,4514.48 2089.82,4513.08C2089.83,4513.06 2090.49,4511.95 2090.51,4511.97C2091.84,4513.02 2092.27,4515.59 2092.5,4517.13C2093.16,4521.55 2092.73,4526.05 2093.31,4530.47" style="fill:none;stroke:rgb(246,246,246);stroke-width:2.5px;"/>
                        </g>
                        <g transform="matrix(0.966131,0,0,0.569066,-179.791,-2118.81)">
                            <path d="M2081.05,4550.62C2081.21,4553.29 2081.64,4555.76 2082.04,4558.39C2082.73,4562.99 2083.7,4567.81 2087.28,4571.13C2089.75,4573.43 2092.7,4573.55 2095.91,4573.12C2096.65,4573.03 2097.39,4572.92 2098.14,4572.82C2098.2,4572.81 2098.79,4572.77 2098.8,4572.73C2098.97,4572.14 2098.75,4571.14 2098.72,4570.5C2098.62,4568.5 2098.43,4566.57 2098.14,4564.57C2097.69,4561.45 2097.89,4558.14 2097.82,4554.99C2097.79,4553.71 2097.71,4552.43 2097.65,4551.15C2097.62,4550.4 2097.77,4549.9 2097.15,4549.44C2095.43,4548.15 2093.08,4548.51 2091.12,4548.82C2088.81,4549.19 2086.54,4549.73 2084.23,4550.1C2082.82,4550.32 2081.2,4550.32 2079.84,4550.76C2079.73,4550.8 2080.07,4550.76 2080.19,4550.76C2080.34,4550.76 2080.48,4550.76 2080.63,4550.76C2081.13,4550.75 2081.72,4550.69 2082.19,4550.89C2083.37,4551.4 2083.85,4553.11 2083.93,4554.3C2084.01,4555.4 2083.43,4556.52 2083.51,4557.67C2083.84,4562.32 2085.73,4566.16 2088.67,4569.7C2090.17,4571.51 2091.51,4572.27 2093.91,4572.24C2094.76,4572.23 2095.65,4572.16 2096.34,4571.6C2097.91,4570.33 2097.05,4568.39 2096.59,4566.8C2095.49,4563.01 2095.92,4559.1 2095.78,4555.21C2095.73,4554.08 2096.07,4551.18 2094.95,4550.53C2093.02,4549.42 2090.3,4551.02 2088.38,4551.66C2087.62,4551.92 2086.84,4552.11 2086.06,4552.29C2085.8,4552.35 2085.55,4552.4 2085.3,4552.45C2085.18,4552.47 2084.89,4552.4 2084.95,4552.5C2085.93,4554.32 2086.53,4556.19 2086.44,4558.27C2086.39,4559.59 2085.81,4560.94 2086.06,4562.27C2086.49,4564.54 2088.18,4566.49 2089.66,4568.2C2091.05,4569.81 2093.01,4571.74 2095.36,4571.07C2095.81,4570.94 2095.29,4569.62 2095.18,4569.29C2094.62,4567.42 2094.36,4565.46 2094.06,4563.53C2093.62,4560.69 2093.53,4557.88 2093.62,4555.03C2093.65,4554.32 2093.68,4553.62 2093.68,4552.92C2093.68,4552.86 2093.71,4552.37 2093.66,4552.35C2092.09,4551.63 2089.9,4552.31 2088.41,4553.01C2086.44,4553.94 2083.61,4556.22 2084.57,4558.8C2085.23,4560.56 2087.24,4562.22 2088.4,4563.67C2089.31,4564.81 2090.23,4565.95 2091.26,4566.98C2091.6,4567.32 2091.96,4567.64 2092.32,4567.96C2092.5,4568.12 2092.92,4568.66 2092.85,4568.44C2091.72,4564.85 2090.41,4561.69 2090.1,4557.88C2090,4556.67 2090.05,4555.48 2090.17,4554.27C2090.21,4553.85 2090.25,4553.43 2090.3,4553.02C2090.33,4552.79 2090.32,4552.12 2090.39,4552.34C2091.26,4555.12 2092.15,4557.9 2093,4560.69C2093.28,4561.6 2093.54,4562.5 2093.77,4563.42C2093.85,4563.75 2093.93,4564.08 2094,4564.41C2094.03,4564.53 2094.15,4564.9 2094.09,4564.78C2092.87,4562.55 2091.97,4560.16 2091.39,4557.68C2091.21,4556.91 2091.08,4556.13 2091.01,4555.34C2090.99,4555.09 2090.97,4554.84 2090.97,4554.59C2090.96,4554.44 2091.07,4554.01 2090.96,4554.12C2089.49,4555.62 2088.28,4557.45 2087.61,4559.46C2087.39,4560.13 2087.32,4560.81 2087.38,4561.52C2087.4,4561.75 2087.43,4561.97 2087.48,4562.2C2087.5,4562.31 2087.55,4562.66 2087.55,4562.54C2087.66,4559.36 2087.14,4556.17 2086.99,4553C2086.95,4551.96 2086.92,4550.92 2086.9,4549.89C2086.89,4549.48 2086.88,4549.07 2086.87,4548.65C2086.87,4548.48 2086.83,4547.97 2086.87,4548.14C2087.69,4551.71 2087.88,4555.38 2088.43,4558.99C2088.61,4560.19 2088.83,4561.39 2089.07,4562.58C2089.16,4562.99 2089.24,4563.4 2089.34,4563.81C2089.38,4564.02 2089.49,4564.66 2089.48,4564.44C2089.38,4562.39 2089.08,4560.33 2088.92,4558.28C2088.82,4556.99 2088.74,4555.7 2088.69,4554.41C2088.64,4552.79 2088.59,4551.18 2088.99,4549.6C2089,4549.55 2089.34,4548.31 2089.48,4548.34C2090.04,4548.43 2090.3,4549.13 2090.64,4549.59C2091.73,4551.06 2092.42,4552.79 2092.9,4554.54C2093.07,4555.18 2093.21,4555.83 2093.32,4556.48C2093.36,4556.71 2093.39,4556.94 2093.42,4557.16C2093.44,4557.3 2093.53,4557.69 2093.48,4557.57C2092.79,4555.69 2092.28,4553.24 2092.34,4551.19" style="fill:none;stroke:rgb(246,246,246);stroke-width:2.5px;"/>
                        </g>
                        <g transform="matrix(0.966131,0,0,0.569066,-179.791,-2118.81)">
                            <path d="M2098.73,4539.88C2099.78,4539.88 2101.01,4540.06 2102.04,4539.87C2102.78,4539.73 2103.43,4539.32 2104.13,4539.09C2104.79,4538.86 2105.32,4538.79 2105.9,4538.4C2106.52,4537.99 2107.19,4537.73 2107.88,4537.45C2108.11,4537.36 2108.33,4537.26 2108.56,4537.17C2108.67,4537.13 2109,4537.13 2108.9,4537.07C2106.92,4535.81 2103.84,4536.74 2102.22,4538.24" style="fill:none;stroke:rgb(246,246,246);stroke-width:2.5px;"/>
                        </g>
                        <g transform="matrix(0.966131,0,0,0.569066,-179.791,-2118.81)">
                            <path d="M2105.53,4532.37C2102.91,4530.59 2100.88,4528.17 2099.48,4525.32C2099.01,4524.38 2098.62,4523.38 2098.32,4522.37C2098.23,4522.04 2098.16,4521.7 2098.09,4521.36C2098.06,4521.25 2098.04,4521.14 2098.02,4521.03C2098.01,4520.98 2097.99,4520.82 2097.99,4520.88C2097.73,4522.39 2097.26,4523.78 2096.74,4525.22C2096.54,4525.79 2096.35,4526.36 2096.24,4526.95C2096.15,4527.39 2096.07,4527.84 2096.1,4528.28C2096.25,4530.38 2098.5,4530.63 2100.01,4531.12" style="fill:none;stroke:rgb(246,246,246);stroke-width:2.5px;"/>
                        </g>
                        <g transform="matrix(0.966131,0,0,0.569066,-179.791,-2118.81)">
                            <path d="M2074.19,4510.35C2074.7,4510.01 2075.24,4509.71 2075.81,4509.48C2079.61,4507.93 2080.72,4513.63 2081.33,4516.12" style="fill:none;stroke:rgb(246,246,246);stroke-width:2.5px;"/>
                        </g>
                    </g>
                    <g transform="matrix(0.966131,0,0,0.569066,-179.791,-2118.81)">
                        <path d="M2072.63,4507.29C2070.17,4512.98 2069.21,4519 2068.03,4525.04C2067.68,4526.81 2067.41,4528.6 2067.22,4530.39C2067.17,4530.95 2066.85,4532.05 2067.04,4532.61C2068.05,4535.54 2071.04,4537.53 2073.67,4538.82C2076.19,4540.05 2078.83,4541.02 2081.38,4542.19C2085.16,4543.92 2088.83,4545.79 2092.91,4546.74" style="fill:rgb(246,246,246);stroke:rgb(17,17,17);stroke-width:0.7px;"/>
                    </g>
                    <g transform="matrix(0.966131,0,0,0.569066,-179.791,-2118.81)">
                        <path d="M2092.93,4547.07C2094.25,4548.73 2099.05,4550.62 2099.62,4547.26C2099.72,4546.65 2099.29,4546.4 2099.22,4545.91C2099.05,4544.57 2099.53,4543.4 2099.03,4542.05C2098.93,4541.78 2098.77,4541.24 2098.52,4541.06C2097.81,4540.57 2096.68,4540.85 2095.93,4541.03C2095.68,4541.09 2095.42,4541.15 2095.16,4541.22C2095.03,4541.26 2094.62,4541.41 2094.74,4541.34C2095.18,4541.07 2095.71,4541.02 2096.16,4540.8C2096.43,4540.66 2096.56,4539.3 2096.52,4539.26C2096.38,4539.14 2096.14,4539.11 2095.86,4539.11C2094.62,4539.11 2093.39,4539.9 2092.27,4540.32" style="fill:rgb(246,246,246);stroke:rgb(17,17,17);stroke-width:0.7px;"/>
                    </g>
                    <g transform="matrix(0.966131,0,0,0.569066,-179.791,-2118.81)">
                        <path d="M2088.73,4508.28C2089.79,4512.91 2086.87,4520.52 2085.84,4525.21C2085.68,4525.91 2084.52,4530.5 2083.09,4529.56C2081.64,4528.61 2082.52,4524.98 2082.8,4523.9C2083.82,4520.04 2085.8,4514.96 2082.98,4511.31C2081.07,4508.83 2076.78,4508.4 2074.06,4507.26C2068.49,4504.9 2065.34,4499.27 2065.52,4493.3C2065.91,4481 2080.28,4476.93 2090.06,4481.47C2097.24,4484.8 2100.16,4492.75 2100.8,4500.15C2100.8,4502.76 2100.56,4505.8 2101.05,4508.38C2101.47,4510.64 2102.71,4512.59 2103.04,4514.91C2103.34,4517.08 2102.66,4518.97 2102.53,4521.1C2102.46,4522.19 2102.85,4523.47 2102.49,4524.52C2102.09,4525.68 2100.47,4525.16 2099.9,4524.44C2099.02,4523.32 2099.17,4521.99 2099.36,4520.69" style="fill:rgb(246,246,246);stroke:rgb(17,17,17);stroke-width:0.7px;"/>
                    </g>
                    <g transform="matrix(0.966131,0,0,0.569066,-179.791,-2118.81)">
                        <path d="M2088.97,4514.32C2092.99,4516.26 2093.63,4520.73 2093.19,4524.79C2092.98,4526.67 2092.14,4529.46 2093.62,4531.05C2094.06,4531.52 2095.09,4530.92 2095.48,4530.64C2096.81,4529.68 2097.54,4528.06 2097.7,4526.46C2098.08,4522.77 2096.16,4519.93 2095.21,4516.54C2094.65,4514.53 2094.74,4512.58 2094.37,4510.57" style="fill:rgb(246,246,246);stroke:rgb(17,17,17);stroke-width:0.7px;"/>
                    </g>
                    <g transform="matrix(0.966131,0,0,0.569066,-179.791,-2118.81)">
                        <path d="M2092.71,4508.05C2094.64,4510.13 2096.43,4512.67 2097.02,4515.48C2097.28,4516.68 2096.74,4519.9 2097.77,4520.76C2098.56,4521.42 2100.24,4519.62 2100.54,4519.12C2101.72,4517.17 2100.95,4514.54 2100.11,4512.63C2099.21,4510.58 2097.3,4508.64 2096.97,4506.39" style="fill:rgb(246,246,246);stroke:rgb(17,17,17);stroke-width:0.7px;"/>
                    </g>
                    <g>
                        <g transform="matrix(0.966131,0,0,0.569066,-179.791,-2118.81)">
                            <path d="M2085.36,4499.52C2085.03,4499.1 2084.61,4498.57 2084.09,4498.35C2082.96,4497.9 2081.87,4499.17 2081.7,4500.17C2081.49,4501.39 2082.49,4502.7 2083.62,4503.09C2084.6,4503.42 2085.6,4502.41 2085.78,4501.49C2086.06,4500.18 2084.77,4498.63 2083.4,4498.71C2082.47,4498.76 2081.87,4499.55 2081.82,4500.44C2081.81,4500.55 2081.74,4501.26 2081.88,4501.33C2082.49,4501.61 2083.25,4500.76 2083.42,4500.31C2083.5,4500.09 2083.51,4499.85 2083.53,4499.62C2083.54,4499.51 2083.46,4499.23 2083.56,4499.28C2083.72,4499.36 2083.89,4499.6 2083.99,4499.74C2084.48,4500.37 2084.49,4500.8 2084.01,4501.44C2083.87,4501.63 2083.52,4501.89 2083.53,4502.17C2083.53,4502.32 2084.51,4502.33 2084.67,4502.23C2085.2,4501.87 2085.03,4501.12 2084.87,4500.66C2084.52,4499.63 2083.35,4498.61 2082.23,4499.41C2081.97,4499.6 2082.01,4500.15 2082.02,4500.42C2082.04,4501.59 2082.88,4502.52 2084.04,4502.71" style="fill:rgb(246,246,246);stroke:rgb(17,17,17);stroke-width:0.7px;"/>
                        </g>
                        <g transform="matrix(0.966131,0,0,0.569066,-179.791,-2118.81)">
                            <path d="M2083.09,4501.9C2083.42,4501.45 2083.81,4500.97 2084.01,4500.44C2084.11,4500.19 2084.2,4499.66 2084.48,4499.53C2084.52,4499.51 2084.72,4499.73 2084.75,4499.77C2085.02,4500.06 2085.2,4500.43 2085.31,4500.81C2085.48,4501.38 2085.69,4502.49 2085.11,4502.92C2084.78,4503.17 2084.58,4502.92 2084.25,4502.79C2084.01,4502.7 2083.75,4502.69 2083.52,4502.59C2083.16,4502.43 2083.01,4501.98 2082.93,4501.63" style="fill:rgb(246,246,246);stroke:rgb(17,17,17);stroke-width:0.7px;"/>
                        </g>
                    </g>
                    <g transform="matrix(1,0,0,1,10.7304,-1.06393)">
                        <g transform="matrix(0.966131,0,0,0.569066,-179.791,-2118.81)">
                            <path d="M2085.36,4499.52C2085.03,4499.1 2084.61,4498.57 2084.09,4498.35C2082.96,4497.9 2081.87,4499.17 2081.7,4500.17C2081.49,4501.39 2082.49,4502.7 2083.62,4503.09C2084.6,4503.42 2085.6,4502.41 2085.78,4501.49C2086.06,4500.18 2084.77,4498.63 2083.4,4498.71C2082.47,4498.76 2081.87,4499.55 2081.82,4500.44C2081.81,4500.55 2081.74,4501.26 2081.88,4501.33C2082.49,4501.61 2083.25,4500.76 2083.42,4500.31C2083.5,4500.09 2083.51,4499.85 2083.53,4499.62C2083.54,4499.51 2083.46,4499.23 2083.56,4499.28C2083.72,4499.36 2083.89,4499.6 2083.99,4499.74C2084.48,4500.37 2084.49,4500.8 2084.01,4501.44C2083.87,4501.63 2083.52,4501.89 2083.53,4502.17C2083.53,4502.32 2084.51,4502.33 2084.67,4502.23C2085.2,4501.87 2085.03,4501.12 2084.87,4500.66C2084.52,4499.63 2083.35,4498.61 2082.23,4499.41C2081.97,4499.6 2082.01,4500.15 2082.02,4500.42C2082.04,4501.59 2082.88,4502.52 2084.04,4502.71" style="fill:rgb(246,246,246);stroke:rgb(17,17,17);stroke-width:0.7px;"/>
                        </g>
                        <g transform="matrix(0.966131,0,0,0.569066,-179.791,-2118.81)">
                            <path d="M2083.09,4501.9C2083.42,4501.45 2083.81,4500.97 2084.01,4500.44C2084.11,4500.19 2084.2,4499.66 2084.48,4499.53C2084.52,4499.51 2084.72,4499.73 2084.75,4499.77C2085.02,4500.06 2085.2,4500.43 2085.31,4500.81C2085.48,4501.38 2085.69,4502.49 2085.11,4502.92C2084.78,4503.17 2084.58,4502.92 2084.25,4502.79C2084.01,4502.7 2083.75,4502.69 2083.52,4502.59C2083.16,4502.43 2083.01,4501.98 2082.93,4501.63" style="fill:rgb(246,246,246);stroke:rgb(17,17,17);stroke-width:0.7px;"/>
                        </g>
                    </g>
                    <g transform="matrix(0.966131,0,0,0.569066,-179.791,-2118.81)">
                        <path d="M2092.97,4547.28C2092.84,4545.72 2092.73,4544.14 2092.53,4542.57C2092.39,4541.59 2092.14,4540.57 2092.64,4539.66" style="fill:rgb(246,246,246);stroke:rgb(17,17,17);stroke-width:0.7px;"/>
                    </g>
                    <g transform="matrix(0.966131,0,0,0.569066,-179.791,-2118.81)">
                        <path d="M2093.62,4539.99C2086.76,4537.5 2080.49,4533.64 2073.52,4531.42" style="fill:rgb(246,246,246);stroke:rgb(17,17,17);stroke-width:0.7px;"/>
                    </g>
                    <g transform="matrix(0.966131,0,0,0.569066,-179.791,-2118.81)">
                        <path d="M2075.03,4532.03C2076.65,4529.13 2077.77,4525.56 2078.47,4522.29" style="fill:rgb(246,246,246);stroke:rgb(17,17,17);stroke-width:0.7px;"/>
                    </g>
                    <g transform="matrix(0.966131,0,0,0.569066,-179.791,-2118.81)">
                        <path d="M2096.34,4540.7C2096.35,4540.34 2096.3,4539.87 2096.48,4539.53C2096.72,4539.08 2097.34,4538.73 2097.85,4538.66C2098.96,4538.53 2100.11,4538.73 2101.22,4538.79" style="fill:rgb(246,246,246);stroke:rgb(17,17,17);stroke-width:0.7px;"/>
                    </g>
                    <g transform="matrix(0.966131,0,0,0.569066,-179.791,-2118.81)">
                        <path d="M2101.44,4540.81C2100.43,4540.81 2099.44,4540.9 2098.44,4540.97" style="fill:rgb(246,246,246);stroke:rgb(17,17,17);stroke-width:0.7px;"/>
                    </g>
                    <g transform="matrix(0.966131,0,0,0.569066,-179.791,-2118.81)">
                        <path d="M2099.44,4546.62C2100.3,4546.65 2101.17,4546.67 2102.03,4546.73" style="fill:rgb(246,246,246);stroke:rgb(17,17,17);stroke-width:0.7px;"/>
                    </g>
                    <g transform="matrix(0.966131,0,0,0.569066,-179.791,-2118.81)">
                        <path d="M2099.62,4548.41C2100.89,4548.41 2101.57,4548.28 2102.82,4548.41" style="fill:rgb(246,246,246);stroke:rgb(17,17,17);stroke-width:0.7px;"/>
                    </g>
                    <g transform="matrix(0.966131,0,0,0.569066,-179.791,-2118.81)">
                        <path d="M2100.97,4525.77C2103.52,4529.49 2107.29,4531.84 2111.04,4534.16C2111.99,4534.76 2112.96,4535.32 2113.92,4535.9C2113.97,4535.93 2114.84,4536.38 2114.83,4536.45C2114.7,4537.21 2113.34,4538.48 2112.93,4539.25C2112.7,4539.68 2112.5,4540.13 2112.33,4540.59C2112.24,4540.83 2112.34,4541.37 2112.1,4541.31C2111.84,4541.25 2111.41,4540.67 2111.19,4540.47" style="fill:rgb(246,246,246);stroke:rgb(17,17,17);stroke-width:0.7px;"/>
                    </g>
                    <g transform="matrix(0.966131,0,0,0.569066,-179.791,-2118.81)">
                        <path d="M2101.51,4538.1C2101.54,4540.4 2102.02,4542.79 2102.27,4545.08C2102.38,4546.15 2102.37,4547.69 2102.99,4548.64C2103.39,4549.24 2104.16,4549.48 2104.83,4549.6C2106.24,4549.85 2108.11,4550.04 2109.47,4549.41C2111.49,4548.48 2111.46,4546.17 2111.23,4544.26C2111.12,4543.36 2110.95,4542.47 2110.8,4541.57C2110.47,4539.58 2110.16,4537.26 2108.09,4536.34C2107.72,4536.18 2107.33,4536.06 2106.94,4535.99C2105.39,4535.73 2103.84,4536.15 2102.52,4536.94C2102.13,4537.17 2101.36,4537.72 2101.56,4538.24C2101.9,4539.11 2103.03,4539.29 2103.84,4539.35C2105.68,4539.49 2107.78,4539.25 2109.15,4537.85" style="fill:rgb(246,246,246);stroke:rgb(17,17,17);stroke-width:0.7px;"/>
                    </g>
                    <g transform="matrix(0.966131,0,0,0.569066,-179.791,-2118.81)">
                        <path d="M2102.64,4538.9C2102.98,4538.64 2103.34,4538.36 2103.73,4538.18" style="fill:none;stroke:rgb(17,17,17);stroke-width:1px;"/>
                    </g>
                    <g transform="matrix(0.966131,0,0,0.569066,-179.791,-2118.81)">
                        <path d="M2103.74,4538.23C2104.71,4537.87 2105.76,4537.85 2106.77,4537.9C2107.04,4537.91 2107.3,4537.97 2107.55,4538.07C2107.57,4538.08 2107.77,4538.18 2107.77,4538.18C2107.61,4538.42 2107.18,4538.48 2106.92,4538.51C2106.56,4538.56 2106.19,4538.47 2105.83,4538.45C2105.39,4538.42 2104.94,4538.45 2104.49,4538.5C2104.27,4538.53 2104.05,4538.56 2103.83,4538.58C2103.76,4538.59 2103.46,4538.58 2103.65,4538.65C2103.67,4538.66 2103.69,4538.67 2103.71,4538.68C2103.73,4538.68 2103.75,4538.69 2103.77,4538.7C2103.84,4538.72 2103.9,4538.73 2103.96,4538.74C2104.07,4538.77 2104.18,4538.78 2104.3,4538.79C2104.46,4538.81 2104.62,4538.82 2104.78,4538.83C2105.09,4538.85 2105.39,4538.91 2105.69,4538.94" style="fill:none;stroke:rgb(17,17,17);stroke-width:1px;"/>
                    </g>
                    <g transform="matrix(0.966131,0,0,0.569066,-179.791,-2118.81)">
                        <path d="M2103,4536.67C2101.01,4534.46 2099.13,4532.29 2097.39,4529.89" style="fill:rgb(246,246,246);stroke:rgb(17,17,17);stroke-width:0.7px;"/>
                    </g>
                    <g transform="matrix(0.966131,0,0,0.569066,-179.791,-2118.81)">
                        <path d="M2098.07,4530.96C2098.4,4533.4 2098.81,4535.82 2099.07,4538.26" style="fill:rgb(246,246,246);stroke:rgb(17,17,17);stroke-width:0.7px;"/>
                    </g>
                    <g transform="matrix(0.966131,0,0,0.569066,-179.791,-2118.81)">
                        <path d="M2075.68,4540.36C2075.84,4542.97 2076.02,4545.57 2076.16,4548.18C2076.18,4548.56 2076.04,4550.57 2076.33,4550.8C2076.5,4550.93 2077.32,4550.66 2077.52,4550.61C2078.84,4550.3 2080.1,4549.76 2081.42,4549.43C2085.95,4548.3 2090.55,4548.59 2095.17,4548.57" style="fill:rgb(246,246,246);stroke:rgb(17,17,17);stroke-width:0.7px;"/>
                    </g>
                    <g transform="matrix(0.966131,0,0,0.569066,-179.791,-2118.81)">
                        <path d="M2078.95,4551.07C2081.32,4557.45 2081.44,4564.53 2082.08,4571.28C2082.23,4572.88 2082.56,4574.44 2082.85,4576.01C2082.86,4576.12 2083.08,4577.57 2083.12,4577.56C2086.14,4577.56 2089.19,4577.21 2092.24,4577.22C2094.39,4577.23 2097.27,4577.34 2099.24,4576.35C2099.34,4576.3 2099.02,4575.51 2098.97,4575.4C2098.53,4574.44 2097.7,4573.75 2096.75,4573.32C2094.27,4572.2 2091.51,4572.58 2089.03,4573.46" style="fill:rgb(246,246,246);stroke:rgb(17,17,17);stroke-width:0.7px;"/>
                    </g>
                    <g transform="matrix(0.966131,0,0,0.569066,-179.791,-2118.81)">
                        <path d="M2091.14,4572.59C2091.04,4567.48 2090.79,4562.36 2090.49,4557.26" style="fill:rgb(246,246,246);stroke:rgb(17,17,17);stroke-width:0.7px;"/>
                    </g>
                    <g transform="matrix(0.966131,0,0,0.569066,-179.791,-2118.81)">
                        <path d="M2099.32,4575.88C2101.12,4575.71 2102.93,4575.58 2104.74,4575.51C2105.04,4575.49 2106.48,4575.7 2106.71,4575.49C2107.7,4574.58 2105.7,4572.15 2105.07,4571.7C2102.8,4570.05 2099.53,4570 2097.01,4571.05" style="fill:rgb(246,246,246);stroke:rgb(17,17,17);stroke-width:0.7px;"/>
                    </g>
                    <g transform="matrix(0.966131,0,0,0.569066,-179.791,-2118.81)">
                        <path d="M2099.92,4570.14C2099.71,4563.03 2099.41,4555.9 2099,4548.8" style="fill:rgb(246,246,246);stroke:rgb(17,17,17);stroke-width:0.7px;"/>
                    </g>
                    <g transform="matrix(0.966131,0,0,0.569066,-179.791,-2118.81)">
                        <path d="M2112.33,4541.09C2113.62,4541.42 2114.8,4541.98 2115.95,4542.61C2117.06,4543.23 2118.3,4543.98 2119.62,4543.98C2120.66,4543.98 2122.27,4543.9 2122.32,4542.51C2122.36,4541.51 2121.44,4540.91 2120.63,4540.57C2120.32,4540.44 2120,4540.34 2119.69,4540.2C2119.67,4540.19 2119.4,4540.06 2119.41,4540.06C2119.95,4539.14 2122.09,4540.15 2121.99,4538.68C2121.97,4538.54 2121.95,4538.4 2121.89,4538.26C2121.82,4538.06 2121.66,4537.89 2121.48,4537.77C2120.66,4537.2 2119.54,4537.5 2118.63,4537.61C2117.22,4537.76 2116.12,4537.76 2114.78,4537.32" style="fill:rgb(246,246,246);stroke:rgb(17,17,17);stroke-width:0.7px;"/>
                    </g>
                    <g transform="matrix(0.966131,0,0,0.569066,-179.791,-2118.81)">
                        <path d="M2082.21,4570.38C2085.04,4569.82 2087.81,4569.02 2090.7,4568.99" style="fill:rgb(246,246,246);stroke:rgb(17,17,17);stroke-width:0.7px;"/>
                    </g>
                    <g transform="matrix(0.966131,0,0,0.569066,-179.791,-2118.81)">
                        <path d="M2091.15,4567.9C2093.9,4566.76 2096.57,4566 2099.52,4565.79" style="fill:rgb(246,246,246);stroke:rgb(17,17,17);stroke-width:0.7px;"/>
                    </g>
                </g>
                <g transform="matrix(1.08864,0,0,1.08864,-240.159,35.809)">
                    <g transform="matrix(0.966131,0,0,0.569066,-179.791,-2118.81)">
                        <path d="M2109.52,4501.35C2110.92,4500.8 2113.34,4499.28 2114.89,4499.3C2117.78,4499.33 2120.93,4500.43 2123.89,4500.6C2129.7,4500.93 2135.56,4500.57 2141.33,4499.93C2144.4,4499.59 2147.71,4499.53 2150.55,4498.19C2159.31,4494.08 2160.84,4481.75 2150.55,4479.88C2140.59,4478.07 2128.04,4480.24 2117.47,4481.53C2113.26,4482.03 2108.89,4483.94 2107.59,4486.93C2105.58,4491.59 2108.13,4493.86 2110.6,4497.27C2110.91,4497.71 2109.78,4500.67 2109.63,4501.25" style="fill:rgb(246,246,246);stroke:rgb(17,17,17);stroke-width:0.53px;"/>
                    </g>
                    <g transform="matrix(0.966131,0,0,0.569066,-179.791,-2118.81)">
                        <path d="M2114.7,4489.7C2114.77,4489.14 2114.91,4488.59 2115.12,4488.07C2116.24,4485.24 2118.6,4486.36 2120.81,4486.82C2121.97,4487.07 2123.13,4487.12 2124.31,4487.04" style="fill:none;stroke:rgb(17,17,17);stroke-width:0.53px;"/>
                    </g>
                    <g transform="matrix(0.966131,0,0,0.569066,-179.791,-2118.81)">
                        <path d="M2117.21,4488.53C2117.21,4491 2117.41,4493.49 2117.99,4495.9" style="fill:none;stroke:rgb(17,17,17);stroke-width:0.53px;"/>
                    </g>
                    <g transform="matrix(0.966131,0,0,0.569066,-179.791,-2118.81)">
                        <path d="M2122.04,4489.51C2121.78,4489.61 2121,4489.9 2120.93,4490.25C2120.76,4491.14 2121.85,4492.23 2122.71,4492.14C2124.48,4491.96 2123.14,4489.73 2122.11,4489.5" style="fill:none;stroke:rgb(17,17,17);stroke-width:0.53px;"/>
                    </g>
                    <g transform="matrix(0.966131,0,0,0.569066,-179.791,-2118.81)">
                        <path d="M2112.26,4490.54C2113.12,4492.05 2115.02,4492.26 2115.87,4493.65" style="fill:none;stroke:rgb(17,17,17);stroke-width:0.53px;"/>
                    </g>
                    <g transform="matrix(0.966131,0,0,0.569066,-179.791,-2118.81)">
                        <path d="M2112.56,4493.61C2113.68,4495.12 2115.08,4495.41 2116.45,4496.56" style="fill:none;stroke:rgb(17,17,17);stroke-width:0.53px;"/>
                    </g>
                    <g transform="matrix(0.966131,0,0,0.569066,-179.791,-2118.81)">
                        <path d="M2119.79,4493.98C2119.83,4494.58 2119.89,4495.18 2119.95,4495.78C2119.95,4495.82 2119.99,4496.29 2120.01,4496.29C2121.24,4496.44 2123.01,4496.55 2124.22,4496.26C2124.22,4496.26 2124.26,4494.81 2124.18,4494.76C2123.28,4494.05 2121.98,4493.79 2120.87,4493.59" style="fill:none;stroke:rgb(17,17,17);stroke-width:0.53px;"/>
                    </g>
                    <g transform="matrix(0.966131,0,0,0.569066,-179.791,-2118.81)">
                        <path d="M2130.14,4486.41C2130.14,4488.87 2130.26,4491.3 2130.61,4493.74C2130.66,4494.1 2130.77,4495.91 2131.17,4496.12C2131.2,4496.13 2131.48,4495.66 2131.5,4495.62C2131.81,4495.07 2132.04,4494.47 2132.19,4493.86C2132.75,4491.41 2132.53,4488.76 2132.27,4486.29" style="fill:none;stroke:rgb(17,17,17);stroke-width:0.53px;"/>
                    </g>
                    <g transform="matrix(0.966131,0,0,0.569066,-179.791,-2118.81)">
                        <path d="M2133.68,4486.72C2134.13,4486.7 2134.58,4486.69 2135.02,4486.66" style="fill:none;stroke:rgb(17,17,17);stroke-width:0.53px;"/>
                    </g>
                    <g transform="matrix(0.966131,0,0,0.569066,-179.791,-2118.81)">
                        <path d="M2133.68,4488.71C2134.13,4488.71 2134.58,4488.69 2135.02,4488.67" style="fill:none;stroke:rgb(17,17,17);stroke-width:0.53px;"/>
                    </g>
                    <g transform="matrix(0.966131,0,0,0.569066,-179.791,-2118.81)">
                        <path d="M2133.85,4490.68C2134.38,4490.66 2134.92,4490.63 2135.45,4490.61" style="fill:none;stroke:rgb(17,17,17);stroke-width:0.53px;"/>
                    </g>
                    <g transform="matrix(0.966131,0,0,0.569066,-179.791,-2118.81)">
                        <path d="M2135.73,4492.85C2134.37,4493.19 2134.51,4493.88 2135.3,4494.92" style="fill:none;stroke:rgb(17,17,17);stroke-width:0.53px;"/>
                    </g>
                    <g transform="matrix(0.966131,0,0,0.569066,-179.791,-2118.81)">
                        <path d="M2133.58,4496.7C2134.51,4496.58 2135.44,4496.42 2136.38,4496.33" style="fill:none;stroke:rgb(17,17,17);stroke-width:0.53px;"/>
                    </g>
                    <g transform="matrix(0.966131,0,0,0.569066,-179.791,-2118.81)">
                        <path d="M2141.29,4488.22C2141.24,4489.52 2141.16,4490.82 2141.08,4492.12C2141.01,4493.24 2140.98,4494.36 2140.96,4495.48C2140.96,4495.58 2140.85,4496.43 2140.95,4496.51C2141.13,4496.67 2142.05,4496.59 2142.33,4496.61C2142.53,4496.63 2142.72,4496.65 2142.92,4496.67C2143.02,4496.68 2143.21,4496.79 2143.21,4496.69C2143.24,4495.73 2142.74,4494.44 2142.56,4493.5C2142.23,4491.76 2142.07,4489.99 2141.72,4488.26" style="fill:none;stroke:rgb(17,17,17);stroke-width:0.53px;"/>
                    </g>
                    <g transform="matrix(0.966131,0,0,0.569066,-179.791,-2118.81)">
                        <path d="M2141.85,4485.12C2141.62,4485.18 2141.25,4485.22 2141.06,4485.38C2140.33,4485.98 2141.45,4486.82 2142.01,4486.87C2143,4486.97 2142.46,4485.57 2142.12,4485.25" style="fill:none;stroke:rgb(17,17,17);stroke-width:0.53px;"/>
                    </g>
                    <g transform="matrix(0.966131,0,0,0.569066,-179.791,-2118.81)">
                        <path d="M2146.34,4486.17C2146.73,4485.12 2147.67,4483.63 2148.85,4484.76C2149.02,4484.93 2149.15,4485.11 2149.25,4485.32C2149.38,4485.61 2149.46,4485.91 2149.5,4486.22C2149.67,4487.6 2148.94,4489.05 2148.59,4490.36C2148.29,4491.48 2148.32,4492.57 2148.38,4493.72" style="fill:none;stroke:rgb(17,17,17);stroke-width:0.53px;"/>
                    </g>
                    <g transform="matrix(0.966131,0,0,0.569066,-179.791,-2118.81)">
                        <path d="M2148.52,4495.9C2148.55,4496.4 2148.47,4496.23 2148.52,4496.73" style="fill:none;stroke:rgb(17,17,17);stroke-width:0.53px;"/>
                    </g>
                </g>
            </g>
        </g>
        <g transform="matrix(0.0386102,0,0,31.6458,6268.58,1382.63)">
            <g transform="matrix(18.9934,0,0,0.0455593,-30065.8,17.55)">
                <g transform="matrix(1.2812,0,0,1.2812,-534.505,-125.21)">
                    <g>
                        <g>
                            <g transform="matrix(0.966131,0,0,0.491415,-179.791,-1829.69)">
                                <path d="M2110.76,4599.7C2110.29,4600.61 2109.94,4601.56 2109.51,4602.48C2109.03,4603.5 2108.49,4604.46 2108.18,4605.55" style="fill:none;stroke:rgb(246,246,246);stroke-width:2px;"/>
                            </g>
                            <g transform="matrix(0.966131,0,0,0.491415,-179.791,-1829.69)">
                                <path d="M2108.49,4607.7C2108.49,4606.05 2108.48,4604.39 2108.5,4602.73C2108.5,4602.21 2108.54,4601.68 2108.62,4601.16C2108.65,4600.99 2108.68,4600.82 2108.72,4600.65C2108.75,4600.56 2108.89,4600.37 2108.8,4600.37C2107.84,4600.4 2106.88,4600.84 2105.91,4600.93C2105.27,4600.98 2104.59,4600.8 2103.98,4600.64C2102.69,4600.3 2101.4,4599.78 2100.17,4599.25C2099.83,4599.1 2099.47,4598.95 2099.15,4598.76C2099.07,4598.72 2098.88,4598.51 2098.8,4598.51C2098.64,4598.5 2098.32,4599.03 2098.25,4599.16C2097.84,4599.93 2097.66,4600.84 2097.41,4601.68C2096.81,4603.75 2095.97,4605.77 2095.3,4607.82C2094.86,4609.19 2094.42,4610.81 2094.88,4612.23C2095.27,4613.42 2096.4,4613.92 2097.49,4614.35C2099.75,4615.23 2102.3,4616.08 2104.72,4616.34C2104.84,4616.35 2104.49,4616.41 2104.37,4616.44C2104.14,4616.5 2103.91,4616.54 2103.68,4616.56C2102.94,4616.64 2102.19,4616.58 2101.45,4616.48C2099.57,4616.22 2097.46,4615.41 2096.23,4613.89C2095.88,4613.44 2095.22,4612.36 2095.46,4611.74C2095.51,4611.6 2095.61,4611.46 2095.72,4611.36C2096.42,4610.71 2096.92,4611.32 2097.37,4611.9C2097.56,4612.14 2097.8,4612.41 2097.99,4612.67C2098.05,4612.77 2098.13,4612.85 2098.21,4612.93C2098.25,4612.96 2098.38,4613.03 2098.33,4613.03C2098,4612.96 2097.67,4612.82 2097.36,4612.68C2097.25,4612.63 2097.13,4612.58 2097.02,4612.52C2096.96,4612.5 2096.79,4612.42 2096.85,4612.44C2098.08,4612.99 2099.32,4613.51 2100.6,4613.93C2101.71,4614.3 2102.84,4614.55 2103.98,4614.79C2104.36,4614.86 2104.74,4614.94 2105.12,4615.03C2105.24,4615.06 2105.36,4615.1 2105.48,4615.16C2105.54,4615.18 2105.66,4615.3 2105.65,4615.24C2105.54,4614.9 2105.19,4614.55 2104.97,4614.28C2104.32,4613.49 2103.59,4612.8 2102.71,4612.28C2102.32,4612.05 2101.9,4611.87 2101.46,4611.76C2101.31,4611.72 2101.16,4611.7 2101.01,4611.69C2100.94,4611.68 2100.76,4611.62 2100.8,4611.68C2101,4612.01 2101.42,4612.29 2101.72,4612.53C2101.83,4612.62 2101.94,4612.71 2102.05,4612.79C2102.12,4612.83 2102.32,4612.93 2102.24,4612.92C2100.53,4612.81 2099.02,4611.78 2097.63,4610.87C2097.5,4610.78 2096.65,4610.39 2096.61,4610.23C2096.45,4609.6 2096.87,4608.68 2096.98,4608.06C2097.13,4607.14 2097.16,4606.2 2097.36,4605.29C2097.53,4604.48 2097.87,4603.71 2098.14,4602.93C2098.32,4602.43 2098.5,4601.94 2098.69,4601.45C2098.71,4601.41 2098.83,4601.01 2098.87,4601.01C2100.89,4600.97 2102.51,4601.9 2104.38,4602.62C2105,4602.86 2105.65,4603 2106.32,4603.02C2106.55,4603.03 2106.77,4603.03 2107,4603.01C2107.1,4603 2107.36,4603.07 2107.3,4602.98C2106.08,4601.09 2103.3,4602.14 2101.51,4601.89C2101.1,4601.84 2100.63,4601.77 2100.28,4601.5C2100.14,4601.38 2099.83,4600.95 2099.66,4600.9C2099.63,4600.89 2099.47,4601.32 2099.45,4601.36C2099.23,4601.97 2099.1,4602.61 2098.98,4603.25C2098.67,4604.9 2098.45,4606.56 2098.44,4608.24C2098.44,4608.8 2098.33,4609.65 2098.57,4610.18C2098.72,4610.49 2099.52,4610.6 2099.81,4610.65C2100.98,4610.84 2102.13,4610.49 2103.18,4611.18C2103.85,4611.61 2104.38,4612.24 2104.88,4612.84C2105.05,4613.04 2105.22,4613.24 2105.39,4613.44C2105.43,4613.5 2105.69,4613.73 2105.72,4613.7C2106.11,4613.29 2105.87,4612.3 2105.64,4611.84C2104.89,4610.25 2103.42,4609.11 2102.68,4607.49C2102.13,4606.28 2102.02,4604.96 2101.63,4603.7C2101.54,4603.42 2101.44,4603.15 2101.31,4602.89C2101.3,4602.88 2101.19,4602.66 2101.18,4602.67C2100.78,4602.87 2100.51,4603.4 2100.33,4603.79C2099.86,4604.78 2099.73,4605.9 2099.78,4606.99C2099.8,4607.44 2099.83,4607.88 2099.86,4608.33C2099.87,4608.48 2099.88,4608.64 2099.89,4608.8C2099.89,4608.88 2099.82,4609.08 2099.9,4609.05C2100.49,4608.79 2101.03,4607.87 2101.32,4607.33C2101.43,4607.13 2101.52,4606.93 2101.61,4606.72C2101.66,4606.6 2101.69,4606.25 2101.75,4606.36C2102.4,4607.62 2102.51,4609.05 2102.64,4610.43C2102.66,4610.7 2102.69,4610.97 2102.72,4611.23C2102.74,4611.37 2102.91,4611.64 2102.78,4611.64C2102.69,4611.64 2102.67,4611.5 2102.62,4611.43C2102.41,4611.11 2102.23,4610.78 2102.08,4610.43C2101.55,4609.19 2101.35,4607.82 2101.23,4606.49C2101.19,4606.07 2101.16,4605.64 2101.14,4605.21C2101.13,4605.06 2101.12,4604.91 2101.11,4604.75C2101.1,4604.69 2101.1,4604.52 2101.09,4604.58C2100.48,4606.72 2100.9,4609.34 2101.29,4611.49C2101.39,4612.04 2101.52,4612.58 2101.68,4613.12C2101.68,4613.13 2101.82,4613.55 2101.83,4613.54C2102.99,4613.04 2103.75,4611.92 2104.44,4610.91C2105.14,4609.9 2105.85,4608.86 2106.46,4607.79C2106.83,4607.16 2107.12,4606.49 2107.44,4605.83C2107.54,4605.62 2107.64,4605.42 2107.76,4605.22C2107.82,4605.1 2107.9,4604.75 2107.97,4604.87C2108.49,4605.82 2108.33,4607.31 2108.3,4608.39C2108.19,4611.46 2108.7,4614.4 2108.93,4617.44C2108.99,4618.19 2109.5,4619.7 2108.84,4620.28C2108.51,4620.57 2107.99,4620.61 2107.59,4620.7C2106.64,4620.93 2105.68,4621.22 2104.69,4621.18C2103.29,4621.12 2101.87,4620.75 2100.53,4620.36C2100.21,4620.27 2099.36,4620.17 2099.11,4619.9C2098.41,4619.12 2098.78,4617.38 2098.89,4616.45C2099.04,4615.28 2099.29,4614.1 2099.36,4612.92C2099.43,4611.61 2099.32,4610.25 2099.32,4608.93" style="fill:none;stroke:rgb(246,246,246);stroke-width:2px;"/>
                            </g>
                            <g transform="matrix(0.966131,0,0,0.491415,-179.791,-1829.69)">
                                <path d="M2100.11,4617.35C2100.1,4617.65 2100.01,4618.14 2100.14,4618.42C2100.39,4618.94 2101.05,4619.16 2101.58,4619.25C2102.77,4619.47 2103.95,4619.29 2105.14,4619.17C2106.14,4619.07 2107.3,4619.33 2107.76,4618.22C2108.16,4617.26 2107.97,4616.12 2107.83,4615.12C2107.78,4614.75 2107.72,4614.38 2107.68,4614.01C2107.67,4613.91 2107.66,4613.81 2107.66,4613.7C2107.65,4613.65 2107.67,4613.5 2107.64,4613.54C2106.7,4614.69 2106.43,4616.32 2106.2,4617.75C2106.12,4618.21 2106.05,4618.66 2105.99,4619.12C2105.97,4619.28 2105.95,4619.44 2105.93,4619.6C2105.92,4619.67 2105.94,4619.87 2105.9,4619.81C2105.32,4618.89 2105.04,4617.86 2104.81,4616.81C2104.75,4616.52 2104.78,4615.81 2104.52,4615.57C2104.23,4615.32 2103.76,4615.31 2103.41,4615.34C2102.57,4615.4 2101.61,4615.74 2101.19,4616.52C2100.74,4617.36 2100.87,4618.16 2101.89,4618.28C2102.16,4618.32 2102.43,4618.31 2102.7,4618.29C2103.27,4618.22 2103.82,4618.08 2104.39,4618.01" style="fill:none;stroke:rgb(246,246,246);stroke-width:2px;"/>
                            </g>
                        </g>
                        <g>
                            <g transform="matrix(0.966131,0,0,0.491415,-179.791,-1829.69)">
                                <path d="M2100.17,4621.09C2100.17,4623.06 2100.09,4625.01 2100.18,4626.98C2100.27,4628.94 2100.52,4630.94 2100.45,4632.92C2100.44,4633.36 2100.27,4633.71 2099.92,4634C2099.8,4634.1 2099.54,4634.11 2099.4,4634.14C2098.95,4634.22 2097.01,4634.59 2098.16,4635.34C2098.3,4635.43 2098.45,4635.51 2098.62,4635.55C2099.63,4635.75 2100.83,4635.29 2101.8,4635.06C2102.14,4634.98 2102.69,4634.94 2102.96,4634.66C2103.28,4634.33 2103.23,4633.29 2103.11,4632.92C2103.02,4632.63 2102.52,4633.38 2102.4,4633.54C2102.32,4633.65 2102.11,4633.98 2102.16,4633.86C2102.37,4633.37 2102.7,4632.97 2103.01,4632.54C2103.05,4632.49 2103.31,4632.18 2103.28,4632.09C2103,4631.21 2102.72,4630.56 2102.75,4629.6C2102.8,4627.97 2103.33,4626.4 2103.69,4624.82C2103.82,4624.27 2104.29,4623.42 2103.7,4623.03C2103.38,4622.82 2102.36,4622.12 2101.91,4622.25C2101.5,4622.36 2101.23,4623.53 2101.14,4623.88C2100.69,4625.59 2100.72,4627.42 2100.93,4629.16C2101.02,4629.96 2101.16,4630.76 2101.26,4631.55C2101.29,4631.82 2101.32,4632.08 2101.34,4632.35C2101.35,4632.44 2101.36,4632.53 2101.37,4632.62C2101.37,4632.67 2101.38,4632.81 2101.38,4632.76C2101.61,4629.61 2101.35,4626.27 2102.64,4623.3" style="fill:none;stroke:rgb(246,246,246);stroke-width:2px;"/>
                            </g>
                            <g transform="matrix(0.966131,0,0,0.491415,-179.791,-1829.69)">
                                <path d="M2108.73,4621.34C2108.73,4622.53 2108.71,4623.74 2108.78,4624.93C2108.83,4625.87 2108.95,4626.79 2108.99,4627.73C2109.02,4628.51 2109,4629.29 2109.03,4630.07C2109.05,4630.6 2109.08,4631.14 2109.13,4631.67C2109.3,4633.7 2109.68,4636.87 2107.23,4637.71C2106.89,4637.83 2106.56,4637.84 2106.2,4637.81C2105.35,4637.71 2104.19,4637.45 2104.73,4636.3C2104.8,4636.14 2104.93,4635.98 2105.07,4635.86C2105.27,4635.69 2105.5,4635.55 2105.74,4635.45C2106.16,4635.26 2106.61,4635.16 2107.04,4635.03C2107.07,4635.02 2107.42,4634.94 2107.42,4634.89C2107.44,4634.75 2107.22,4634.43 2107.16,4634.29C2106.96,4633.82 2106.79,4633.34 2106.72,4632.83C2106.57,4631.83 2106.67,4630.84 2106.42,4629.84C2106.01,4628.21 2105.22,4626.69 2104.88,4625.05C2104.57,4623.51 2105.22,4621.56 2107.03,4621.32C2107.15,4621.31 2107.17,4622.32 2107.17,4622.42C2107.16,4622.96 2107.07,4623.53 2106.87,4624.04C2106.67,4624.56 2106.33,4625 2106.43,4625.6C2106.57,4626.55 2107.27,4627.43 2107.51,4628.37C2108.01,4630.34 2108.17,4632.43 2108.35,4634.45C2108.43,4635.34 2108.05,4635.78 2107.29,4636.24C2107.08,4636.37 2106.85,4636.49 2106.61,4636.58C2106.5,4636.63 2106.16,4636.78 2106.26,4636.72C2107.03,4636.19 2107.71,4635.88 2108.1,4634.94C2108.62,4633.69 2108.31,4632 2108.18,4630.68C2107.93,4628.11 2107.73,4625.57 2107.66,4622.98" style="fill:none;stroke:rgb(246,246,246);stroke-width:2px;"/>
                            </g>
                        </g>
                    </g>
                    <g transform="matrix(0.966131,0,0,0.491415,-406.227,-1755.41)">
                        <path d="M2344.59,4429.76C2341.02,4428.88 2336.82,4427.94 2333.55,4430.27C2326.39,4435.38 2328.7,4446.19 2336.97,4448.45C2341.28,4449.63 2345.95,4448.5 2348.67,4444.81C2352.34,4439.84 2352.02,4431.99 2345.35,4429.96" style="fill:rgb(246,246,246);stroke:rgb(17,17,17);stroke-width:0.5px;"/>
                    </g>
                    <g transform="matrix(0.966131,0,0,0.491415,-179.842,-1823.63)">
                        <path d="M2108.67,4592.48C2108.71,4593.26 2108.75,4594.03 2108.8,4594.8C2108.82,4595.04 2108.84,4595.29 2108.86,4595.53C2108.87,4595.66 2109.02,4595.93 2108.89,4595.92C2108.78,4595.91 2108.52,4595.45 2108.46,4595.36C2108.01,4594.71 2107.64,4594.01 2107.27,4593.32C2105.91,4590.75 2104.47,4585.11 2103.37,4584.9L2103.37,4584.91C2100.17,4584.77 2100.8,4588.46 2101.41,4590.77C2102.42,4594.58 2104.7,4599.19 2107.78,4601.74C2111.24,4604.62 2113.89,4600.97 2113.97,4597.49C2114.01,4595.97 2113.85,4594.4 2113.6,4592.9C2113.23,4590.73 2112.43,4588.75 2111.26,4586.89" style="fill:rgb(246,246,246);stroke:rgb(17,17,17);stroke-width:0.5px;"/>
                    </g>
                    <g transform="matrix(0.966131,0,0,0.491415,-179.842,-1823.63)">
                        <path d="M2098.1,4585.1C2096.64,4588.63 2095.03,4592.13 2094.11,4595.85C2093.75,4597.32 2093.36,4599.08 2094.11,4600.49C2095.7,4603.44 2099.56,4604.41 2102.62,4604.8C2103.59,4604.93 2105.78,4605.08 2106.12,4603.8C2106.93,4600.78 2101.83,4599.71 2099.87,4599.35C2099.51,4599.28 2097.82,4599.25 2097.62,4599C2097.57,4598.93 2098.22,4597.51 2098.28,4597.32" style="fill:none;stroke:rgb(17,17,17);stroke-width:0.5px;"/>
                    </g>
                    <g transform="matrix(0.966131,0,0,0.491415,-179.842,-1823.63)">
                        <path d="M2098.04,4598.96C2098.39,4596.65 2098.36,4594.34 2098.6,4592.03" style="fill:none;stroke:rgb(17,17,17);stroke-width:0.5px;"/>
                    </g>
                    <g transform="matrix(0.966131,0,0,0.491415,-179.842,-1823.63)">
                        <path d="M2110.28,4603.15C2110.29,4604.36 2110.31,4605.57 2110.36,4606.78C2110.37,4606.94 2110.52,4607.89 2110.41,4608.02C2108.26,4610.31 2103.63,4609.59 2100.95,4608.99C2100.19,4608.82 2098.59,4608.64 2098.05,4607.95C2097.87,4607.72 2097.9,4607.04 2097.88,4606.75C2097.8,4605.78 2097.87,4604.8 2097.96,4603.83" style="fill:none;stroke:rgb(17,17,17);stroke-width:0.5px;"/>
                    </g>
                    <g transform="matrix(0.966131,0,0,0.491415,-179.842,-1823.63)">
                        <path d="M2109.93,4608.68C2109.93,4612.37 2110.27,4616.06 2110.34,4619.75C2110.36,4620.74 2110.4,4621.74 2110.41,4622.73C2110.42,4623.19 2110.51,4623.77 2110.37,4624.22C2109.82,4625.9 2106.93,4626.08 2105.5,4625.98C2105,4625.95 2104.13,4625.97 2103.8,4625.52C2103.29,4624.82 2103.71,4623.77 2104.21,4623.19C2105.16,4622.07 2107,4621.63 2108.32,4622.32" style="fill:none;stroke:rgb(17,17,17);stroke-width:0.5px;"/>
                    </g>
                    <g transform="matrix(0.966131,0,0,0.491415,-179.842,-1823.63)">
                        <path d="M2105.97,4622.09C2105.79,4619.65 2105.74,4617.54 2104.97,4615.19" style="fill:none;stroke:rgb(17,17,17);stroke-width:0.5px;"/>
                    </g>
                    <g transform="matrix(0.966131,0,0,0.491415,-179.842,-1823.63)">
                        <path d="M2099.18,4608.88C2099.18,4612.69 2099.05,4616.5 2099.3,4620.32" style="fill:none;stroke:rgb(17,17,17);stroke-width:0.5px;"/>
                    </g>
                    <g transform="matrix(0.966131,0,0,0.491415,-179.842,-1823.63)">
                        <path d="M2102.03,4621.28C2100.36,4620.96 2098.58,4620.07 2097.25,4621.59C2096.94,4621.94 2096.7,4622.3 2096.73,4622.79C2096.79,4623.68 2097.74,4624.22 2098.53,4624.39C2099.99,4624.7 2102.65,4624.34 2103.63,4623.04C2104.57,4621.79 2103.93,4620.05 2103.8,4618.65C2103.63,4616.82 2103.91,4615.08 2104.5,4613.36" style="fill:none;stroke:rgb(17,17,17);stroke-width:0.5px;"/>
                    </g>
                    <g transform="matrix(0.966131,0,0,0.491415,-179.842,-1823.63)">
                        <path d="M2105.07,4615.36C2104.8,4614.83 2104.59,4614.28 2104.38,4613.73" style="fill:none;stroke:rgb(17,17,17);stroke-width:0.5px;"/>
                    </g>
                    <g transform="matrix(0.966131,0,0,0.491415,-406.227,-1755.41)">
                        <path d="M2332.66,4438.32C2332.69,4439.14 2332.73,4439.95 2332.78,4440.77" style="fill:none;stroke:rgb(17,17,17);stroke-width:0.5px;"/>
                    </g>
                    <g transform="matrix(0.966131,0,0,0.491415,-407.437,-1755.83)">
                        <path d="M2339.35,4439.11C2339.37,4439.95 2339.41,4440.79 2339.46,4441.62" style="fill:none;stroke:rgb(17,17,17);stroke-width:0.5px;"/>
                    </g>
                </g>
                <g transform="matrix(1.3545,0,0,0.491415,-965.394,-1842.03)">
                    <path d="M2071.83,4579.5C2072.02,4579.28 2073.17,4577.94 2073.48,4578.06C2074.2,4578.35 2075.28,4579.63 2075.27,4580.44C2075.24,4581.99 2073.74,4583.4 2073.59,4585.04" style="fill:none;stroke:rgb(17,17,17);stroke-width:0.5px;"/>
                </g>
                <g transform="matrix(1.3545,0,0,0.491415,-965.394,-1842.03)">
                    <path d="M2073.97,4587.25C2073.98,4587.33 2073.99,4587.41 2074.01,4587.5" style="fill:none;stroke:rgb(17,17,17);stroke-width:0.5px;"/>
                </g>
            </g>
        </g>
    </g>
</svg>
